Kana.sfdir
StartChar: uF0147
Encoding: 983367 983367 0
Width: 500
VWidth: 0
Flags: MW
LayerCount: 2
Back
Fore
SplineSet
108 -21 m 0
 108 -3 108 -1 110 9 c 0
 116 38 126 59 142 77 c 0
 156 94 179 107 198 110 c 0
 225 115 254 107 274 87 c 0
 290 71 300 52 306 23 c 0
 308 13 308 11 308 -6 c 0
 308 -23 308 -25 306 -36 c 0
 296 -86 270 -119 232 -134 c 0
 217 -140 199 -142 184 -138 c 0
 146 -129 120 -98 110 -50 c 0
 108 -41 108 -39 108 -21 c 0
156 -18 m 0
 156 -44 166 -64 184 -74 c 0
 199 -82 216 -81 232 -70 c 0
 256 -53 268 -15 254 19 c 0
 248 36 235 46 220 50 c 0
 212 51 202 52 195 48 c 0
 172 38 156 13 156 -18 c 0
EndSplineSet
Comment: "Kage: aj1-00327+AAoA-Alias: uf0147"
EndChar
StartChar: uF0148
Encoding: 983368 983368 1
Width: 500
VWidth: 0
Flags: MW
LayerCount: 2
Back
Fore
SplineSet
201 107 m 1
 201 301 201 494 201 688 c 1
 217 689 234 690 250 691 c 1
 250 689 250 688 250 686 c 1
 260 688 l 2
 266 688 301 690 340 693 c 2
 410 697 l 1
 410 677 410 657 410 637 c 1
 356 633 304 630 250 626 c 1
 250 454 250 282 250 110 c 1
 234 109 217 108 201 107 c 1
EndSplineSet
Comment: "Kage: aj1-00328+AAoA-Alias: uf0148"
EndChar
StartChar: uF0149
Encoding: 983369 983369 2
Width: 500
VWidth: 0
Flags: MW
LayerCount: 2
Back
Fore
SplineSet
130 -62 m 1
 188 -58 l 2
 220 -56 256 -53 268 -52 c 2
 290 -50 l 1
 290 111 290 274 290 435 c 1
 306 436 322 437 338 438 c 1
 338 256 338 74 338 -108 c 1
 268 -113 200 -117 130 -122 c 1
 130 -102 130 -82 130 -62 c 1
EndSplineSet
Comment: "Kage: aj1-00329+AAoA-Alias: uf0149"
EndChar
StartChar: uF014A
Encoding: 983370 983370 3
Width: 500
VWidth: 0
Flags: MW
LayerCount: 2
Back
Fore
SplineSet
121 90 m 0
 121 91 124 98 125 98 c 0
 125 98 132 97 138 94 c 0
 204 70 265 16 309 -58 c 1
 316 -70 l 1
 317 -78 319 -85 320 -93 c 1
 317 -99 312 -107 308 -113 c 1
 302 -114 295 -116 289 -117 c 1
 282 -111 l 2
 275 -105 275 -105 269 -93 c 0
 263 -80 255 -62 246 -48 c 0
 222 -7 184 37 132 81 c 0
 126 87 121 90 121 90 c 0
EndSplineSet
Comment: "Kage: aj1-00330+AAoA-Alias: uf014a"
EndChar
StartChar: uF014B
Encoding: 983371 983371 4
Width: 500
VWidth: 0
Flags: MW
LayerCount: 2
Back
Fore
SplineSet
200 291 m 0
 203 319 218 343 240 349 c 0
 250 352 250 352 260 351 c 0
 268 350 270 350 276 345 c 0
 282 341 284 338 288 332 c 0
 305 308 305 271 288 246 c 0
 284 240 282 236 276 232 c 0
 270 227 267 227 259 224 c 2
 250 220 l 1
 240 222 l 2
 232 223 230 223 224 228 c 0
 218 232 216 234 212 240 c 0
 202 253 198 272 200 291 c 0
EndSplineSet
Comment: "Kage: aj1-00331+AAoA-Alias: uf014b"
EndChar
StartChar: uF014C
Encoding: 983372 983372 5
Width: 500
VWidth: 0
Flags: MW
LayerCount: 2
Back
Fore
SplineSet
101 556 m 0
 101 556 104 555 107 553 c 2
 113 549 l 1
 143 549 175 549 205 549 c 1
 256 553 307 556 358 560 c 1
 369 572 l 2
 375 579 382 585 382 585 c 0
 383 585 392 573 404 559 c 2
 427 533 l 1
 419 528 411 525 403 520 c 1
 398 483 l 2
 391 429 378 364 365 311 c 0
 344 223 320 152 290 87 c 0
 277 60 273 52 259 27 c 0
 245 2 239 -6 224 -27 c 0
 208 -49 203 -54 185 -73 c 0
 166 -93 164 -94 146 -108 c 0
 136 -116 126 -125 124 -126 c 2
 122 -127 l 1
 120 -123 l 2
 119 -121 118 -119 118 -119 c 0
 118 -119 126 -110 136 -99 c 0
 214 -14 267 93 307 246 c 0
 315 278 322 306 322 310 c 0
 322 310 303 310 280 308 c 0
 242 305 234 303 185 297 c 2
 132 290 l 1
 127 285 l 2
 124 283 120 282 120 282 c 0
 119 283 108 341 108 341 c 0
 108 341 112 341 115 339 c 2
 121 335 l 1
 167 334 l 2
 213 334 213 334 271 338 c 2
 328 342 l 1
 332 357 l 2
 339 397 350 481 355 525 c 1
 356 527 l 1
 294 523 l 2
 234 519 232 519 180 512 c 2
 127 504 l 1
 120 500 l 2
 116 498 113 496 113 496 c 0
 112 497 101 556 101 556 c 0
EndSplineSet
Comment: "Kage: aj1-00332+AAoA-Alias: uf014c"
EndChar
StartChar: uF014D
Encoding: 983373 983373 6
Width: 500
VWidth: 0
Flags: MW
LayerCount: 2
Back
Fore
SplineSet
105 422 m 0
 105 422 109 421 112 419 c 2
 117 416 l 1
 147 416 180 415 210 415 c 1
 256 418 303 422 349 425 c 1
 360 438 l 2
 366 445 372 451 372 451 c 0
 372 451 384 438 396 424 c 0
 417 399 418 399 416 398 c 0
 408 393 394 384 392 383 c 0
 390 382 388 379 386 372 c 0
 365 313 328 247 290 200 c 0
 281 189 281 188 276 193 c 2
 275 195 l 1
 282 210 l 1
 301 256 322 312 331 341 c 0
 335 353 341 375 343 385 c 2
 344 394 l 1
 290 390 l 2
 237 386 235 386 183 378 c 2
 129 371 l 1
 124 366 l 2
 121 364 117 363 117 363 c 0
 116 364 105 422 105 422 c 0
113 -132 m 0
 113 -132 119 -126 126 -117 c 0
 178 -57 210 17 223 111 c 0
 228 145 229 174 228 212 c 0
 228 229 228 248 227 256 c 2
 226 270 l 1
 219 290 l 2
 215 301 212 311 211 313 c 0
 210 316 209 317 210 317 c 0
 211 317 224 314 241 311 c 0
 257 307 274 305 277 304 c 0
 280 303 284 302 284 301 c 0
 284 300 278 262 276 252 c 0
 275 249 275 235 274 215 c 0
 273 187 271 178 269 156 c 0
 260 80 243 18 214 -34 c 0
 191 -76 166 -105 133 -128 c 0
 124 -135 117 -139 117 -139 c 0
 116 -138 113 -132 113 -132 c 0
EndSplineSet
Comment: "Kage: aj1-00333+AAoA-Alias: uf014d"
EndChar
StartChar: uF014E
Encoding: 983374 983374 7
Width: 500
VWidth: 0
Flags: MW
LayerCount: 2
Back
Fore
SplineSet
96 47 m 1
 108 64 l 2
 134 98 166 143 188 181 c 0
 199 200 221 239 227 251 c 2
 229 257 l 1
 226 268 l 2
 224 275 224 282 224 285 c 2
 224 290 l 1
 229 284 232 280 237 274 c 1
 242 285 l 1
 265 336 287 396 300 444 c 2
 304 458 l 1
 304 478 l 2
 304 489 305 500 305 504 c 0
 305 508 306 511 306 511 c 0
 306 511 343 486 362 472 c 1
 369 466 l 1
 356 440 l 2
 349 425 342 413 341 412 c 0
 340 411 336 400 331 388 c 0
 316 349 290 293 272 259 c 0
 268 252 264 246 264 245 c 0
 264 244 267 241 273 236 c 0
 279 231 287 223 290 219 c 2
 296 211 l 1
 292 207 288 202 284 198 c 1
 284 86 284 -25 284 -137 c 1
 278 -142 l 2
 273 -146 271 -149 266 -151 c 2
 260 -153 l 1
 253 -147 l 2
 247 -140 247 -139 241 -125 c 2
 235 -109 l 1
 231 -89 228 -70 224 -50 c 1
 228 -40 232 -28 236 -18 c 1
 236 53 235 124 235 195 c 1
 229 187 l 2
 206 150 177 112 151 86 c 0
 138 73 114 50 101 40 c 0
 100 40 100 40 98 43 c 2
 96 47 l 1
EndSplineSet
Comment: "Kage: aj1-00334+AAoA-Alias: uf014e"
EndChar
StartChar: uF014F
Encoding: 983375 983375 8
Width: 500
VWidth: 0
Flags: MW
LayerCount: 2
Back
Fore
SplineSet
104 186 m 1
 108 196 112 208 116 218 c 1
 116 245 116 272 116 299 c 1
 110 325 l 2
 107 340 104 354 104 356 c 0
 104 358 104 360 104 360 c 0
 104 360 113 350 123 339 c 2
 141 317 l 1
 190 317 l 2
 237 316 240 316 284 319 c 2
 329 323 l 1
 337 332 345 341 353 350 c 1
 376 324 l 2
 388 310 398 297 398 297 c 0
 398 297 392 294 386 291 c 2
 375 284 l 1
 372 261 l 2
 368 228 359 184 350 147 c 0
 325 46 289 -28 239 -83 c 0
 225 -98 221 -102 207 -113 c 0
 193 -124 187 -127 172 -135 c 2
 155 -146 l 1
 154 -142 l 2
 153 -140 152 -138 152 -137 c 0
 152 -136 160 -130 168 -122 c 0
 248 -51 298 59 320 215 c 0
 323 239 328 282 328 290 c 0
 328 292 325 292 296 290 c 0
 271 288 257 288 218 282 c 2
 170 274 l 1
 168 272 167 271 165 269 c 1
 165 213 165 156 165 100 c 1
 160 95 l 2
 154 89 152 87 146 85 c 2
 140 82 l 1
 134 90 l 2
 128 97 128 98 122 112 c 0
 116 127 116 126 110 156 c 2
 104 186 l 1
202 503 m 0
 202 504 207 509 208 509 c 0
 208 509 229 483 233 478 c 0
 239 470 254 446 258 437 c 0
 268 416 275 396 280 377 c 2
 282 367 l 1
 280 359 279 353 277 345 c 1
 269 338 l 2
 265 335 261 332 260 332 c 0
 259 332 255 333 251 334 c 2
 244 337 l 1
 241 344 237 349 234 356 c 1
 233 370 l 2
 232 391 230 412 224 435 c 0
 218 458 210 483 206 493 c 0
 204 498 202 503 202 503 c 0
EndSplineSet
Comment: "Kage: aj1-00335+AAoA-Alias: uf014f"
EndChar
StartChar: uF0150
Encoding: 983376 983376 9
Width: 500
VWidth: 0
Flags: MW
LayerCount: 2
Back
Fore
SplineSet
111 38 m 0
 111 39 114 38 117 36 c 2
 124 32 l 1
 162 32 l 2
 200 32 205 32 219 35 c 2
 226 36 l 1
 226 160 l 2
 226 294 226 293 222 293 c 0
 221 293 208 291 194 289 c 2
 168 285 l 1
 162 281 l 2
 157 278 155 276 155 277 c 0
 154 280 144 337 144 337 c 0
 144 337 147 336 150 334 c 2
 156 330 l 1
 182 330 l 2
 210 330 215 330 214 333 c 0
 213 336 213 345 214 345 c 0
 214 345 218 343 220 340 c 2
 224 334 l 1
 245 339 l 2
 264 343 266 344 284 351 c 0
 294 356 304 360 304 360 c 0
 304 360 311 354 319 348 c 2
 333 336 l 1
 336 328 l 2
 338 324 339 316 341 312 c 2
 344 306 l 1
 312 303 l 2
 278 301 257 299 257 298 c 0
 257 298 260 294 264 291 c 0
 268 288 275 281 279 276 c 2
 287 267 l 1
 283 263 278 258 274 254 c 1
 274 185 274 117 274 48 c 1
 276 48 l 2
 278 48 282 49 284 49 c 0
 286 49 301 56 315 61 c 2
 340 70 l 1
 353 61 365 52 378 43 c 1
 380 35 l 2
 381 31 383 24 385 20 c 0
 387 16 388 13 388 13 c 0
 388 13 356 11 317 8 c 2
 247 3 l 1
 209 -3 172 -7 135 -13 c 1
 131 -16 127 -19 123 -22 c 1
 117 8 l 2
 114 24 111 37 111 38 c 0
EndSplineSet
Comment: "Kage: aj1-00336+AAoA-Alias: uf0150"
EndChar
StartChar: uF0151
Encoding: 983377 983377 10
Width: 500
VWidth: 0
Flags: MW
LayerCount: 2
Back
Fore
SplineSet
86 -89 m 0
 86 -88 91 -80 97 -70 c 0
 144 11 171 65 203 141 c 0
 218 176 244 249 244 254 c 0
 244 255 235 254 177 246 c 2
 122 238 l 1
 118 235 113 232 109 229 c 1
 108 233 l 2
 105 249 97 290 97 290 c 0
 97 290 101 289 104 287 c 2
 110 283 l 1
 160 283 l 2
 188 283 214 283 218 283 c 0
 222 283 232 284 240 286 c 0
 248 288 256 290 256 290 c 0
 256 290 256 329 256 376 c 2
 256 462 l 1
 250 489 l 2
 247 504 244 518 244 520 c 0
 244 522 244 523 244 523 c 0
 244 523 253 513 263 502 c 0
 277 485 282 478 292 470 c 0
 304 459 316 448 316 446 c 0
 316 445 314 441 311 438 c 2
 304 432 l 1
 304 367 l 2
 304 310 305 302 306 302 c 0
 307 302 347 319 347 319 c 0
 348 319 355 313 363 307 c 2
 378 295 l 1
 380 287 l 2
 381 283 383 276 385 272 c 0
 387 268 388 265 388 265 c 0
 388 265 370 264 347 262 c 2
 304 259 l 1
 304 132 304 5 304 -122 c 1
 300 -132 l 2
 296 -140 294 -143 288 -148 c 0
 284 -151 281 -154 280 -154 c 0
 279 -154 256 -138 228 -120 c 2
 176 -87 l 1
 176 -83 176 -79 176 -75 c 1
 179 -76 l 2
 181 -76 199 -79 219 -83 c 2
 256 -90 l 1
 256 -28 l 2
 256 6 256 61 256 95 c 2
 256 157 l 1
 252 148 l 2
 239 120 216 78 198 47 c 0
 180 15 149 -29 129 -53 c 0
 115 -70 93 -96 91 -96 c 0
 89 -96 85 -91 86 -89 c 0
EndSplineSet
Comment: "Kage: aj1-00337+AAoA-Alias: uf0151"
EndChar
StartChar: uF0152
Encoding: 983378 983378 11
Width: 500
VWidth: 0
Flags: MW
LayerCount: 2
Back
Fore
SplineSet
102 218 m 0
 102 219 102 220 108 219 c 2
 115 219 l 1
 158 239 l 2
 198 257 201 258 201 260 c 0
 201 262 182 470 181 475 c 0
 181 476 180 477 181 477 c 0
 182 477 193 477 206 476 c 2
 230 474 l 1
 237 468 l 2
 241 464 244 462 244 462 c 0
 244 462 241 458 238 455 c 0
 232 450 233 449 233 446 c 0
 235 432 248 284 249 283 c 0
 249 283 272 296 301 311 c 2
 354 338 l 1
 354 341 354 345 354 348 c 1
 366 362 l 2
 372 369 378 375 379 375 c 0
 381 375 423 324 422 323 c 0
 421 323 415 319 408 314 c 2
 395 306 l 1
 392 297 l 2
 388 286 373 250 366 233 c 0
 347 190 327 150 305 115 c 0
 301 109 297 102 297 102 c 0
 296 102 291 107 291 108 c 0
 291 109 297 132 303 151 c 0
 327 229 347 300 345 301 c 0
 344 301 253 251 252 250 c 0
 252 250 259 170 269 74 c 0
 283 -68 286 -102 285 -103 c 0
 284 -103 275 -111 263 -122 c 0
 245 -137 241 -141 240 -140 c 0
 240 -138 205 222 205 223 c 0
 205 223 190 214 172 203 c 2
 140 182 l 1
 135 176 l 2
 132 172 129 169 129 170 c 0
 127 172 102 217 102 218 c 0
EndSplineSet
Comment: "Kage: aj1-00338+AAoA-Alias: uf0152"
EndChar
StartChar: uF0153
Encoding: 983379 983379 12
Width: 500
VWidth: 0
Flags: MW
LayerCount: 2
Back
Fore
SplineSet
97 38 m 0
 97 38 101 37 104 35 c 2
 111 31 l 1
 142 31 174 31 205 31 c 1
 224 34 l 2
 234 37 244 40 244 40 c 0
 245 41 288 308 287 309 c 0
 287 309 261 306 230 302 c 2
 174 294 l 1
 168 289 l 2
 165 287 162 286 162 286 c 0
 161 286 148 344 149 345 c 0
 149 345 153 344 156 342 c 2
 163 339 l 1
 208 338 l 2
 238 338 260 339 272 340 c 2
 291 341 l 1
 303 354 l 2
 309 361 316 367 316 367 c 0
 318 367 360 316 359 315 c 0
 358 315 334 299 333 299 c 0
 331 298 297 66 295 52 c 0
 294 49 297 51 324 61 c 2
 350 71 l 1
 368 57 l 2
 378 50 388 44 388 44 c 0
 388 44 388 40 390 35 c 0
 392 30 394 23 396 20 c 0
 398 17 398 13 398 13 c 0
 398 13 362 11 316 8 c 2
 233 2 l 1
 196 -4 159 -8 122 -14 c 1
 118 -17 113 -20 109 -23 c 1
 108 -19 l 2
 105 -4 97 38 97 38 c 0
EndSplineSet
Comment: "Kage: aj1-00339+AAoA-Alias: uf0153"
EndChar
StartChar: uF0154
Encoding: 983380 983380 13
Width: 500
VWidth: 0
Flags: MW
LayerCount: 2
Back
Fore
SplineSet
290 -13 m 2
 290 -7 300 153 300 159 c 2
 300 161 l 1
 284 160 l 2
 276 159 247 157 219 153 c 2
 168 145 l 1
 161 141 l 2
 157 138 155 137 155 138 c 0
 153 144 143 197 144 197 c 0
 144 197 147 195 150 193 c 2
 156 190 l 1
 204 190 l 2
 243 190 257 190 277 191 c 2
 301 193 l 1
 301 196 l 2
 301 199 310 351 311 358 c 2
 311 362 l 1
 291 361 l 2
 278 360 254 357 220 353 c 2
 168 345 l 1
 161 341 l 2
 158 339 154 337 154 337 c 0
 153 338 141 396 142 396 c 0
 142 396 145 396 148 394 c 2
 154 390 l 1
 201 390 l 2
 243 390 252 390 280 392 c 2
 312 394 l 1
 320 403 328 412 336 421 c 1
 359 395 l 2
 371 381 380 368 380 368 c 0
 380 368 374 363 368 360 c 0
 362 357 356 353 356 352 c 0
 355 350 334 -100 333 -100 c 0
 331 -102 284 -129 284 -129 c 0
 288 -48 l 2
 288 -46 255 -48 201 -56 c 2
 150 -64 l 1
 144 -68 l 2
 140 -71 138 -72 138 -71 c 0
 136 -65 126 -13 127 -13 c 0
 127 -13 130 -14 133 -16 c 2
 139 -19 l 1
 187 -19 l 2
 228 -19 241 -20 263 -18 c 2
 290 -16 l 1
 290 -13 l 2
EndSplineSet
Comment: "Kage: aj1-00340+AAoA-Alias: uf0154"
EndChar
StartChar: uF0155
Encoding: 983381 983381 14
Width: 500
VWidth: 0
Flags: MW
LayerCount: 2
Back
Fore
SplineSet
112 376 m 1
 115 380 l 2
 117 382 117 382 118 382 c 0
 119 382 132 370 138 361 c 0
 157 338 173 301 184 259 c 2
 189 242 l 1
 188 233 l 2
 187 228 185 221 185 220 c 0
 185 219 182 216 179 213 c 0
 170 205 169 205 166 206 c 0
 164 206 160 207 157 208 c 2
 152 209 l 1
 149 215 144 221 141 227 c 1
 140 242 l 2
 138 261 137 273 134 294 c 0
 129 322 121 358 115 371 c 2
 112 376 l 1
145 -121 m 1
 160 -104 l 2
 207 -51 249 24 280 111 c 0
 306 184 332 279 347 368 c 2
 352 397 l 1
 350 423 l 2
 349 438 348 449 349 449 c 0
 350 449 415 413 416 412 c 0
 416 412 396 363 394 359 c 0
 393 358 391 351 389 343 c 0
 384 319 369 259 358 222 c 0
 338 154 313 88 288 39 c 0
 251 -33 213 -83 167 -117 c 0
 149 -131 150 -130 147 -123 c 2
 145 -121 l 1
202 435 m 1
 205 438 l 2
 207 440 208 440 209 440 c 0
 212 438 233 415 238 407 c 0
 254 383 267 350 276 315 c 2
 279 305 l 1
 278 296 l 2
 276 281 276 282 268 274 c 0
 264 271 260 268 259 268 c 0
 258 268 254 269 250 270 c 2
 242 271 l 1
 239 277 235 284 232 290 c 1
 230 306 l 2
 229 315 229 325 228 330 c 0
 223 367 212 414 205 428 c 2
 202 435 l 1
EndSplineSet
Comment: "Kage: aj1-00341+AAoA-Alias: uf0155"
EndChar
StartChar: uF0156
Encoding: 983382 983382 15
Width: 500
VWidth: 0
Flags: MW
LayerCount: 2
Back
Fore
SplineSet
58 303 m 0
 58 303 62 301 65 299 c 2
 72 297 l 1
 119 296 l 2
 162 296 169 296 206 299 c 2
 247 302 l 1
 280 309 311 317 344 324 c 1
 367 332 l 2
 379 337 389 342 389 342 c 0
 389 342 424 316 426 314 c 0
 427 313 428 311 429 307 c 0
 430 303 433 296 435 292 c 0
 437 288 437 284 437 284 c 0
 437 284 382 279 312 274 c 2
 185 265 l 1
 151 261 116 255 82 251 c 1
 76 247 l 2
 73 245 70 243 70 244 c 0
 69 246 57 303 58 303 c 0
EndSplineSet
Comment: "Kage: aj1-00342+AAoA-Alias: uf0156"
EndChar
StartChar: uF0157
Encoding: 983383 983383 16
Width: 500
VWidth: 0
Flags: MW
LayerCount: 2
Back
Fore
SplineSet
72 573 m 0
 72 574 73 574 78 571 c 2
 84 567 l 1
 118 566 151 567 185 566 c 1
 250 571 314 575 379 580 c 1
 387 590 396 599 404 608 c 1
 425 581 l 2
 437 567 448 555 448 555 c 0
 448 555 441 552 434 547 c 2
 420 539 l 1
 416 525 l 2
 403 485 377 426 353 384 c 0
 339 359 316 324 298 301 c 1
 289 291 l 1
 286 293 l 2
 284 294 283 295 283 296 c 0
 283 297 285 302 287 307 c 0
 289 312 298 332 307 353 c 0
 325 396 333 415 341 437 c 0
 349 460 360 495 365 511 c 0
 368 524 375 548 375 549 c 0
 375 549 338 547 292 544 c 2
 210 538 l 1
 172 532 134 528 96 522 c 1
 91 518 l 2
 86 515 84 513 84 514 c 0
 72 573 l 0
80 -111 m 0
 80 -111 87 -103 97 -92 c 0
 120 -66 138 -42 155 -13 c 0
 196 59 221 149 227 250 c 0
 229 292 229 339 227 375 c 2
 225 400 l 1
 217 423 l 2
 213 436 209 446 209 446 c 0
 209 447 212 447 230 443 c 0
 240 441 256 436 266 435 c 0
 276 433 284 431 284 431 c 0
 285 430 277 389 275 380 c 0
 275 378 275 371 275 364 c 0
 275 356 275 335 274 317 c 0
 273 289 272 278 269 250 c 0
 266 221 266 214 260 185 c 0
 254 157 252 149 245 123 c 0
 238 96 236 91 226 66 c 0
 216 42 213 36 202 15 c 0
 191 -6 187 -12 173 -31 c 0
 159 -52 157 -55 140 -72 c 0
 123 -89 122 -92 104 -105 c 0
 94 -113 85 -119 84 -119 c 0
 83 -119 79 -112 80 -111 c 0
EndSplineSet
Comment: "Kage: aj1-00343+AAoA-Alias: uf0157"
EndChar
StartChar: uF0158
Encoding: 983384 983384 17
Width: 500
VWidth: 0
Flags: MW
LayerCount: 2
Back
Fore
SplineSet
58 112 m 0
 58 112 65 121 75 133 c 0
 106 171 148 231 177 280 c 0
 191 304 220 355 227 371 c 2
 230 378 l 1
 228 386 l 2
 226 395 224 404 226 404 c 0
 226 404 229 403 232 399 c 2
 237 392 l 1
 244 408 l 2
 270 464 306 561 320 615 c 2
 326 634 l 1
 326 658 l 2
 326 671 327 683 327 683 c 0
 327 683 334 679 343 673 c 0
 352 668 365 657 374 651 c 0
 383 645 390 639 390 639 c 0
 390 639 365 588 363 586 c 0
 362 585 361 581 359 577 c 0
 353 558 334 509 323 483 c 0
 309 451 286 405 272 379 c 0
 267 371 264 363 264 362 c 0
 264 362 270 357 276 351 c 0
 282 345 289 338 292 334 c 2
 299 326 l 1
 295 322 291 318 287 314 c 1
 287 171 287 27 287 -116 c 1
 280 -123 l 2
 275 -127 273 -130 268 -132 c 2
 262 -134 l 1
 256 -127 l 2
 250 -120 250 -117 244 -104 c 0
 238 -89 238 -89 232 -60 c 2
 225 -31 l 1
 229 -21 233 -10 237 0 c 1
 237 105 237 210 237 315 c 1
 228 301 l 2
 214 279 184 235 162 207 c 0
 136 173 111 146 84 122 c 0
 73 112 64 104 63 104 c 0
 62 104 58 111 58 112 c 0
EndSplineSet
Comment: "Kage: aj1-00344+AAoA-Alias: uf0158"
EndChar
StartChar: uF0159
Encoding: 983385 983385 18
Width: 500
VWidth: 0
Flags: MW
LayerCount: 2
Back
Fore
SplineSet
76 483 m 0
 76 485 77 487 77 487 c 0
 77 487 86 476 96 465 c 2
 114 445 l 1
 147 444 179 444 212 443 c 1
 259 446 308 450 355 453 c 1
 362 462 l 2
 366 466 372 472 375 475 c 2
 380 481 l 1
 402 455 l 2
 414 441 424 428 424 428 c 0
 424 428 418 424 412 421 c 0
 403 416 400 415 400 413 c 0
 400 412 398 397 396 381 c 0
 394 361 391 340 386 313 c 0
 376 258 365 215 350 168 c 0
 341 140 338 130 327 104 c 0
 316 78 312 69 300 46 c 0
 288 23 282 16 268 -4 c 0
 253 -27 251 -29 233 -48 c 0
 216 -66 213 -71 195 -85 c 0
 177 -100 174 -103 154 -114 c 0
 142 -121 132 -126 132 -126 c 0
 131 -126 127 -118 128 -117 c 0
 128 -117 138 -110 148 -101 c 0
 199 -57 239 -2 272 68 c 0
 304 137 328 223 342 322 c 0
 347 353 353 412 353 421 c 0
 353 423 352 423 295 419 c 0
 238 415 235 415 190 409 c 2
 143 402 l 1
 141 400 139 398 137 396 c 1
 137 323 137 251 137 178 c 1
 132 172 l 2
 127 168 125 166 120 164 c 2
 113 160 l 1
 107 168 l 2
 101 175 101 176 95 189 c 0
 89 203 89 203 83 233 c 2
 76 264 l 1
 80 274 85 285 89 295 c 1
 89 360 l 1
 89 426 l 1
 83 452 l 2
 80 467 76 481 76 483 c 0
191 685 m 0
 192 686 194 690 196 689 c 0
 198 689 221 660 227 651 c 0
 241 629 252 609 262 585 c 0
 272 561 279 538 283 516 c 2
 284 507 l 1
 282 499 282 492 280 484 c 1
 273 480 l 2
 270 477 266 474 265 473 c 0
 263 472 262 472 255 474 c 2
 246 477 l 1
 243 483 239 489 236 495 c 1
 236 505 l 1
 234 531 227 572 220 598 c 0
 213 623 200 658 194 673 c 0
 190 683 189 684 191 685 c 0
EndSplineSet
Comment: "Kage: aj1-00345+AAoA-Alias: uf0159"
EndChar
StartChar: uF015A
Encoding: 983386 983386 19
Width: 500
VWidth: 0
Flags: MW
LayerCount: 2
Back
Fore
SplineSet
79 94 m 0
 79 94 83 94 86 92 c 2
 92 88 l 1
 140 87 l 2
 172 87 192 88 206 89 c 2
 226 90 l 1
 226 251 l 2
 226 411 226 413 224 420 c 2
 223 427 l 1
 216 426 l 2
 213 426 195 422 177 420 c 2
 145 416 l 1
 139 411 l 2
 135 408 132 408 132 409 c 0
 131 411 119 466 120 467 c 0
 120 467 124 466 127 464 c 2
 133 461 l 1
 163 461 l 2
 189 461 193 461 202 463 c 0
 207 464 211 464 212 464 c 0
 213 464 213 466 213 469 c 0
 213 471 214 473 214 473 c 0
 214 473 215 473 217 471 c 2
 220 467 l 1
 246 473 l 2
 269 479 273 479 294 487 c 0
 307 492 318 496 319 496 c 0
 321 496 328 490 339 482 c 2
 357 469 l 1
 360 461 l 2
 362 457 363 451 365 447 c 0
 367 443 368 439 368 439 c 0
 368 439 342 437 310 435 c 2
 252 431 l 1
 264 419 l 2
 271 413 280 406 282 402 c 2
 287 397 l 1
 283 393 278 387 274 383 c 1
 274 242 l 2
 274 139 274 100 275 100 c 0
 276 100 287 103 301 106 c 0
 324 112 327 112 349 121 c 0
 362 126 373 130 374 130 c 0
 375 130 384 123 394 116 c 2
 412 102 l 1
 415 95 l 2
 417 91 418 84 420 80 c 2
 424 72 l 1
 316 65 l 1
 208 57 l 1
 174 53 138 47 104 43 c 1
 98 38 l 2
 95 36 92 35 92 35 c 0
 91 35 78 93 79 94 c 0
EndSplineSet
Comment: "Kage: aj1-00346+AAoA-Alias: uf015a"
EndChar
StartChar: uF015B
Encoding: 983387 983387 20
Width: 500
VWidth: 0
Flags: MW
LayerCount: 2
Back
Fore
SplineSet
50 -52 m 1
 60 -35 l 2
 98 29 130 84 154 135 c 0
 191 211 218 278 245 358 c 2
 252 375 l 1
 226 374 l 2
 204 372 193 371 144 365 c 2
 87 357 l 1
 80 352 l 2
 75 349 74 348 74 349 c 0
 73 352 62 409 62 409 c 0
 62 409 65 407 68 405 c 2
 75 402 l 1
 125 401 l 2
 167 401 180 401 202 403 c 0
 225 405 230 406 244 409 c 0
 253 411 261 413 262 413 c 2
 264 413 l 1
 264 488 264 562 264 637 c 1
 258 663 l 2
 255 678 252 690 252 692 c 0
 252 694 252 696 252 696 c 0
 252 696 259 687 269 676 c 0
 283 660 289 653 300 644 c 0
 307 638 317 630 320 626 c 2
 325 618 l 1
 321 614 316 609 312 605 c 1
 312 545 312 483 312 423 c 1
 318 425 l 2
 321 425 335 431 349 436 c 2
 375 446 l 1
 388 437 399 427 412 418 c 1
 415 412 l 2
 416 408 418 401 420 396 c 2
 424 388 l 1
 387 385 349 383 312 380 c 1
 312 220 312 59 312 -101 c 1
 308 -110 l 2
 304 -118 302 -120 296 -126 c 2
 288 -132 l 1
 253 -109 219 -88 184 -65 c 1
 184 -59 l 2
 184 -54 183 -54 185 -54 c 0
 187 -54 263 -66 264 -66 c 0
 264 -66 264 12 264 106 c 2
 264 277 l 1
 253 254 l 2
 212 165 175 97 126 27 c 0
 108 1 86 -27 65 -50 c 0
 57 -60 51 -67 51 -67 c 0
 51 -67 50 -63 50 -59 c 2
 50 -52 l 1
EndSplineSet
Comment: "Kage: aj1-00347+AAoA-Alias: uf015b"
EndChar
StartChar: uF015C
Encoding: 983388 983388 21
Width: 500
VWidth: 0
Flags: MW
LayerCount: 2
Back
Fore
SplineSet
203 -7 m 0
 205 -7 295 -18 295 -18 c 0
 295 -18 297 -13 299 -7 c 0
 321 56 345 189 357 317 c 0
 359 341 364 389 364 393 c 0
 364 394 344 392 309 390 c 2
 255 386 l 1
 254 382 l 2
 254 380 250 358 245 334 c 0
 233 271 222 223 204 168 c 0
 193 132 190 125 176 92 c 0
 162 59 160 53 145 24 c 0
 129 -7 129 -10 111 -36 c 0
 93 -63 92 -62 72 -84 c 0
 61 -96 50 -107 50 -107 c 0
 50 -107 50 -104 50 -100 c 2
 50 -93 l 1
 64 -72 l 2
 77 -54 81 -48 95 -22 c 0
 109 4 112 11 124 39 c 0
 162 127 189 224 207 341 c 0
 210 363 212 381 212 381 c 0
 212 381 191 379 165 375 c 2
 118 369 l 1
 112 364 l 2
 108 361 106 361 106 362 c 0
 105 364 93 419 94 420 c 0
 94 420 97 420 100 418 c 2
 107 414 l 1
 153 413 l 2
 179 413 203 414 208 414 c 2
 216 415 l 1
 220 442 l 2
 225 484 228 558 229 603 c 2
 230 639 l 1
 224 662 l 2
 221 675 219 685 219 686 c 0
 219 687 219 687 219 687 c 0
 220 687 282 666 287 664 c 0
 289 663 291 661 291 661 c 0
 291 661 288 647 284 633 c 2
 276 608 l 1
 276 588 l 2
 274 559 267 475 263 445 c 0
 261 431 260 420 260 419 c 0
 260 418 276 418 312 421 c 2
 365 425 l 1
 374 435 l 2
 379 440 384 446 386 448 c 2
 389 452 l 1
 412 425 l 2
 424 411 433 399 433 399 c 0
 433 399 428 395 422 392 c 0
 410 385 412 387 410 366 c 0
 408 341 403 283 400 253 c 0
 387 150 372 67 354 3 c 0
 348 -18 339 -43 334 -52 c 2
 332 -58 l 1
 332 -71 l 2
 332 -78 331 -83 331 -83 c 0
 330 -83 327 -83 324 -81 c 2
 318 -77 l 1
 315 -79 310 -83 307 -85 c 1
 301 -83 295 -81 289 -79 c 1
 286 -72 283 -65 280 -58 c 1
 254 -45 226 -30 200 -17 c 1
 200 -12 l 2
 200 -7 201 -7 203 -7 c 0
EndSplineSet
Comment: "Kage: aj1-00348+AAoA-Alias: uf015c"
EndChar
StartChar: uF015D
Encoding: 983389 983389 22
Width: 500
VWidth: 0
Flags: MW
LayerCount: 2
Back
Fore
SplineSet
83 140 m 0
 83 140 87 140 90 139 c 2
 96 137 l 1
 144 154 l 2
 190 169 221 179 229 185 c 0
 232 187 232 187 232 189 c 0
 231 194 217 387 216 388 c 0
 216 388 200 381 180 372 c 0
 114 340 121 344 115 338 c 0
 112 335 109 332 109 332 c 0
 108 332 85 385 85 385 c 0
 85 385 88 385 92 384 c 2
 99 383 l 1
 126 392 154 400 181 408 c 1
 197 417 l 2
 213 426 213 427 213 429 c 0
 213 431 196 650 196 651 c 0
 196 652 196 653 222 650 c 2
 246 647 l 1
 252 640 l 2
 255 636 259 634 259 634 c 0
 259 634 256 630 253 628 c 2
 248 623 l 1
 248 619 l 2
 250 606 260 455 261 454 c 0
 262 453 270 458 288 472 c 0
 298 480 307 487 309 488 c 2
 312 490 l 1
 326 485 341 480 355 475 c 1
 358 469 l 2
 360 466 365 460 367 456 c 0
 370 451 371 449 370 449 c 0
 362 445 266 409 265 408 c 0
 265 408 279 215 280 214 c 0
 280 214 288 218 298 224 c 0
 312 232 321 239 338 251 c 2
 360 268 l 1
 371 263 l 2
 377 261 386 259 392 257 c 2
 402 254 l 1
 407 247 l 2
 409 243 413 238 415 235 c 0
 417 232 418 229 418 229 c 0
 417 228 286 174 284 173 c 0
 283 172 304 -93 304 -96 c 0
 304 -97 259 -137 258 -136 c 0
 257 -135 238 138 236 150 c 2
 235 154 l 1
 228 151 l 2
 224 150 197 137 169 123 c 2
 117 99 l 1
 112 93 l 2
 110 90 108 88 108 88 c 0
 107 88 82 139 83 140 c 0
EndSplineSet
Comment: "Kage: aj1-00349+AAoA-Alias: uf015d"
EndChar
StartChar: uF015E
Encoding: 983390 983390 23
Width: 500
VWidth: 0
Flags: MW
LayerCount: 2
Back
Fore
SplineSet
88 -134 m 0
 87 -130 87 -130 88 -129 c 0
 89 -129 99 -121 110 -111 c 0
 130 -95 132 -92 150 -71 c 0
 168 -51 171 -46 187 -22 c 0
 203 1 206 7 220 33 c 0
 233 57 237 67 249 96 c 0
 260 124 265 136 275 165 c 0
 305 254 330 360 344 458 c 2
 348 487 l 1
 340 486 l 2
 336 486 310 483 282 479 c 2
 231 472 l 1
 224 450 l 1
 192 353 151 269 108 216 c 1
 96 202 l 1
 94 204 93 206 91 208 c 1
 99 225 l 2
 121 271 142 324 161 379 c 0
 181 437 204 532 218 608 c 2
 221 623 l 1
 220 645 l 2
 219 657 219 669 219 672 c 0
 219 675 220 677 220 677 c 0
 221 677 285 639 285 638 c 0
 285 637 264 590 262 586 c 0
 261 585 258 573 256 563 c 0
 254 553 250 538 248 531 c 0
 246 524 245 517 245 517 c 0
 246 516 315 517 333 518 c 2
 351 519 l 1
 362 532 l 2
 368 539 375 545 375 545 c 0
 377 545 419 494 418 493 c 0
 417 493 412 488 406 485 c 2
 395 478 l 1
 390 450 l 2
 383 408 370 349 358 303 c 0
 336 216 310 145 277 78 c 0
 263 48 260 42 244 15 c 0
 227 -13 224 -18 205 -42 c 2
 184 -69 l 1
 170 -83 154 -96 140 -110 c 1
 116 -124 l 2
 102 -132 91 -139 90 -139 c 0
 89 -139 89 -136 88 -134 c 0
EndSplineSet
Comment: "Kage: aj1-00350+AAoA-Alias: uf015e"
EndChar
StartChar: uF015F
Encoding: 983391 983391 24
Width: 500
VWidth: 0
Flags: MW
LayerCount: 2
Back
Fore
SplineSet
62 141 m 0
 62 141 65 150 70 161 c 0
 104 246 131 336 152 434 c 0
 162 479 173 547 179 593 c 2
 181 613 l 1
 179 639 l 2
 177 653 176 665 176 666 c 0
 177 667 l 0
 177 667 187 661 201 654 c 0
 215 647 230 639 235 636 c 0
 240 633 244 631 244 631 c 0
 244 631 240 619 234 605 c 2
 224 578 l 1
 216 542 l 2
 208 500 198 456 189 424 c 2
 184 402 l 1
 187 403 l 2
 189 403 200 402 212 402 c 2
 235 402 l 1
 262 408 289 415 316 421 c 1
 333 427 351 434 368 440 c 1
 381 431 392 422 405 413 c 1
 408 403 l 2
 410 398 412 391 413 388 c 0
 414 385 416 383 416 383 c 0
 416 383 392 381 362 379 c 2
 308 374 l 1
 321 369 l 2
 328 367 333 363 333 363 c 0
 333 362 321 321 319 315 c 0
 317 310 316 305 315 298 c 0
 314 293 312 272 309 254 c 0
 299 185 284 125 263 69 c 0
 242 12 217 -33 187 -71 c 0
 173 -88 170 -91 156 -104 c 0
 141 -117 138 -119 121 -128 c 0
 111 -134 104 -138 103 -138 c 0
 102 -138 99 -131 100 -130 c 0
 100 -130 107 -123 115 -115 c 0
 174 -61 217 23 244 140 c 0
 256 193 266 261 270 317 c 2
 272 342 l 1
 270 352 269 360 267 370 c 1
 264 370 l 2
 262 370 242 368 218 364 c 0
 167 356 171 357 167 345 c 0
 150 292 125 232 102 190 c 0
 92 173 70 135 68 135 c 0
 67 135 62 140 62 141 c 0
EndSplineSet
Comment: "Kage: aj1-00351+AAoA-Alias: uf015f"
EndChar
StartChar: uF0160
Encoding: 983392 983392 25
Width: 500
VWidth: 0
Flags: MW
LayerCount: 2
Back
Fore
SplineSet
106 75 m 0
 106 76 107 76 112 73 c 2
 118 70 l 1
 168 69 l 2
 218 69 219 68 269 72 c 2
 320 76 l 1
 320 80 l 2
 321 86 353 453 353 455 c 0
 353 456 348 457 296 453 c 0
 241 449 238 449 188 443 c 2
 137 435 l 1
 131 431 l 2
 127 428 124 427 124 428 c 0
 122 434 112 486 113 486 c 0
 113 486 117 485 120 483 c 2
 125 480 l 1
 158 479 190 480 222 479 c 1
 266 482 311 485 355 488 c 1
 367 502 l 2
 373 509 380 516 380 516 c 0
 381 516 424 463 424 463 c 0
 424 463 418 459 411 455 c 0
 401 449 398 447 398 446 c 0
 397 439 365 22 364 21 c 0
 364 21 353 14 339 7 c 0
 319 -3 313 -6 313 -5 c 0
 313 -4 315 9 316 22 c 2
 318 46 l 1
 280 43 l 2
 246 41 238 41 187 33 c 2
 130 25 l 1
 124 20 l 2
 119 17 117 16 117 17 c 0
 106 75 l 0
EndSplineSet
Comment: "Kage: aj1-00352+AAoA-Alias: uf0160"
EndChar
StartChar: uF0161
Encoding: 983393 983393 26
Width: 500
VWidth: 0
Flags: MW
LayerCount: 2
Back
Fore
SplineSet
72 404 m 0
 72 405 75 403 78 401 c 2
 84 397 l 1
 116 398 l 2
 133 398 150 397 152 397 c 2
 156 396 l 1
 156 460 156 524 156 588 c 1
 150 615 l 2
 144 640 142 649 144 649 c 0
 144 649 152 640 162 629 c 0
 176 613 182 605 192 597 c 0
 204 587 216 574 216 572 c 0
 216 571 214 567 211 564 c 2
 204 558 l 1
 204 505 204 451 204 398 c 1
 251 401 l 1
 297 405 l 1
 297 507 l 1
 298 608 l 1
 292 634 l 2
 288 652 286 661 286 665 c 2
 286 670 l 1
 305 647 l 2
 319 630 328 622 336 615 c 0
 342 609 349 602 352 598 c 2
 359 591 l 1
 355 587 350 582 346 578 c 1
 346 524 346 468 346 414 c 1
 352 415 l 2
 355 415 366 420 375 424 c 2
 391 431 l 1
 401 422 l 2
 407 417 412 413 412 412 c 0
 413 411 414 409 415 406 c 0
 416 403 418 397 420 392 c 2
 424 383 l 1
 398 381 372 380 346 378 c 1
 346 311 l 2
 346 230 346 212 340 172 c 0
 337 148 335 142 329 119 c 0
 317 67 300 25 275 -12 c 0
 250 -50 224 -76 190 -95 c 0
 176 -103 171 -105 157 -110 c 0
 147 -114 140 -116 140 -116 c 0
 139 -115 138 -109 138 -108 c 0
 138 -107 144 -103 152 -97 c 0
 180 -77 209 -48 229 -21 c 0
 243 -1 255 22 265 46 c 0
 280 82 290 128 295 176 c 2
 297 200 l 1
 297 287 l 1
 298 374 l 1
 267 372 235 370 204 368 c 1
 204 290 204 211 204 133 c 1
 199 126 l 2
 194 121 192 120 187 118 c 2
 180 116 l 1
 174 123 l 2
 168 130 168 131 162 144 c 0
 156 158 156 158 150 188 c 2
 144 219 l 1
 148 229 152 239 156 249 c 1
 156 305 l 2
 156 349 157 360 156 360 c 0
 155 360 141 358 125 356 c 2
 96 352 l 1
 90 348 l 2
 87 346 84 344 84 344 c 0
 83 345 73 402 72 404 c 0
EndSplineSet
Comment: "Kage: aj1-00353+AAoA-Alias: uf0161"
EndChar
StartChar: uF0162
Encoding: 983394 983394 27
Width: 500
VWidth: 0
Flags: MW
LayerCount: 2
Back
Fore
SplineSet
79 -49 m 0
 79 -49 89 -46 99 -41 c 2
 118 -32 l 1
 132 -21 l 2
 166 8 208 57 240 101 c 0
 296 177 341 261 388 378 c 0
 398 404 418 458 424 477 c 0
 425 479 426 480 427 480 c 0
 428 480 432 479 433 478 c 0
 433 478 430 461 425 441 c 0
 380 255 300 90 195 -29 c 0
 184 -42 172 -54 170 -56 c 0
 168 -58 165 -62 163 -65 c 0
 161 -68 154 -78 148 -88 c 0
 138 -104 137 -106 136 -105 c 0
 132 -100 100 -70 90 -61 c 0
 84 -54 79 -49 79 -49 c 0
90 397 m 0
 90 397 91 400 92 402 c 0
 93 405 93 406 94 406 c 0
 97 405 119 394 125 390 c 0
 139 381 159 360 171 344 c 0
 184 326 187 319 197 300 c 2
 203 289 l 1
 203 281 203 274 203 266 c 1
 198 260 194 254 189 248 c 1
 183 248 178 247 172 247 c 1
 164 254 l 2
 158 262 157 261 155 271 c 0
 147 301 133 334 119 358 c 0
 111 371 101 385 95 391 c 0
 93 394 90 397 90 397 c 0
144 606 m 0
 144 607 148 614 149 614 c 0
 151 614 174 601 180 596 c 0
 206 577 232 544 252 504 c 2
 258 493 l 1
 258 485 258 478 258 470 c 1
 254 464 250 458 246 452 c 1
 237 451 l 2
 232 451 229 450 228 450 c 0
 227 450 224 452 220 457 c 2
 213 464 l 1
 210 475 l 2
 203 500 190 532 177 555 c 0
 168 571 154 594 148 601 c 0
 146 604 144 606 144 606 c 0
EndSplineSet
Comment: "Kage: aj1-00354+AAoA-Alias: uf0162"
EndChar
StartChar: uF0163
Encoding: 983395 983395 28
Width: 500
VWidth: 0
Flags: MW
LayerCount: 2
Back
Fore
SplineSet
55 -99 m 1
 75 -72 l 2
 101 -37 119 -13 137 17 c 0
 199 121 252 251 292 403 c 0
 300 435 316 502 316 505 c 0
 316 505 306 505 292 504 c 0
 274 503 255 500 213 494 c 2
 157 487 l 1
 151 482 l 2
 148 480 144 478 144 478 c 0
 144 478 132 537 132 538 c 0
 132 538 135 537 138 535 c 2
 144 532 l 1
 195 531 l 2
 242 530 248 530 284 533 c 2
 321 536 l 1
 333 550 l 2
 339 557 346 564 346 564 c 0
 347 564 391 511 390 511 c 0
 390 511 383 506 377 503 c 0
 371 500 365 496 364 495 c 0
 363 494 361 478 356 461 c 0
 339 395 308 302 288 251 c 0
 283 240 280 229 280 229 c 0
 280 229 284 225 289 221 c 0
 311 202 339 170 359 138 c 0
 385 98 410 47 428 -3 c 2
 433 -20 l 1
 433 -28 433 -36 433 -44 c 1
 428 -50 425 -55 420 -61 c 1
 411 -62 l 1
 401 -61 l 1
 395 -54 l 2
 389 -46 388 -47 385 -36 c 0
 371 9 362 36 348 71 c 0
 328 121 317 143 284 200 c 2
 275 217 l 1
 272 210 l 2
 264 189 238 135 223 107 c 0
 177 22 131 -41 81 -88 c 0
 71 -98 61 -106 60 -106 c 0
 59 -106 59 -104 57 -102 c 2
 55 -99 l 1
EndSplineSet
Comment: "Kage: aj1-00355+AAoA-Alias: uf0163"
EndChar
StartChar: uF0164
Encoding: 983396 983396 29
Width: 500
VWidth: 0
Flags: MW
LayerCount: 2
Back
Fore
SplineSet
68 273 m 0
 68 273 72 274 75 273 c 2
 81 271 l 1
 111 282 140 294 170 305 c 1
 170 404 170 502 170 601 c 1
 164 626 l 2
 160 643 159 652 159 656 c 2
 159 661 l 1
 178 638 l 2
 192 621 200 613 208 606 c 0
 214 600 222 593 225 589 c 2
 232 582 l 1
 228 578 224 574 220 570 c 1
 220 449 l 2
 220 339 219 327 220 328 c 0
 221 328 257 346 300 366 c 2
 379 402 l 1
 379 405 379 407 379 410 c 1
 387 420 396 428 404 438 c 1
 425 411 l 2
 437 397 448 385 448 385 c 0
 448 385 441 381 433 376 c 2
 419 368 l 1
 413 354 l 2
 395 312 379 278 354 234 c 0
 331 193 313 166 291 135 c 1
 284 125 l 1
 282 127 279 129 277 131 c 1
 282 142 l 2
 284 148 291 163 296 174 c 0
 321 233 345 297 354 322 c 0
 360 338 368 363 368 363 c 0
 368 363 334 348 293 329 c 2
 220 295 l 1
 220 168 l 1
 220 40 l 1
 222 32 l 2
 226 16 236 2 242 -2 c 0
 257 -11 277 -13 307 -11 c 0
 329 -9 343 -8 367 -1 c 2
 381 3 l 1
 387 1 392 1 398 -1 c 1
 401 -7 405 -14 408 -20 c 1
 407 -28 l 2
 406 -32 404 -37 404 -39 c 0
 403 -42 402 -45 396 -50 c 2
 388 -56 l 1
 376 -60 l 2
 350 -67 333 -70 307 -72 c 0
 286 -73 280 -74 269 -73 c 0
 247 -71 231 -64 217 -55 c 0
 209 -51 200 -43 198 -40 c 0
 197 -39 197 -36 196 -35 c 0
 183 -13 178 1 173 24 c 2
 171 33 l 1
 170 151 l 1
 170 269 l 1
 148 257 126 246 104 234 c 1
 100 227 l 2
 98 224 94 221 94 221 c 0
 93 221 91 227 88 233 c 0
 85 239 79 250 75 258 c 0
 71 266 68 273 68 273 c 0
EndSplineSet
Comment: "Kage: aj1-00356+AAoA-Alias: uf0164"
EndChar
StartChar: uF0165
Encoding: 983397 983397 30
Width: 500
VWidth: 0
Flags: MW
LayerCount: 2
Back
Fore
SplineSet
104 557 m 0
 104 558 109 563 110 563 c 0
 111 563 128 544 134 535 c 0
 139 528 144 518 153 503 c 0
 174 465 192 417 204 367 c 1
 207 354 l 1
 206 347 205 339 203 332 c 1
 196 325 l 2
 192 322 189 318 188 318 c 0
 187 318 184 317 179 318 c 2
 169 320 l 1
 164 329 l 2
 159 337 159 338 158 345 c 0
 155 372 147 407 141 435 c 0
 135 464 126 491 111 535 c 0
 107 547 104 557 104 557 c 0
105 -94 m 0
 106 -93 114 -86 124 -76 c 0
 138 -62 146 -54 160 -37 c 0
 174 -19 179 -11 193 9 c 0
 207 30 211 37 224 61 c 0
 265 139 299 234 324 345 c 0
 336 398 348 465 356 522 c 2
 361 562 l 1
 359 587 l 2
 357 601 356 611 356 612 c 0
 356 613 356 613 356 613 c 0
 356 613 366 609 377 603 c 0
 388 597 404 589 411 586 c 0
 418 583 424 578 424 578 c 0
 424 578 420 565 414 551 c 2
 404 525 l 1
 400 498 l 2
 398 484 391 449 385 424 c 0
 371 360 358 307 340 248 c 0
 328 210 326 202 312 168 c 0
 299 136 294 127 280 100 c 0
 266 74 262 63 248 40 c 0
 232 15 230 10 212 -12 c 0
 194 -34 191 -36 172 -54 c 0
 147 -78 150 -74 124 -92 c 2
 107 -104 l 1
 105 -99 l 2
 103 -95 104 -95 105 -94 c 0
EndSplineSet
Comment: "Kage: aj1-00357+AAoA-Alias: uf0165"
EndChar
StartChar: uF0166
Encoding: 983398 983398 31
Width: 500
VWidth: 0
Flags: MW
LayerCount: 2
Back
Fore
SplineSet
88 -134 m 0
 87 -130 87 -130 88 -129 c 0
 89 -129 99 -121 110 -111 c 0
 130 -95 132 -92 150 -71 c 0
 168 -51 171 -46 187 -22 c 0
 203 1 206 7 220 33 c 0
 233 57 237 67 248 95 c 0
 258 118 265 136 270 151 c 2
 278 174 l 1
 272 174 l 1
 264 173 l 1
 259 178 256 183 251 188 c 1
 248 198 l 2
 242 221 234 239 224 262 c 0
 215 281 203 305 195 314 c 2
 190 320 l 1
 192 323 192 325 194 328 c 1
 208 320 l 2
 230 308 240 300 257 279 c 0
 267 266 278 249 288 232 c 0
 290 227 293 223 293 223 c 0
 293 223 297 236 301 251 c 0
 317 310 335 393 344 458 c 2
 348 487 l 1
 340 486 l 2
 336 486 310 483 282 479 c 2
 231 472 l 1
 224 450 l 1
 192 353 151 269 108 216 c 1
 96 202 l 1
 94 204 93 206 91 208 c 1
 99 225 l 2
 121 271 142 324 161 379 c 0
 181 437 204 532 218 608 c 2
 221 623 l 1
 220 645 l 2
 219 657 219 669 219 672 c 0
 219 675 220 677 220 677 c 0
 221 677 285 639 285 638 c 0
 285 637 264 590 262 586 c 0
 261 585 258 573 256 563 c 0
 254 553 250 538 248 531 c 0
 246 524 245 517 245 517 c 0
 246 516 315 517 333 518 c 2
 351 519 l 1
 362 532 l 2
 368 539 375 545 375 545 c 0
 377 545 419 494 418 493 c 0
 417 493 412 488 406 485 c 2
 395 478 l 1
 390 450 l 2
 383 408 370 349 358 303 c 0
 336 216 310 145 277 78 c 0
 263 48 260 42 244 15 c 0
 227 -13 224 -18 205 -42 c 2
 184 -69 l 1
 170 -83 154 -96 140 -110 c 1
 116 -124 l 2
 102 -132 91 -139 90 -139 c 0
 89 -139 89 -136 88 -134 c 0
EndSplineSet
Comment: "Kage: aj1-00358+AAoA-Alias: uf0166"
EndChar
StartChar: uF0167
Encoding: 983399 983399 32
Width: 500
VWidth: 0
Flags: MW
LayerCount: 2
Back
Fore
SplineSet
70 308 m 0
 70 308 73 308 76 306 c 2
 83 302 l 1
 129 302 l 2
 184 302 221 303 240 307 c 2
 252 310 l 1
 252 333 l 2
 252 346 252 378 251 403 c 2
 250 448 l 1
 246 462 l 2
 244 469 242 475 242 475 c 0
 242 475 239 474 237 473 c 0
 196 453 145 439 103 436 c 2
 89 435 l 1
 88 438 l 1
 87 444 87 445 93 447 c 0
 137 466 157 474 184 489 c 0
 223 510 271 544 307 579 c 0
 327 598 326 597 340 621 c 0
 347 634 353 643 353 643 c 0
 354 643 395 572 395 572 c 0
 393 570 340 536 336 535 c 0
 333 534 328 530 325 528 c 0
 315 520 293 504 279 496 c 0
 273 492 267 488 267 488 c 0
 268 487 309 475 310 474 c 0
 310 474 307 462 304 448 c 2
 299 422 l 1
 298 393 l 2
 298 377 298 354 298 342 c 0
 298 330 297 320 297 320 c 0
 297 320 304 321 312 323 c 0
 323 326 332 329 351 336 c 2
 375 346 l 1
 388 337 399 326 412 317 c 1
 414 312 l 2
 415 309 418 303 420 298 c 0
 422 293 424 288 424 288 c 0
 424 288 395 285 360 283 c 2
 296 278 l 1
 296 274 l 2
 296 272 294 253 292 232 c 0
 290 201 288 184 284 155 c 0
 279 121 278 116 272 87 c 0
 265 56 264 53 255 26 c 0
 246 0 244 -4 234 -25 c 0
 224 -46 221 -49 208 -68 c 0
 195 -87 193 -90 178 -106 c 0
 164 -121 160 -125 144 -137 c 0
 134 -145 124 -152 124 -152 c 0
 124 -152 123 -150 122 -148 c 0
 120 -145 120 -144 121 -143 c 0
 122 -142 129 -134 137 -124 c 0
 147 -111 156 -101 165 -88 c 0
 192 -48 210 -10 224 41 c 0
 230 63 231 71 236 97 c 0
 243 143 248 181 250 232 c 0
 251 253 252 272 252 273 c 0
 252 275 252 275 226 273 c 0
 206 272 187 271 148 265 c 2
 96 257 l 1
 89 253 l 2
 85 251 82 249 82 249 c 0
 81 250 70 308 70 308 c 0
EndSplineSet
Comment: "Kage: aj1-00359+AAoA-Alias: uf0167"
EndChar
StartChar: uF0168
Encoding: 983400 983400 33
Width: 500
VWidth: 0
Flags: MW
LayerCount: 2
Back
Fore
SplineSet
77 526 m 1
 80 529 l 2
 82 531 84 532 84 532 c 0
 85 532 91 524 99 516 c 0
 118 494 133 467 148 425 c 0
 154 408 168 357 168 350 c 0
 168 349 167 344 166 338 c 2
 164 328 l 1
 159 324 154 318 149 314 c 1
 141 315 l 2
 137 316 133 318 132 318 c 0
 131 318 127 322 125 327 c 2
 120 336 l 1
 120 347 l 2
 119 361 114 392 111 409 c 0
 105 446 91 496 81 517 c 2
 77 526 l 1
121 -98 m 0
 121 -98 129 -90 139 -79 c 0
 173 -42 206 8 236 65 c 0
 264 118 294 188 316 261 c 0
 339 335 362 432 377 516 c 2
 384 555 l 1
 383 580 l 2
 382 594 381 605 381 606 c 0
 381 607 382 607 382 607 c 0
 382 607 447 571 448 570 c 0
 448 570 431 527 428 520 c 0
 427 518 423 507 420 492 c 0
 413 454 393 379 379 329 c 0
 354 245 326 172 293 106 c 0
 279 78 275 69 259 43 c 0
 243 17 238 9 222 -12 c 0
 207 -32 200 -39 184 -55 c 0
 167 -72 163 -76 145 -90 c 0
 134 -99 124 -107 124 -107 c 0
 123 -107 120 -99 121 -98 c 0
190 599 m 1
 192 601 194 603 196 605 c 1
 199 603 l 2
 205 596 220 581 223 576 c 0
 247 542 267 495 279 441 c 1
 281 429 l 1
 279 421 279 414 277 406 c 1
 270 399 l 2
 266 396 262 392 261 392 c 0
 260 392 257 393 252 394 c 2
 244 396 l 1
 238 405 l 2
 235 411 233 416 233 417 c 0
 233 421 230 444 228 457 c 0
 226 475 220 505 216 520 c 0
 210 543 200 576 194 590 c 2
 190 599 l 1
EndSplineSet
Comment: "Kage: aj1-00360+AAoA-Alias: uf0168"
EndChar
StartChar: uF0169
Encoding: 983401 983401 34
Width: 500
VWidth: 0
Flags: MW
LayerCount: 2
Back
Fore
SplineSet
70 383 m 0
 70 383 73 383 76 381 c 2
 84 377 l 1
 130 377 l 2
 170 377 181 377 208 379 c 2
 240 381 l 1
 273 388 304 396 337 403 c 1
 358 412 l 2
 370 417 380 420 381 420 c 0
 383 420 389 415 401 407 c 2
 420 393 l 1
 422 385 l 2
 424 381 426 375 428 371 c 0
 430 367 431 364 431 364 c 0
 431 364 379 359 315 355 c 2
 199 346 l 1
 164 342 129 336 94 332 c 1
 88 328 l 2
 85 326 82 324 82 324 c 0
 81 325 70 383 70 383 c 0
106 -135 m 0
 106 -134 112 -125 119 -113 c 0
 165 -43 199 36 218 111 c 0
 226 144 232 177 236 208 c 0
 239 237 244 280 244 295 c 2
 244 305 l 1
 238 323 l 2
 235 333 233 341 233 342 c 0
 233 343 233 344 239 341 c 2
 244 340 l 1
 244 342 244 343 244 345 c 1
 268 345 l 2
 282 346 292 346 292 346 c 0
 292 346 291 319 292 318 c 0
 293 316 294 302 292 298 c 0
 291 296 291 291 290 287 c 0
 288 262 282 223 278 200 c 0
 269 149 252 92 234 48 c 0
 206 -20 170 -76 128 -122 c 0
 118 -133 112 -142 111 -142 c 0
 109 -142 105 -136 106 -135 c 0
128 602 m 0
 128 602 131 602 134 600 c 2
 140 596 l 1
 158 596 176 596 194 596 c 1
 220 602 246 608 272 614 c 1
 294 622 l 2
 307 627 317 632 317 632 c 0
 317 632 353 605 354 604 c 0
 355 603 356 600 357 597 c 0
 358 594 360 588 362 583 c 0
 364 578 366 574 366 574 c 0
 366 574 340 571 310 569 c 0
 255 565 252 566 202 558 c 2
 151 551 l 1
 145 547 l 2
 142 545 140 543 140 543 c 0
 139 544 128 602 128 602 c 0
EndSplineSet
Comment: "Kage: aj1-00361+AAoA-Alias: uf0169"
EndChar
StartChar: uF016A
Encoding: 983402 983402 35
Width: 500
VWidth: 0
Flags: MW
LayerCount: 2
Back
Fore
SplineSet
170 -20 m 1
 174 -10 178 0 182 10 c 1
 182 224 182 438 182 652 c 1
 176 678 l 2
 173 693 170 704 170 707 c 2
 170 711 l 1
 189 690 l 2
 203 673 210 665 220 657 c 0
 234 645 244 633 242 631 c 0
 241 630 239 628 236 625 c 2
 232 620 l 1
 232 483 l 1
 232 346 l 1
 233 345 l 1
 281 336 325 300 367 236 c 2
 375 224 l 1
 376 216 376 209 377 201 c 1
 374 195 370 187 367 181 c 1
 361 180 354 177 348 176 c 1
 340 182 l 2
 333 187 333 188 328 199 c 0
 310 238 290 270 267 294 c 0
 259 302 234 327 232 327 c 0
 232 327 232 230 232 111 c 2
 232 -105 l 1
 226 -111 l 2
 220 -117 218 -119 212 -121 c 2
 207 -123 l 1
 200 -115 l 2
 194 -108 194 -107 188 -93 c 0
 182 -78 182 -79 176 -49 c 2
 170 -20 l 1
EndSplineSet
Comment: "Kage: aj1-00362+AAoA-Alias: uf016a"
EndChar
StartChar: uF016B
Encoding: 983403 983403 36
Width: 500
VWidth: 0
Flags: MW
LayerCount: 2
Back
Fore
SplineSet
236 682 m 0
 238 682 305 659 307 659 c 0
 308 659 308 659 308 658 c 0
 308 657 305 647 302 634 c 2
 296 610 l 1
 295 552 l 2
 295 520 294 474 293 449 c 0
 292 424 292 404 292 404 c 0
 292 404 302 404 313 407 c 0
 331 411 336 413 358 422 c 2
 382 431 l 1
 400 417 l 2
 410 410 418 405 419 404 c 0
 420 403 421 399 422 396 c 0
 423 393 425 387 427 382 c 0
 429 377 431 374 431 374 c 0
 431 374 398 371 360 368 c 0
 303 364 291 363 291 362 c 0
 291 361 290 341 288 316 c 0
 286 283 284 258 281 224 c 0
 277 181 277 175 271 138 c 0
 265 100 264 97 256 65 c 2
 247 33 l 1
 239 13 232 -4 224 -24 c 1
 209 -48 l 2
 195 -72 195 -72 177 -92 c 0
 160 -111 159 -114 139 -130 c 0
 128 -140 117 -147 117 -147 c 0
 116 -147 113 -141 113 -140 c 0
 113 -140 121 -130 131 -118 c 0
 145 -101 151 -94 163 -76 c 0
 176 -57 179 -52 189 -32 c 0
 200 -9 200 -9 209 18 c 0
 217 44 218 47 224 76 c 0
 230 104 231 112 235 146 c 0
 239 179 241 191 243 230 c 0
 245 255 245 289 246 307 c 0
 246 325 248 344 248 350 c 2
 248 360 l 1
 222 358 l 2
 203 357 183 356 144 350 c 2
 92 342 l 1
 86 338 l 2
 82 336 79 334 79 334 c 0
 78 336 67 393 68 393 c 0
 68 393 70 393 73 391 c 2
 80 387 l 1
 128 386 l 2
 174 385 177 387 211 389 c 0
 230 390 246 393 247 393 c 0
 249 394 249 396 248 512 c 2
 248 631 l 1
 241 655 l 2
 238 669 235 682 235 682 c 0
 235 682 235 682 236 682 c 0
EndSplineSet
Comment: "Kage: aj1-00363+AAoA-Alias: uf016b"
EndChar
StartChar: uF016C
Encoding: 983404 983404 37
Width: 500
VWidth: 0
Flags: MW
LayerCount: 2
Back
Fore
SplineSet
72 109 m 0
 72 109 76 108 79 106 c 2
 84 102 l 1
 133 102 l 2
 175 102 186 101 210 103 c 2
 239 105 l 1
 272 112 305 121 338 128 c 1
 360 137 l 2
 373 142 384 145 384 145 c 0
 384 145 394 140 404 133 c 2
 422 119 l 1
 424 111 l 2
 426 107 428 101 430 97 c 0
 432 93 433 89 433 89 c 0
 433 89 381 85 316 80 c 2
 198 71 l 1
 164 67 130 61 96 57 c 1
 90 53 l 2
 87 51 84 49 84 49 c 0
 83 50 72 109 72 109 c 0
125 462 m 0
 125 462 129 462 132 460 c 2
 138 456 l 1
 156 456 174 456 192 456 c 1
 229 465 l 2
 267 474 267 473 289 482 c 0
 302 487 313 490 314 490 c 0
 315 490 324 485 334 478 c 2
 352 464 l 1
 355 455 l 2
 357 450 358 444 360 441 c 0
 362 438 364 434 364 434 c 0
 364 434 340 432 311 430 c 0
 260 426 257 427 204 419 c 2
 149 411 l 1
 144 407 l 2
 140 404 137 403 137 404 c 0
 136 406 124 461 125 462 c 0
EndSplineSet
Comment: "Kage: aj1-00364+AAoA-Alias: uf016c"
EndChar
StartChar: uF016D
Encoding: 983405 983405 38
Width: 500
VWidth: 0
Flags: MW
LayerCount: 2
Back
Fore
SplineSet
74 -112 m 1
 92 -91 l 2
 154 -19 206 75 246 184 c 0
 252 202 259 219 260 221 c 2
 260 224 l 1
 251 240 l 2
 227 277 210 299 178 337 c 2
 156 362 l 1
 158 365 158 368 160 371 c 1
 175 362 l 2
 193 350 211 337 228 321 c 0
 241 309 264 284 271 275 c 0
 273 272 275 271 275 271 c 0
 278 275 302 364 313 415 c 0
 320 449 334 521 334 526 c 0
 334 526 315 525 293 523 c 0
 255 520 247 520 200 514 c 2
 149 506 l 1
 143 502 l 2
 140 500 136 498 136 499 c 0
 135 501 124 557 125 557 c 0
 125 557 129 556 132 554 c 2
 139 551 l 1
 186 551 l 2
 232 551 235 551 286 555 c 2
 339 558 l 1
 350 571 l 2
 356 578 362 584 363 584 c 0
 365 584 408 533 407 532 c 0
 406 531 383 517 382 516 c 0
 382 515 378 501 374 482 c 0
 358 404 333 309 313 254 c 0
 308 242 304 231 304 230 c 0
 304 229 304 228 305 228 c 0
 307 227 331 185 340 170 c 0
 355 143 372 110 382 86 c 2
 392 63 l 1
 392 51 l 1
 392 39 l 1
 388 33 384 27 380 21 c 1
 374 21 366 20 360 20 c 1
 355 25 352 29 347 34 c 1
 340 51 l 2
 330 76 317 112 309 130 c 0
 300 149 286 179 285 179 c 0
 285 179 280 168 274 155 c 0
 249 96 214 34 180 -13 c 0
 165 -34 160 -42 142 -61 c 0
 124 -81 118 -85 100 -101 c 0
 89 -111 80 -120 80 -120 c 0
 80 -120 78 -118 76 -116 c 2
 74 -112 l 1
EndSplineSet
Comment: "Kage: aj1-00365+AAoA-Alias: uf016d"
EndChar
StartChar: uF016E
Encoding: 983406 983406 39
Width: 500
VWidth: 0
Flags: MW
LayerCount: 2
Back
Fore
SplineSet
58 73 m 0
 58 73 66 80 74 89 c 0
 127 146 175 208 215 271 c 1
 226 288 l 1
 226 292 226 296 226 300 c 1
 230 302 234 306 238 308 c 1
 249 328 l 2
 263 354 280 384 292 409 c 0
 301 428 310 448 310 449 c 0
 310 449 294 448 274 447 c 0
 242 445 231 443 185 437 c 2
 133 430 l 1
 127 425 l 2
 124 423 120 422 120 422 c 0
 119 423 107 481 108 481 c 0
 108 481 112 481 115 479 c 2
 120 475 l 1
 168 474 l 2
 215 473 215 473 268 477 c 2
 321 481 l 1
 329 490 338 500 346 509 c 1
 361 491 376 474 391 456 c 1
 382 451 l 2
 377 449 370 443 366 441 c 2
 359 437 l 1
 350 420 l 2
 330 381 300 326 274 288 c 0
 266 275 259 265 259 265 c 0
 259 265 262 261 267 257 c 0
 272 253 278 247 281 243 c 2
 287 237 l 1
 283 233 278 227 274 223 c 1
 274 113 274 2 274 -108 c 1
 268 -114 l 2
 263 -119 261 -121 256 -123 c 2
 250 -124 l 1
 244 -117 l 2
 238 -110 238 -109 232 -96 c 0
 226 -82 226 -82 220 -52 c 2
 213 -22 l 1
 217 -12 222 0 226 10 c 1
 226 115 l 1
 225 220 l 1
 214 206 l 2
 172 154 126 110 80 77 c 0
 70 69 62 64 62 64 c 0
 61 64 57 72 58 73 c 0
195 675 m 1
 196 678 l 2
 198 680 199 682 199 682 c 0
 200 682 222 669 226 665 c 0
 241 652 255 631 268 605 c 0
 274 590 280 581 283 571 c 0
 286 561 286 563 284 544 c 0
 283 538 283 538 277 531 c 2
 271 522 l 1
 265 523 258 523 252 524 c 1
 246 532 l 2
 243 537 239 541 239 543 c 0
 233 577 227 598 220 620 c 0
 214 638 204 661 199 668 c 2
 195 675 l 1
288 247 m 1
 288 252 l 2
 289 255 290 258 292 257 c 0
 293 257 295 256 298 256 c 0
 319 255 332 251 352 236 c 0
 374 221 396 194 416 158 c 2
 422 146 l 1
 422 138 l 2
 422 134 423 128 423 126 c 0
 423 122 423 122 418 114 c 0
 412 104 412 104 400 102 c 2
 393 101 l 1
 386 108 l 2
 379 114 379 114 376 123 c 0
 362 158 348 184 332 207 c 0
 322 220 303 241 293 245 c 2
 288 247 l 1
EndSplineSet
Comment: "Kage: aj1-00366+AAoA-Alias: uf016e"
EndChar
StartChar: uF016F
Encoding: 983407 983407 40
Width: 500
VWidth: 0
Flags: MW
LayerCount: 2
Back
Fore
SplineSet
74 -107 m 1
 94 -81 l 1
 167 15 225 137 276 297 c 0
 300 372 324 465 342 554 c 1
 350 593 l 1
 350 609 l 2
 350 614 348 647 348 647 c 0
 349 647 413 608 414 607 c 0
 415 606 396 563 392 556 c 0
 391 555 387 540 384 525 c 0
 374 482 355 411 340 362 c 0
 314 275 283 197 250 129 c 0
 204 32 156 -37 100 -93 c 0
 89 -105 80 -115 80 -115 c 0
 80 -115 78 -113 76 -111 c 2
 74 -107 l 1
EndSplineSet
Comment: "Kage: aj1-00367+AAoA-Alias: uf016f"
EndChar
StartChar: uF0170
Encoding: 983408 983408 41
Width: 500
VWidth: 0
Flags: MW
LayerCount: 2
Back
Fore
SplineSet
50 37 m 1
 55 46 l 2
 61 57 70 80 83 113 c 0
 121 205 153 322 174 436 c 2
 178 455 l 1
 176 477 l 2
 175 489 176 500 176 503 c 0
 176 507 175 508 176 508 c 0
 177 508 241 471 242 470 c 0
 242 470 223 428 220 421 c 0
 218 419 215 403 211 388 c 0
 181 271 148 184 106 103 c 0
 94 80 75 49 60 29 c 2
 50 16 l 1
 50 26 l 1
 50 37 l 1
290 475 m 0
 289 477 294 482 295 482 c 0
 297 482 315 465 324 455 c 0
 370 401 413 295 443 160 c 1
 448 137 l 1
 447 125 l 2
 446 119 444 113 444 113 c 0
 442 110 430 99 429 99 c 0
 428 99 425 99 420 100 c 2
 412 101 l 1
 407 109 l 2
 405 114 401 118 401 119 c 0
 401 120 398 130 396 144 c 0
 378 250 351 345 321 412 c 0
 313 429 305 449 296 464 c 0
 293 470 290 474 290 475 c 0
EndSplineSet
Comment: "Kage: aj1-00368+AAoA-Alias: uf0170"
EndChar
StartChar: uF0171
Encoding: 983409 983409 42
Width: 500
VWidth: 0
Flags: MW
LayerCount: 2
Back
Fore
SplineSet
115 634 m 0
 115 636 116 637 116 637 c 0
 116 637 123 628 133 617 c 0
 147 601 153 593 164 584 c 0
 171 578 180 569 183 565 c 2
 188 560 l 1
 184 556 180 550 176 546 c 1
 176 415 l 1
 176 284 l 1
 179 286 l 2
 181 287 189 294 198 301 c 0
 247 339 284 373 320 414 c 0
 342 439 342 437 355 464 c 0
 361 477 367 488 367 488 c 0
 368 488 412 421 412 420 c 0
 412 419 362 381 356 378 c 0
 352 376 345 371 336 363 c 0
 317 346 301 333 278 317 c 0
 246 295 218 280 191 269 c 0
 184 265 177 263 176 263 c 0
 175 263 176 241 176 161 c 0
 176 49 175 49 180 34 c 0
 185 21 192 10 198 6 c 0
 204 2 219 -1 236 -3 c 0
 246 -4 249 -4 279 -2 c 0
 313 0 322 2 364 11 c 2
 376 14 l 1
 382 12 388 10 394 8 c 1
 397 1 401 -3 404 -10 c 1
 402 -18 401 -26 399 -34 c 1
 394 -38 389 -43 384 -47 c 1
 368 -50 l 2
 328 -59 322 -60 281 -63 c 0
 249 -65 242 -64 232 -64 c 0
 210 -63 190 -57 176 -49 c 0
 167 -45 153 -34 154 -33 c 0
 154 -32 151 -27 151 -26 c 0
 151 -25 148 -22 146 -17 c 0
 137 -2 134 10 130 30 c 2
 128 39 l 1
 128 219 127 399 127 579 c 1
 121 605 l 2
 118 619 115 632 115 634 c 0
EndSplineSet
Comment: "Kage: aj1-00369+AAoA-Alias: uf0171"
EndChar
StartChar: uF0172
Encoding: 983410 983410 43
Width: 500
VWidth: 0
Flags: MW
LayerCount: 2
Back
Fore
SplineSet
96 530 m 0
 96 531 99 530 102 528 c 2
 108 524 l 1
 141 523 175 524 208 523 c 1
 258 527 307 530 357 534 c 1
 369 547 l 2
 375 554 382 561 382 561 c 0
 383 561 427 508 427 508 c 0
 427 508 421 505 415 502 c 0
 409 499 402 494 402 493 c 0
 402 492 399 477 396 459 c 0
 389 412 376 350 362 299 c 0
 340 217 318 156 287 91 c 0
 267 49 249 19 223 -16 c 0
 207 -38 203 -43 185 -62 c 0
 167 -81 163 -84 144 -99 c 0
 133 -108 124 -116 123 -116 c 0
 122 -116 121 -116 120 -113 c 0
 119 -111 118 -108 118 -108 c 0
 118 -108 127 -100 137 -88 c 0
 184 -36 225 32 259 111 c 0
 292 187 320 289 338 393 c 0
 344 424 355 497 355 502 c 0
 355 502 328 501 295 499 c 2
 235 495 l 1
 197 489 158 485 120 479 c 1
 115 475 l 2
 112 473 108 471 108 471 c 0
 108 471 96 529 96 530 c 0
EndSplineSet
Comment: "Kage: aj1-00370+AAoA-Alias: uf0172"
EndChar
StartChar: uF0173
Encoding: 983411 983411 44
Width: 500
VWidth: 0
Flags: MW
LayerCount: 2
Back
Fore
SplineSet
168 488 m 0
 168 489 187 502 188 502 c 0
 189 502 194 500 200 497 c 2
 211 493 l 1
 223 481 l 2
 232 472 236 466 245 454 c 0
 271 416 299 365 360 244 c 0
 379 205 418 131 436 96 c 0
 442 83 442 84 444 74 c 0
 445 69 444 63 444 62 c 0
 444 61 436 46 434 42 c 0
 434 42 429 39 424 38 c 2
 416 36 l 1
 411 41 405 44 400 49 c 1
 384 83 l 2
 365 123 342 169 316 226 c 0
 250 367 223 425 201 454 c 0
 191 467 189 468 185 468 c 0
 183 468 182 468 176 451 c 0
 172 442 166 423 162 412 c 0
 158 401 148 372 140 347 c 0
 126 303 111 263 102 240 c 2
 98 227 l 1
 96 209 l 2
 95 199 93 188 93 185 c 0
 93 182 93 180 92 180 c 0
 91 180 60 184 54 185 c 2
 50 186 l 1
 50 203 50 221 50 238 c 1
 55 248 l 2
 60 259 81 310 91 335 c 0
 133 440 149 470 163 482 c 0
 166 484 168 487 168 488 c 0
EndSplineSet
Comment: "Kage: aj1-00371+AAoA-Alias: uf0173"
EndChar
StartChar: uF0174
Encoding: 983412 983412 45
Width: 500
VWidth: 0
Flags: MW
LayerCount: 2
Back
Fore
SplineSet
60 23 m 1
 64 34 l 2
 66 44 67 46 70 50 c 0
 93 83 108 113 130 170 c 0
 137 190 155 243 164 273 c 0
 166 277 167 283 168 285 c 2
 170 290 l 1
 174 290 l 2
 176 289 178 288 178 288 c 0
 178 288 174 251 172 235 c 0
 162 154 136 68 108 17 c 2
 103 7 l 1
 97 4 92 -1 86 -4 c 1
 80 -2 74 0 68 2 c 1
 66 9 62 16 60 23 c 1
70 428 m 0
 70 428 73 428 76 426 c 2
 82 422 l 1
 128 421 l 2
 166 421 179 422 200 423 c 2
 226 425 l 1
 226 498 226 570 226 643 c 1
 220 670 l 2
 217 685 213 698 213 700 c 2
 213 704 l 1
 232 683 l 2
 246 666 253 658 263 650 c 0
 270 645 278 637 281 633 c 2
 287 626 l 1
 283 622 278 617 274 613 c 1
 274 553 274 494 274 434 c 1
 276 435 l 2
 277 435 290 438 304 441 c 0
 329 447 333 447 356 456 c 2
 380 466 l 1
 393 457 404 448 417 439 c 1
 419 433 l 2
 420 430 422 423 424 418 c 0
 426 413 428 408 428 408 c 0
 428 408 393 405 351 402 c 2
 274 397 l 1
 274 235 274 75 274 -87 c 1
 269 -97 l 2
 265 -105 263 -107 257 -112 c 0
 253 -115 249 -119 249 -119 c 0
 249 -119 227 -103 201 -85 c 2
 154 -52 l 1
 154 -46 l 2
 154 -41 154 -41 156 -41 c 0
 158 -42 224 -54 225 -54 c 0
 225 -54 226 47 226 170 c 2
 226 393 l 1
 214 392 l 2
 208 392 179 389 149 385 c 2
 96 377 l 1
 89 373 l 2
 85 371 82 369 82 369 c 0
 81 370 70 428 70 428 c 0
305 287 m 1
 308 290 l 2
 310 292 312 293 312 293 c 0
 313 293 322 283 331 273 c 0
 355 246 378 204 400 152 c 0
 411 126 419 101 429 67 c 2
 433 53 l 1
 432 45 432 37 431 29 c 1
 424 21 l 2
 416 12 417 13 406 14 c 2
 398 14 l 1
 394 20 391 26 387 32 c 1
 383 50 l 2
 367 126 348 183 317 259 c 2
 305 287 l 1
EndSplineSet
Comment: "Kage: aj1-00372+AAoA-Alias: uf0174"
EndChar
StartChar: uF0175
Encoding: 983413 983413 46
Width: 500
VWidth: 0
Flags: MW
LayerCount: 2
Back
Fore
SplineSet
68 473 m 0
 68 473 70 473 73 471 c 2
 80 467 l 1
 111 467 142 467 173 467 c 1
 280 474 l 1
 387 482 l 1
 398 494 l 2
 404 501 411 507 411 507 c 0
 412 507 421 495 433 481 c 2
 456 455 l 1
 446 449 435 443 425 437 c 1
 421 429 l 2
 407 395 380 341 359 305 c 0
 332 258 295 202 266 168 c 2
 259 160 l 1
 264 150 l 2
 283 114 300 80 316 38 c 2
 321 21 l 1
 321 13 320 6 320 -2 c 1
 316 -7 312 -15 308 -20 c 1
 298 -20 l 1
 288 -19 l 1
 284 -14 280 -10 276 -5 c 1
 272 11 l 2
 270 20 263 35 260 46 c 0
 234 125 210 178 165 249 c 2
 148 276 l 1
 150 278 152 281 154 283 c 1
 165 275 l 2
 191 256 214 228 240 190 c 0
 246 181 251 175 251 175 c 0
 253 175 301 268 313 293 c 0
 331 331 346 366 357 393 c 0
 363 409 378 448 378 449 c 0
 378 449 338 446 288 443 c 2
 199 436 l 1
 164 432 127 426 92 422 c 1
 86 418 l 2
 82 416 79 414 79 414 c 0
 78 416 67 473 68 473 c 0
EndSplineSet
Comment: "Kage: aj1-00373+AAoA-Alias: uf0175"
EndChar
StartChar: uF0176
Encoding: 983414 983414 47
Width: 500
VWidth: 0
Flags: MW
LayerCount: 2
Back
Fore
SplineSet
123 128 m 0
 121 129 122 130 124 135 c 0
 125 137 124 139 125 139 c 0
 126 139 133 138 139 135 c 0
 172 125 210 105 240 81 c 0
 278 51 316 9 346 -35 c 2
 356 -52 l 1
 358 -61 l 2
 359 -67 360 -72 360 -73 c 0
 360 -74 351 -95 350 -95 c 0
 350 -95 346 -97 341 -98 c 2
 332 -101 l 1
 326 -97 322 -93 316 -89 c 1
 308 -74 l 2
 297 -55 286 -38 275 -22 c 0
 265 -9 242 22 234 31 c 0
 220 46 196 71 175 89 c 0
 165 98 125 127 123 128 c 0
160 378 m 0
 159 379 163 387 164 387 c 0
 164 387 167 387 173 386 c 0
 191 383 213 374 231 363 c 0
 264 342 297 305 321 262 c 1
 328 250 l 1
 328 238 l 2
 329 225 330 228 322 214 c 2
 318 207 l 1
 312 206 306 205 300 204 c 1
 292 210 l 2
 285 216 285 216 281 226 c 0
 267 259 250 289 229 315 c 0
 216 331 194 353 172 369 c 0
 166 374 160 378 160 378 c 0
183 610 m 1
 183 614 l 2
 184 618 184 621 187 620 c 0
 188 620 192 620 197 619 c 0
 228 617 262 604 288 583 c 0
 310 566 329 542 346 513 c 2
 352 502 l 1
 353 494 353 486 354 478 c 1
 350 472 347 466 343 460 c 1
 337 459 330 457 324 456 c 1
 316 462 l 2
 309 468 309 468 305 478 c 0
 281 535 246 576 192 605 c 1
 183 610 l 1
EndSplineSet
Comment: "Kage: aj1-00374+AAoA-Alias: uf0176"
EndChar
StartChar: uF0177
Encoding: 983415 983415 48
Width: 500
VWidth: 0
Flags: MW
LayerCount: 2
Back
Fore
SplineSet
66 12 m 0
 66 12 91 6 92 6 c 0
 93 6 111 13 112 13 c 0
 113 14 122 43 128 64 c 0
 154 158 166 208 176 252 c 0
 201 360 222 469 237 568 c 1
 240 592 l 1
 239 615 l 2
 238 628 237 640 237 642 c 0
 237 644 237 646 237 646 c 0
 238 646 250 640 277 625 c 2
 304 610 l 1
 299 595 l 2
 296 587 290 575 288 569 c 0
 284 560 282 554 280 546 c 0
 277 527 265 468 258 435 c 0
 231 315 204 221 170 125 c 0
 158 90 140 47 128 21 c 1
 127 17 l 1
 140 21 l 2
 147 24 162 29 173 33 c 0
 204 44 232 54 266 66 c 0
 294 76 334 91 350 96 c 0
 355 97 359 100 359 100 c 0
 359 103 344 153 335 177 c 0
 330 190 305 256 296 279 c 0
 293 288 291 295 291 295 c 0
 291 296 295 301 296 301 c 0
 297 301 317 270 328 252 c 0
 348 219 372 172 390 127 c 0
 405 88 421 36 431 -6 c 2
 435 -25 l 1
 433 -33 432 -40 431 -48 c 1
 426 -52 421 -58 416 -62 c 1
 407 -61 l 2
 402 -60 396 -59 396 -59 c 0
 396 -59 394 -54 392 -49 c 2
 387 -40 l 1
 384 -26 l 2
 382 -9 381 6 375 33 c 0
 372 50 364 82 363 84 c 0
 363 85 353 79 335 69 c 0
 304 51 264 28 230 11 c 0
 207 -1 145 -33 132 -39 c 2
 119 -45 l 1
 113 -55 l 2
 110 -60 107 -66 106 -66 c 0
 105 -67 104 -65 100 -56 c 0
 97 -49 87 -31 80 -17 c 0
 66 10 65 12 66 12 c 0
EndSplineSet
Comment: "Kage: aj1-00375+AAoA-Alias: uf0177"
EndChar
StartChar: uF0178
Encoding: 983416 983416 49
Width: 500
VWidth: 0
Flags: MW
LayerCount: 2
Back
Fore
SplineSet
58 -118 m 0
 58 -117 65 -108 75 -95 c 0
 109 -52 146 11 176 74 c 0
 196 115 217 163 235 215 c 0
 251 259 254 270 253 271 c 0
 253 272 249 279 244 287 c 0
 239 295 229 307 223 316 c 0
 209 335 178 371 162 388 c 0
 155 395 149 402 149 402 c 0
 149 402 151 404 152 406 c 2
 153 410 l 1
 167 403 l 2
 192 390 219 369 245 342 c 0
 251 335 260 327 262 323 c 0
 264 319 268 316 268 316 c 0
 270 316 298 414 312 476 c 0
 318 502 327 544 332 567 c 2
 340 609 l 1
 340 625 l 2
 340 631 340 661 340 661 c 0
 340 661 345 657 352 653 c 0
 359 649 374 639 384 633 c 0
 394 627 405 621 405 621 c 0
 405 621 399 608 393 594 c 2
 380 567 l 1
 374 539 l 2
 357 466 324 352 304 297 c 0
 298 281 298 276 299 275 c 0
 300 274 304 267 310 257 c 0
 329 227 347 192 365 149 c 2
 373 131 l 1
 373 120 l 1
 373 108 l 1
 369 102 364 96 360 90 c 1
 351 89 l 1
 342 88 l 1
 337 93 333 98 328 103 c 1
 320 124 l 2
 307 160 298 184 284 213 c 1
 279 225 l 1
 276 218 l 2
 274 214 268 198 262 184 c 0
 245 143 221 92 199 53 c 0
 161 -15 127 -63 84 -106 c 2
 62 -126 l 1
 60 -123 l 2
 58 -121 58 -118 58 -118 c 0
EndSplineSet
Comment: "Kage: aj1-00376+AAoA-Alias: uf0178"
EndChar
StartChar: uF0179
Encoding: 983417 983417 50
Width: 500
VWidth: 0
Flags: MW
LayerCount: 2
Back
Fore
SplineSet
68 303 m 0
 68 303 71 302 74 300 c 2
 81 297 l 1
 128 297 l 2
 154 297 181 297 188 298 c 2
 201 299 l 1
 201 371 201 443 201 515 c 1
 194 513 l 2
 190 513 175 511 161 509 c 2
 136 505 l 1
 129 501 l 2
 126 499 123 497 123 497 c 0
 122 498 110 556 111 556 c 0
 111 556 114 556 117 554 c 2
 123 550 l 1
 149 550 174 549 200 549 c 1
 230 556 258 563 288 570 c 1
 312 578 l 2
 325 583 335 587 335 587 c 0
 336 587 343 580 353 573 c 2
 372 561 l 1
 375 551 l 2
 377 546 379 540 380 537 c 0
 381 534 382 531 382 530 c 0
 382 529 361 528 316 525 c 2
 250 520 l 1
 250 447 250 375 250 302 c 1
 253 303 l 2
 255 303 274 307 296 313 c 2
 338 322 l 1
 355 328 370 336 387 342 c 1
 405 328 l 2
 415 321 423 314 424 313 c 0
 425 312 426 309 428 305 c 0
 430 301 430 295 432 291 c 0
 434 287 435 284 435 284 c 0
 435 284 394 281 343 277 c 2
 250 270 l 1
 250 168 l 2
 250 55 250 55 255 40 c 0
 260 24 269 11 278 7 c 0
 290 1 306 -1 325 0 c 0
 339 1 350 3 372 9 c 2
 387 13 l 1
 393 11 399 11 405 10 c 1
 408 4 413 -3 416 -9 c 1
 415 -17 l 2
 413 -32 412 -31 404 -39 c 0
 397 -46 397 -46 388 -49 c 0
 317 -70 267 -65 234 -33 c 0
 230 -29 228 -26 226 -22 c 0
 224 -19 222 -14 220 -11 c 0
 213 2 208 16 204 36 c 2
 202 46 l 1
 202 157 l 1
 201 267 l 1
 198 266 l 2
 196 266 172 264 143 260 c 2
 91 252 l 1
 85 247 l 2
 82 245 79 244 79 244 c 0
 78 245 67 302 68 303 c 0
EndSplineSet
Comment: "Kage: aj1-00377+AAoA-Alias: uf0179"
EndChar
StartChar: uF017A
Encoding: 983418 983418 51
Width: 500
VWidth: 0
Flags: MW
LayerCount: 2
Back
Fore
SplineSet
69 321 m 0
 69 321 72 322 76 322 c 2
 83 321 l 1
 128 341 l 2
 173 361 196 373 196 375 c 0
 196 376 171 642 170 646 c 0
 170 649 169 649 171 649 c 0
 172 649 183 649 196 648 c 2
 220 646 l 1
 226 640 l 2
 230 636 233 634 233 634 c 0
 233 634 231 630 228 627 c 2
 222 622 l 1
 222 618 l 2
 224 600 243 401 244 400 c 0
 244 400 276 417 315 438 c 2
 386 476 l 1
 386 480 387 483 387 487 c 1
 395 496 403 504 411 513 c 1
 426 495 441 478 456 460 c 1
 446 454 437 449 427 443 c 1
 422 429 l 2
 416 414 398 365 388 340 c 0
 369 294 339 236 317 198 c 0
 312 190 308 183 308 183 c 0
 308 183 303 186 302 187 c 0
 301 187 312 221 326 264 c 0
 343 315 350 337 360 374 c 0
 368 403 378 439 377 438 c 0
 376 437 247 369 247 368 c 0
 247 368 256 267 268 146 c 0
 280 25 290 -75 290 -76 c 0
 290 -77 282 -86 268 -98 c 0
 256 -109 246 -117 245 -117 c 0
 244 -117 244 -117 244 -116 c 0
 244 -113 201 339 200 340 c 0
 199 341 190 337 152 313 c 2
 107 285 l 1
 102 279 l 2
 100 276 97 272 97 272 c 0
 96 272 68 320 69 321 c 0
EndSplineSet
Comment: "Kage: aj1-00378+AAoA-Alias: uf017a"
EndChar
StartChar: uF017B
Encoding: 983419 983419 52
Width: 500
VWidth: 0
Flags: MW
LayerCount: 2
Back
Fore
SplineSet
63 93 m 0
 63 93 67 92 70 90 c 2
 76 87 l 1
 123 86 l 2
 165 86 174 87 208 89 c 2
 247 92 l 1
 275 267 l 2
 291 363 304 442 304 443 c 0
 304 444 299 443 279 442 c 0
 260 441 240 439 202 433 c 2
 151 426 l 1
 145 422 l 2
 142 420 140 418 140 418 c 0
 139 419 128 477 128 477 c 0
 128 477 131 477 134 475 c 2
 140 471 l 1
 186 471 l 2
 229 471 236 471 270 473 c 2
 308 476 l 1
 319 489 l 2
 325 496 331 502 332 502 c 0
 333 502 376 451 376 450 c 0
 376 450 370 447 363 442 c 0
 356 437 348 433 348 433 c 0
 347 430 298 104 299 104 c 0
 299 104 308 105 319 108 c 0
 336 112 342 115 362 122 c 0
 375 127 386 131 387 131 c 0
 388 131 396 124 406 117 c 2
 424 103 l 1
 428 94 l 2
 430 89 430 84 432 81 c 0
 434 78 435 74 435 74 c 0
 435 74 380 69 313 64 c 2
 191 56 l 1
 157 52 121 46 87 42 c 1
 81 37 l 2
 78 35 74 34 74 34 c 0
 73 35 62 93 63 93 c 0
EndSplineSet
Comment: "Kage: aj1-00379+AAoA-Alias: uf017b"
EndChar
StartChar: uF017C
Encoding: 983420 983420 53
Width: 500
VWidth: 0
Flags: MW
LayerCount: 2
Back
Fore
SplineSet
320 293 m 2
 320 298 332 504 332 509 c 2
 332 512 l 1
 292 509 l 2
 255 506 247 506 197 498 c 2
 142 490 l 1
 138 487 134 485 130 482 c 1
 129 486 l 2
 126 501 118 540 118 541 c 0
 118 542 119 542 124 539 c 2
 130 536 l 1
 181 535 l 2
 232 535 233 534 283 538 c 2
 333 542 l 1
 345 556 l 2
 351 563 358 569 358 569 c 0
 358 569 368 557 380 543 c 0
 402 518 402 517 400 516 c 0
 399 516 394 511 388 508 c 2
 378 502 l 1
 377 496 l 1
 375 480 350 -53 348 -54 c 0
 347 -55 300 -84 300 -84 c 0
 300 -84 303 -18 304 -6 c 2
 304 -0 l 1
 271 -3 l 2
 241 -5 230 -6 180 -13 c 2
 123 -21 l 1
 117 -25 l 2
 114 -27 111 -29 111 -29 c 0
 111 -29 99 29 99 30 c 0
 99 30 101 30 104 28 c 2
 111 24 l 1
 160 24 l 2
 209 23 210 24 257 27 c 2
 305 30 l 1
 306 36 l 2
 307 46 318 253 318 257 c 2
 318 261 l 1
 286 259 l 2
 259 257 246 254 200 248 c 2
 144 241 l 1
 140 238 136 235 132 232 c 1
 132 236 l 2
 130 244 120 291 120 292 c 0
 120 292 124 291 127 289 c 2
 132 286 l 1
 184 285 l 2
 234 284 237 285 278 288 c 2
 320 291 l 1
 320 293 l 2
EndSplineSet
Comment: "Kage: aj1-00380+AAoA-Alias: uf017c"
EndChar
StartChar: uF017D
Encoding: 983421 983421 54
Width: 500
VWidth: 0
Flags: MW
LayerCount: 2
Back
Fore
SplineSet
94 400 m 0
 94 400 97 400 100 398 c 2
 107 394 l 1
 139 393 171 394 203 393 c 1
 257 397 308 400 362 404 c 1
 374 418 l 2
 380 425 387 432 387 432 c 0
 388 432 432 379 432 379 c 0
 432 379 425 374 419 371 c 0
 413 368 406 363 406 363 c 0
 406 363 403 349 400 333 c 0
 369 186 317 66 253 -15 c 0
 239 -32 234 -39 220 -54 c 0
 204 -70 199 -74 182 -86 c 0
 165 -98 161 -102 143 -111 c 0
 132 -117 122 -122 122 -122 c 0
 121 -122 119 -116 119 -114 c 0
 119 -113 127 -106 137 -98 c 0
 209 -39 265 46 305 159 c 0
 323 210 344 289 354 345 c 0
 356 357 358 370 358 371 c 2
 359 373 l 1
 313 370 266 366 220 363 c 1
 186 359 152 353 118 349 c 1
 112 344 l 2
 109 342 106 341 106 341 c 0
 105 342 94 400 94 400 c 0
140 603 m 0
 140 603 143 603 146 601 c 2
 152 597 l 1
 166 597 178 597 192 597 c 1
 228 605 l 2
 263 613 265 613 287 622 c 0
 300 627 311 630 311 630 c 0
 312 630 319 624 329 617 c 2
 348 603 l 1
 349 598 l 2
 350 595 353 588 355 583 c 0
 357 578 359 574 359 574 c 0
 359 574 338 571 314 569 c 0
 273 566 265 566 217 560 c 2
 165 552 l 1
 159 548 l 2
 155 546 152 544 152 544 c 0
 151 545 140 603 140 603 c 0
EndSplineSet
Comment: "Kage: aj1-00381+AAoA-Alias: uf017d"
EndChar
StartChar: uF017E
Encoding: 983422 983422 55
Width: 500
VWidth: 0
Flags: MW
LayerCount: 2
Back
Fore
SplineSet
132 263 m 1
 136 273 140 284 144 294 c 1
 144 389 144 485 144 580 c 1
 138 604 l 2
 135 618 132 632 132 634 c 0
 132 636 132 638 132 638 c 0
 132 638 141 628 151 617 c 0
 165 601 172 593 180 586 c 0
 190 578 204 562 204 560 c 0
 204 560 202 556 199 553 c 2
 193 547 l 1
 193 423 193 301 193 177 c 1
 188 172 l 2
 182 166 178 164 172 162 c 2
 168 160 l 1
 162 167 l 2
 156 174 156 174 150 188 c 0
 144 203 144 203 138 233 c 2
 132 263 l 1
140 -117 m 0
 140 -117 148 -110 158 -103 c 0
 183 -84 201 -68 218 -47 c 0
 246 -12 264 22 280 68 c 0
 295 112 306 164 310 221 c 2
 312 249 l 1
 312 373 312 497 312 621 c 1
 306 647 l 2
 303 662 300 673 300 676 c 2
 300 680 l 1
 319 659 l 2
 333 642 340 634 350 626 c 0
 364 615 374 604 372 602 c 0
 371 602 370 598 367 595 c 2
 362 590 l 1
 362 444 l 2
 361 274 360 264 354 216 c 0
 351 191 350 180 345 156 c 0
 340 131 338 124 331 100 c 0
 324 77 321 69 313 49 c 0
 304 28 301 23 291 4 c 0
 281 -15 277 -20 264 -37 c 0
 251 -54 247 -58 233 -71 c 0
 219 -84 216 -87 200 -97 c 0
 183 -108 181 -110 163 -118 c 0
 153 -123 143 -125 143 -125 c 0
 142 -125 139 -118 140 -117 c 0
EndSplineSet
Comment: "Kage: aj1-00382+AAoA-Alias: uf017e"
EndChar
StartChar: uF017F
Encoding: 983423 983423 56
Width: 500
VWidth: 0
Flags: MW
LayerCount: 2
Back
Fore
SplineSet
50 -47 m 1
 56 -33 l 2
 84 35 109 121 124 198 c 0
 138 271 150 357 155 430 c 2
 156 454 l 1
 152 480 l 2
 150 494 148 507 148 507 c 0
 148 507 158 501 170 496 c 0
 182 491 198 485 205 482 c 0
 212 479 218 476 218 475 c 0
 218 474 204 430 202 425 c 0
 201 423 201 417 200 413 c 0
 198 394 189 334 184 305 c 0
 158 157 115 31 61 -54 c 2
 50 -71 l 1
 50 -63 50 -55 50 -47 c 1
228 631 m 2
 228 636 l 1
 247 614 l 2
 261 597 267 589 276 582 c 0
 286 574 300 559 300 557 c 0
 300 557 298 553 295 550 c 2
 290 544 l 1
 290 392 290 241 290 89 c 1
 291 90 l 2
 293 92 314 120 326 139 c 0
 355 183 384 237 410 295 c 0
 429 337 436 354 445 376 c 0
 450 387 455 395 455 396 c 0
 456 398 463 395 462 393 c 0
 462 392 459 381 456 369 c 0
 439 297 412 222 377 150 c 0
 356 108 322 51 296 17 c 2
 290 7 l 1
 290 -2 290 -12 290 -21 c 1
 284 -27 l 2
 278 -32 273 -37 267 -38 c 0
 265 -39 264 -38 258 -31 c 0
 252 -24 252 -24 246 -10 c 2
 240 4 l 1
 238 24 236 45 234 65 c 1
 236 75 238 85 240 95 c 1
 240 255 240 416 240 576 c 1
 234 601 l 2
 231 617 228 628 228 631 c 2
EndSplineSet
Comment: "Kage: aj1-00383+AAoA-Alias: uf017f"
EndChar
StartChar: uF0180
Encoding: 983424 983424 57
Width: 500
VWidth: 0
Flags: MW
LayerCount: 2
Back
Fore
SplineSet
118 623 m 2
 118 628 l 1
 137 606 l 2
 152 588 158 580 168 572 c 0
 179 563 192 550 191 549 c 0
 191 549 187 545 184 542 c 2
 178 536 l 1
 178 277 l 2
 178 135 179 18 179 18 c 0
 179 18 185 24 193 32 c 0
 243 84 294 154 338 238 c 0
 361 283 392 351 416 410 c 0
 422 426 428 440 428 440 c 0
 428 440 436 438 436 437 c 0
 436 437 432 421 427 403 c 0
 391 273 343 163 279 67 c 0
 270 53 256 35 249 25 c 0
 233 4 207 -26 190 -42 c 2
 178 -54 l 1
 178 -63 178 -71 178 -80 c 1
 172 -85 l 2
 167 -89 165 -93 160 -94 c 2
 154 -96 l 1
 148 -89 l 2
 142 -82 142 -81 136 -67 c 2
 130 -52 l 1
 128 -32 126 -13 124 7 c 1
 126 17 128 28 130 38 c 1
 130 214 130 392 130 568 c 1
 124 592 l 2
 120 609 118 619 118 623 c 2
EndSplineSet
Comment: "Kage: aj1-00384+AAoA-Alias: uf0180"
EndChar
StartChar: uF0181
Encoding: 983425 983425 58
Width: 500
VWidth: 0
Flags: MW
LayerCount: 2
Back
Fore
SplineSet
429 459 m 0
 402 443 l 0
 402 440 360 30 360 30 c 0
 359 29 310 4 310 5 c 0
 310 5 314 47 315 53 c 2
 315 56 l 1
 283 53 l 2
 257 51 242 49 208 45 c 0
 185 41 162 38 160 38 c 2
 156 37 l 1
 156 17 l 2
 156 6 156 -4 156 -6 c 2
 157 -9 l 1
 133 -27 l 2
 120 -37 110 -45 110 -45 c 0
 109 -44 91 451 89 485 c 0
 89 493 89 494 90 494 c 0
 91 494 101 489 111 484 c 2
 130 475 l 1
 156 475 184 474 210 474 c 1
 285 479 l 1
 360 484 l 1
 368 494 376 501 384 511 c 1
 407 485 l 2
 419 471 429 459 429 459 c 0
140 431 m 1
 141 423 l 2
 141 418 145 340 148 248 c 2
 153 80 l 1
 188 80 l 2
 219 80 229 80 271 83 c 2
 318 87 l 1
 318 90 l 2
 320 99 356 446 357 450 c 2
 358 453 l 1
 292 448 l 2
 228 444 223 443 183 437 c 2
 140 431 l 1
EndSplineSet
Comment: "Kage: aj1-00385+AAoA-Alias: uf0181"
EndChar
StartChar: uF0182
Encoding: 983426 983426 59
Width: 500
VWidth: 0
Flags: MW
LayerCount: 2
Back
Fore
SplineSet
91 564 m 0
 91 566 91 568 91 568 c 0
 91 568 100 558 110 547 c 2
 128 525 l 1
 161 524 192 525 225 524 c 1
 268 527 312 530 355 533 c 1
 367 547 l 2
 373 554 380 561 380 561 c 0
 381 561 424 508 424 508 c 0
 424 508 400 495 400 494 c 0
 400 494 399 478 397 460 c 0
 388 378 373 295 352 223 c 0
 342 190 339 181 328 151 c 0
 318 122 312 113 300 87 c 0
 288 61 284 52 271 30 c 0
 257 7 253 2 236 -21 c 0
 217 -46 215 -49 196 -68 c 0
 178 -86 173 -91 154 -105 c 0
 142 -114 133 -121 132 -121 c 0
 132 -121 130 -119 129 -117 c 2
 128 -114 l 1
 147 -93 l 2
 162 -77 170 -69 184 -51 c 0
 244 27 284 117 314 236 c 0
 331 302 344 389 350 463 c 0
 352 481 353 497 353 499 c 2
 354 503 l 1
 304 500 l 2
 256 497 250 496 205 490 c 2
 158 483 l 1
 156 481 154 479 152 477 c 1
 152 353 l 1
 152 229 l 1
 146 223 l 2
 141 219 139 216 134 214 c 2
 128 211 l 1
 121 219 l 2
 115 226 115 226 109 240 c 0
 103 255 103 255 97 285 c 2
 91 315 l 1
 95 325 99 336 103 346 c 1
 103 400 103 455 103 509 c 1
 97 534 l 2
 94 549 91 562 91 564 c 0
EndSplineSet
Comment: "Kage: aj1-00386+AAoA-Alias: uf0182"
EndChar
StartChar: uF0183
Encoding: 983427 983427 60
Width: 500
VWidth: 0
Flags: MW
LayerCount: 2
Back
Fore
SplineSet
69 -45 m 0
 69 -45 79 -40 89 -36 c 2
 108 -29 l 1
 123 -18 l 2
 144 -1 175 31 196 54 c 0
 206 65 222 85 232 98 c 0
 301 186 362 300 412 441 c 0
 418 458 423 475 424 477 c 0
 425 479 426 480 427 480 c 0
 428 480 432 479 433 478 c 0
 433 478 430 461 425 441 c 0
 403 347 369 254 328 176 c 0
 287 96 238 27 186 -28 c 0
 176 -39 165 -51 162 -53 c 0
 159 -55 154 -62 152 -65 c 0
 149 -70 131 -99 128 -103 c 0
 127 -104 124 -101 112 -89 c 0
 104 -81 92 -66 84 -59 c 0
 77 -52 69 -45 69 -45 c 0
106 548 m 1
 108 553 l 2
 110 557 110 557 112 556 c 0
 138 546 155 533 176 508 c 0
 194 487 208 465 222 432 c 2
 228 419 l 1
 228 411 227 404 227 396 c 1
 223 391 218 384 214 379 c 1
 208 379 201 379 195 379 c 1
 191 384 186 389 182 394 c 1
 176 414 l 2
 169 438 160 461 153 476 c 0
 143 495 122 531 112 542 c 2
 106 548 l 1
EndSplineSet
Comment: "Kage: aj1-00387+AAoA-Alias: uf0183"
EndChar
StartChar: uF0184
Encoding: 983428 983428 61
Width: 500
VWidth: 0
Flags: MW
LayerCount: 2
Back
Fore
SplineSet
101 653 m 0
 101 653 102 656 103 658 c 2
 104 662 l 1
 110 658 l 2
 140 643 152 636 172 612 c 0
 188 593 198 577 208 554 c 2
 212 545 l 1
 212 537 212 528 212 520 c 1
 208 515 203 508 199 503 c 1
 193 503 185 503 179 503 c 1
 175 508 171 512 167 517 c 1
 163 533 l 2
 154 565 142 594 126 619 c 0
 116 634 111 642 106 647 c 0
 104 650 101 653 101 653 c 0
181 714 m 1
 183 717 183 719 184 722 c 1
 188 721 l 2
 190 720 197 718 203 715 c 0
 225 706 241 695 258 677 c 0
 272 662 282 646 292 628 c 2
 296 620 l 1
 296 612 296 605 296 597 c 1
 292 592 288 585 284 580 c 1
 278 580 270 578 264 578 c 1
 257 586 l 2
 251 593 251 593 249 599 c 0
 245 615 236 638 228 652 c 0
 217 673 198 698 185 710 c 2
 181 714 l 1
EndSplineSet
Comment: "Kage: aj1-00388+AAoA-Alias: uf0184"
EndChar
StartChar: uF0185
Encoding: 983429 983429 62
Width: 500
VWidth: 0
Flags: MW
LayerCount: 2
Back
Fore
SplineSet
114 576 m 0
 112 589 112 610 114 623 c 0
 122 668 153 703 187 709 c 0
 207 712 224 707 241 696 c 0
 259 684 271 664 277 637 c 0
 279 629 279 625 279 611 c 0
 279 592 277 582 272 568 c 0
 261 535 242 515 216 505 c 0
 209 502 206 502 196 501 c 0
 186 500 182 500 176 502 c 0
 144 510 121 538 114 576 c 0
145 586 m 0
 149 564 164 543 182 540 c 0
 184 539 192 540 197 540 c 0
 219 542 235 556 245 582 c 0
 247 588 247 593 247 609 c 0
 247 625 247 629 245 635 c 0
 239 653 225 663 212 668 c 0
 204 670 189 672 181 668 c 0
 164 661 149 640 145 619 c 0
 144 610 144 595 145 586 c 0
EndSplineSet
Comment: "Kage: aj1-00389+AAoA-Alias: uf0185"
EndChar
StartChar: uF0187
Encoding: 983431 983431 63
Width: 500
VWidth: 0
Flags: MW
LayerCount: 2
Back
Fore
SplineSet
144 414 m 2
 137 443 l 2
 134 459 132 473 132 473 c 1
 132 473 136 472 139 470 c 2
 146 467 l 1
 192 466 l 2
 218 466 243 467 249 467 c 2
 260 468 l 1
 260 533 260 598 260 663 c 1
 253 687 l 2
 249 703 248 714 248 717 c 2
 248 722 l 1
 266 700 l 2
 280 683 287 675 296 668 c 0
 306 660 320 645 320 643 c 2
 320 643 318 640 315 637 c 2
 308 630 l 1
 308 578 308 526 308 474 c 1
 311 474 l 2
 312 474 315 476 318 476 c 0
 321 476 328 479 336 483 c 2
 348 489 l 1
 355 481 l 2
 361 474 362 473 364 466 c 0
 366 462 368 455 370 451 c 2
 372 444 l 1
 350 442 330 441 308 439 c 1
 308 323 l 2
 308 208 308 206 310 206 c 0
 316 206 326 211 344 218 c 0
 355 223 363 225 364 225 c 0
 365 225 373 219 380 213 c 0
 390 204 393 201 394 198 c 0
 395 196 398 191 400 184 c 2
 404 172 l 1
 372 170 340 167 308 165 c 1
 308 75 308 -15 308 -105 c 1
 303 -110 l 2
 297 -116 294 -118 288 -120 c 2
 284 -122 l 1
 278 -115 l 2
 272 -108 272 -108 266 -94 c 0
 260 -79 259 -79 253 -49 c 2
 248 -19 l 1
 252 -9 256 2 260 12 c 1
 260 62 260 112 260 162 c 1
 246 161 l 2
 239 160 207 156 176 152 c 2
 119 144 l 1
 112 139 l 2
 109 137 106 136 106 136 c 1
 106 136 94 194 94 195 c 0
 94 196 97 195 100 193 c 2
 107 189 l 1
 155 188 l 2
 157 188 160 188 162 188 c 2
 162 365 l 1
 156 391 l 2
 154 402 151 412 150 418 c 1
 148 417 146 415 144 414 c 2
210 189 m 1
 234 190 249 192 258 195 c 2
 260 195 l 1
 260 275 260 356 260 436 c 1
 253 435 l 2
 250 435 226 432 201 428 c 2
 156 421 l 2
 156 421 155 420 154 420 c 1
 157 416 162 411 168 404 c 0
 182 387 189 381 200 371 c 0
 207 365 216 358 218 354 c 2
 223 348 l 1
 219 344 214 338 210 334 c 1
 210 189 l 1
EndSplineSet
Comment: "Kage: aj1-00391+AAoA-Alias: uf0187"
EndChar
StartChar: uF0188
Encoding: 983432 983432 64
Width: 500
VWidth: 0
Flags: MW
LayerCount: 2
Back
Fore
SplineSet
130 493 m 0
 130 494 133 492 136 490 c 2
 142 486 l 1
 192 486 l 2
 239 485 245 485 283 488 c 2
 324 491 l 1
 332 501 340 510 348 519 c 1
 370 492 l 2
 382 478 392 466 392 466 c 1
 392 466 385 461 376 456 c 2
 360 447 l 1
 348 426 l 2
 335 403 316 374 302 353 c 0
 295 342 273 313 263 300 c 1
 266 297 270 294 271 292 c 2
 276 286 l 1
 272 282 267 276 263 272 c 1
 263 86 l 1
 278 90 294 93 309 96 c 2
 332 105 l 2
 345 110 355 113 356 113 c 0
 357 113 365 107 375 100 c 2
 393 87 l 1
 396 80 l 2
 397 76 399 70 401 65 c 2
 404 57 l 1
 346 53 287 49 229 45 c 0
 192 39 155 35 118 29 c 0
 114 26 110 23 106 20 c 1
 100 49 l 2
 97 65 94 79 94 80 c 0
 94 81 97 79 100 77 c 2
 106 74 l 1
 140 73 174 74 208 73 c 0
 210 73 213 75 215 75 c 2
 215 303 l 1
 209 329 l 2
 206 344 202 358 202 360 c 0
 202 362 203 363 203 363 c 1
 203 363 211 353 221 342 c 0
 235 325 242 319 253 309 c 0
 254 308 254 308 255 307 c 2
 259 316 l 2
 294 403 316 457 316 460 c 2
 316 460 306 460 292 459 c 0
 274 458 254 455 211 449 c 2
 155 441 l 1
 148 437 l 2
 145 435 142 432 142 432 c 1
 142 432 130 492 130 493 c 0
EndSplineSet
Comment: "Kage: aj1-00392+AAoA-Alias: uf0188"
EndChar
StartChar: uF0189
Encoding: 983433 983433 65
Width: 500
VWidth: 0
Flags: MW
LayerCount: 2
Back
Fore
SplineSet
103 225 m 1
 107 235 111 244 115 254 c 1
 115 290 115 328 115 364 c 1
 108 390 l 2
 105 404 103 417 103 419 c 0
 103 421 103 422 103 422 c 0
 103 422 112 412 122 401 c 2
 139 380 l 1
 171 380 203 380 235 380 c 1
 301 384 l 1
 367 389 l 1
 379 402 l 2
 385 409 391 415 391 415 c 0
 391 415 402 402 414 388 c 2
 436 363 l 1
 428 358 420 354 412 349 c 1
 409 324 l 2
 407 307 404 288 399 263 c 0
 379 166 352 92 312 24 c 0
 301 4 295 -5 281 -23 c 0
 267 -42 262 -47 246 -64 c 0
 229 -82 225 -86 207 -100 c 0
 189 -114 184 -119 165 -130 c 2
 143 -144 l 1
 142 -140 l 2
 141 -138 140 -136 140 -135 c 0
 140 -134 149 -125 159 -116 c 0
 223 -61 274 11 308 96 c 0
 334 163 354 246 363 331 c 0
 365 345 365 357 365 357 c 0
 365 357 341 355 312 353 c 0
 262 350 257 349 215 343 c 2
 169 337 l 1
 167 335 165 333 163 331 c 1
 163 267 163 202 163 138 c 1
 158 132 l 2
 153 128 151 127 146 125 c 2
 139 121 l 1
 133 129 l 2
 128 135 127 137 121 151 c 2
 115 165 l 1
 111 185 107 205 103 225 c 1
EndSplineSet
Comment: "Kage: aj1-00393+AAoA-Alias: uf0189"
EndChar
StartChar: uF018A
Encoding: 983434 983434 66
Width: 500
VWidth: 0
Flags: MW
LayerCount: 2
Back
Fore
SplineSet
309 -116 m 0
 308 -116 300 -111 299 -111 c 0
 298 -111 296 -113 294 -114 c 2
 291 -117 l 1
 285 -115 278 -115 272 -113 c 1
 268 -104 l 2
 266 -98 263 -93 263 -93 c 0
 263 -93 245 -82 223 -71 c 2
 183 -50 l 1
 183 -46 182 -43 182 -39 c 1
 184 -40 l 2
 189 -41 271 -49 273 -50 c 0
 275 -50 276 -44 281 -23 c 0
 295 36 311 157 316 250 c 0
 316 255 317 260 317 263 c 2
 317 268 l 1
 295 266 l 2
 268 264 260 263 260 261 c 0
 260 260 256 243 253 224 c 0
 236 124 213 41 184 -23 c 0
 174 -46 171 -51 160 -70 c 0
 149 -88 145 -93 135 -106 c 0
 129 -114 122 -123 120 -124 c 2
 118 -127 l 1
 115 -123 l 2
 113 -121 113 -121 113 -120 c 0
 113 -119 118 -109 124 -99 c 0
 160 -33 188 59 206 168 c 0
 210 192 218 255 217 256 c 0
 217 256 206 255 192 253 c 2
 166 249 l 1
 160 245 l 2
 157 243 154 241 154 241 c 0
 153 242 142 300 142 300 c 0
 142 300 145 300 148 298 c 2
 154 294 l 1
 188 294 l 2
 206 294 221 294 221 294 c 0
 221 294 222 304 223 316 c 0
 225 346 228 406 228 437 c 2
 228 463 l 1
 223 486 l 2
 220 499 217 509 217 510 c 0
 217 511 217 512 217 512 c 0
 217 512 226 508 236 505 c 0
 267 494 289 486 289 485 c 0
 289 485 286 472 282 458 c 2
 276 432 l 1
 275 419 l 2
 274 401 268 333 266 314 c 0
 265 305 264 298 264 297 c 0
 264 295 266 295 292 297 c 2
 319 299 l 1
 331 312 l 2
 337 319 343 325 343 325 c 0
 343 325 353 312 365 298 c 2
 388 273 l 1
 377 267 l 2
 371 264 366 260 366 260 c 0
 366 260 365 251 364 242 c 0
 358 157 347 54 334 -11 c 0
 328 -40 318 -77 312 -90 c 0
 310 -95 310 -96 310 -106 c 0
 310 -113 310 -116 309 -116 c 0
EndSplineSet
Comment: "Kage: aj1-00394+AAoA-Alias: uf018a"
EndChar
StartChar: uF018B
Encoding: 983435 983435 67
Width: 500
VWidth: 0
Flags: MW
LayerCount: 2
Back
Fore
SplineSet
124 72 m 0
 124 72 126 79 128 87 c 0
 157 186 178 289 191 397 c 0
 197 443 195 438 192 466 c 0
 190 480 189 492 189 493 c 2
 189 496 l 1
 192 495 l 2
 194 494 243 468 255 463 c 1
 259 462 l 1
 254 450 l 2
 252 444 247 432 244 424 c 0
 238 409 238 407 234 386 c 0
 229 359 222 319 217 300 c 2
 213 284 l 1
 221 285 l 2
 227 284 232 285 254 290 c 0
 279 296 282 296 300 304 c 0
 310 309 319 312 320 312 c 0
 321 312 328 307 336 301 c 2
 350 289 l 1
 352 282 l 2
 353 278 355 272 357 267 c 2
 361 259 l 1
 336 257 l 2
 322 256 309 254 307 254 c 2
 303 253 l 1
 310 250 l 2
 314 248 318 247 318 247 c 0
 318 246 301 193 301 193 c 0
 301 192 299 178 297 163 c 0
 287 89 270 19 249 -29 c 0
 231 -71 211 -104 189 -126 c 0
 179 -136 176 -138 165 -145 c 0
 158 -150 152 -153 152 -153 c 0
 148 -145 l 0
 148 -145 153 -138 158 -133 c 0
 176 -113 195 -81 207 -50 c 0
 233 19 249 102 255 204 c 2
 256 223 l 1
 254 231 254 238 252 246 c 1
 249 246 l 2
 241 245 205 240 203 239 c 0
 201 238 201 234 195 217 c 0
 184 179 168 136 154 109 c 0
 146 93 131 68 129 68 c 0
 127 68 124 71 124 72 c 0
EndSplineSet
Comment: "Kage: aj1-00395+AAoA-Alias: uf018b"
EndChar
StartChar: uF018C
Encoding: 983436 983436 68
Width: 500
VWidth: 0
Flags: MW
LayerCount: 2
Back
Fore
SplineSet
100 264 m 0
 100 265 103 274 106 282 c 2
 112 297 l 1
 112 341 112 384 112 428 c 1
 106 453 l 2
 102 470 100 479 100 483 c 2
 100 488 l 1
 112 474 124 460 136 446 c 1
 186 446 l 2
 236 445 237 445 285 448 c 2
 333 452 l 1
 341 462 350 470 358 480 c 1
 380 453 l 2
 392 439 402 427 402 427 c 0
 402 426 381 415 380 412 c 0
 380 411 378 397 376 382 c 0
 372 341 364 285 354 238 c 0
 344 186 332 148 317 105 c 0
 294 41 272 -2 240 -45 c 0
 226 -64 224 -66 206 -83 c 0
 189 -99 186 -101 173 -110 c 0
 165 -116 158 -122 156 -123 c 2
 152 -125 l 1
 150 -121 l 2
 149 -119 148 -117 148 -117 c 0
 148 -117 155 -109 163 -101 c 0
 249 -14 301 122 323 321 c 0
 326 350 332 414 332 421 c 0
 332 422 319 421 296 419 c 0
 266 417 253 415 218 411 c 0
 164 403 166 403 163 400 c 2
 160 398 l 1
 160 289 l 1
 160 179 l 1
 154 173 l 2
 149 169 147 167 142 165 c 2
 136 162 l 1
 130 170 l 2
 124 177 124 178 118 192 c 0
 112 207 112 206 106 234 c 0
 103 250 100 263 100 264 c 0
200 684 m 0
 200 685 201 687 203 688 c 2
 206 690 l 1
 208 687 l 2
 214 679 229 657 233 649 c 0
 244 630 256 602 265 578 c 0
 272 558 282 516 282 507 c 0
 282 505 282 499 280 494 c 2
 277 484 l 1
 269 477 l 2
 265 474 261 472 260 472 c 0
 258 472 244 478 244 478 c 0
 244 478 241 482 239 487 c 2
 234 496 l 1
 233 512 l 2
 232 542 228 572 220 606 c 0
 216 624 207 661 203 674 c 0
 201 679 200 683 200 684 c 0
324 678 m 1
 327 681 l 2
 329 683 330 685 330 685 c 0
 331 685 345 670 348 666 c 0
 358 654 368 635 376 617 c 0
 381 606 390 579 392 569 c 2
 393 562 l 1
 391 554 391 547 390 539 c 1
 385 535 380 529 375 525 c 1
 369 525 l 2
 356 527 357 526 351 537 c 0
 346 546 346 547 345 555 c 0
 344 570 342 588 340 605 c 0
 337 628 330 665 327 672 c 2
 324 678 l 1
364 736 m 1
 368 739 l 2
 370 741 370 742 371 742 c 0
 373 741 387 729 393 721 c 0
 407 705 421 680 432 647 c 2
 436 636 l 1
 433 624 l 2
 432 618 431 612 431 612 c 0
 431 612 428 608 424 604 c 2
 416 598 l 1
 408 599 l 2
 403 600 398 601 398 601 c 0
 395 605 387 620 387 622 c 0
 387 624 387 630 386 636 c 0
 384 671 374 719 367 731 c 2
 364 736 l 1
EndSplineSet
Comment: "Kage: aj1-00396+AAoA-Alias: uf018c"
EndChar
StartChar: uF018D
Encoding: 983437 983437 69
Width: 500
VWidth: 0
Flags: MW
LayerCount: 2
Back
Fore
SplineSet
79 -97 m 1
 93 -73 l 2
 111 -41 127 -7 143 38 c 0
 172 118 197 227 211 339 c 0
 214 361 216 380 216 380 c 0
 216 380 199 378 179 376 c 2
 143 371 l 1
 136 366 l 2
 132 364 130 362 130 363 c 0
 129 364 118 418 118 421 c 0
 118 422 119 422 124 419 c 2
 131 416 l 1
 175 415 l 2
 199 415 219 415 219 415 c 0
 219 415 219 427 221 441 c 0
 225 482 227 551 228 598 c 2
 229 639 l 1
 224 662 l 2
 221 675 218 685 218 686 c 0
 218 687 218 687 218 687 c 0
 219 687 281 666 286 664 c 0
 288 663 290 661 290 661 c 0
 290 661 287 648 283 634 c 2
 276 608 l 1
 274 585 l 2
 272 540 266 458 261 420 c 1
 261 418 l 1
 288 420 315 421 342 423 c 1
 354 436 l 2
 360 443 366 449 366 449 c 0
 367 449 411 398 410 397 c 0
 410 397 405 393 399 390 c 2
 388 385 l 1
 388 367 l 2
 384 288 371 167 358 90 c 0
 348 30 333 -30 323 -55 c 2
 320 -63 l 1
 320 -74 l 2
 320 -81 320 -84 319 -84 c 0
 318 -84 315 -84 312 -82 c 2
 307 -79 l 1
 304 -81 l 2
 300 -84 300 -85 290 -83 c 2
 281 -82 l 1
 276 -72 l 2
 274 -67 272 -61 272 -61 c 0
 272 -61 254 -50 232 -39 c 2
 192 -18 l 1
 192 -13 l 2
 192 -8 191 -8 193 -8 c 0
 195 -8 276 -18 281 -19 c 0
 283 -19 284 -19 287 -9 c 0
 298 28 307 80 317 150 c 0
 326 215 337 315 339 367 c 0
 340 376 340 386 340 388 c 2
 340 392 l 1
 299 388 l 1
 258 386 l 1
 250 338 l 2
 235 244 217 168 192 95 c 0
 182 63 178 55 165 26 c 0
 151 -5 150 -7 135 -33 c 0
 120 -59 118 -62 102 -82 c 0
 92 -94 84 -104 84 -104 c 0
 84 -104 83 -103 81 -101 c 2
 79 -97 l 1
324 668 m 1
 327 671 l 2
 329 673 330 675 330 675 c 0
 330 675 339 666 345 659 c 0
 355 648 365 630 374 610 c 0
 378 600 388 573 391 561 c 2
 393 552 l 1
 391 544 391 537 389 529 c 1
 383 525 380 519 374 515 c 1
 365 516 l 2
 360 517 356 518 356 518 c 0
 356 518 354 522 351 527 c 2
 345 537 l 1
 344 554 l 2
 342 591 333 647 327 662 c 2
 324 668 l 1
364 726 m 1
 368 729 l 2
 370 731 370 732 370 732 c 0
 371 732 378 726 387 718 c 0
 401 705 412 687 422 662 c 0
 426 652 430 640 432 635 c 2
 436 626 l 1
 435 618 434 611 432 603 c 1
 427 598 421 593 416 588 c 1
 410 589 404 589 398 590 c 1
 394 596 392 603 388 609 c 1
 387 619 l 2
 386 632 383 654 381 666 c 0
 378 688 371 714 367 721 c 2
 364 726 l 1
EndSplineSet
Comment: "Kage: aj1-00397+AAoA-Alias: uf018d"
EndChar
StartChar: uF018E
Encoding: 983438 983438 70
Width: 500
VWidth: 0
Flags: MW
LayerCount: 2
Back
Fore
SplineSet
264 633 m 0
 264 632 252 622 252 622 c 0
 252 619 264 454 264 454 c 0
 299 483 l 0
 301 484 303 484 317 479 c 2
 335 473 l 1
 338 467 l 2
 340 464 344 460 347 456 c 0
 350 452 352 449 352 449 c 0
 352 449 268 410 267 409 c 0
 266 408 278 221 279 220 c 0
 280 219 292 229 310 244 c 2
 331 263 l 1
 345 259 360 255 374 251 c 1
 377 246 l 2
 379 243 383 239 386 235 c 0
 390 230 393 226 392 226 c 0
 391 226 366 214 336 200 c 0
 306 186 281 174 281 174 c 0
 299 -99 l 2
 299 -99 253 -138 252 -136 c 0
 251 -130 234 150 233 151 c 0
 233 151 213 141 188 127 c 2
 144 102 l 1
 139 95 l 2
 137 92 133 89 133 89 c 0
 132 89 107 139 108 140 c 0
 108 140 111 141 114 140 c 2
 120 139 l 1
 147 150 176 160 204 171 c 1
 213 177 222 183 231 189 c 1
 231 193 l 2
 231 203 218 385 218 385 c 0
 218 385 201 375 181 365 c 2
 145 347 l 1
 142 343 138 338 135 334 c 1
 121 360 l 2
 114 374 108 386 108 386 c 0
 108 386 112 387 116 386 c 2
 123 384 l 1
 160 399 l 2
 193 411 199 413 207 418 c 0
 213 421 216 424 216 425 c 0
 216 428 200 653 200 654 c 0
 200 654 198 654 226 650 c 2
 251 646 l 1
 257 641 l 2
 260 637 264 633 264 633 c 0
324 668 m 1
 327 671 l 2
 329 673 330 675 330 675 c 0
 330 675 339 666 345 659 c 0
 355 648 365 630 374 610 c 0
 378 600 388 573 391 561 c 2
 393 552 l 1
 391 544 391 537 389 529 c 1
 383 525 380 519 374 515 c 1
 365 516 l 2
 360 517 356 518 356 518 c 0
 356 518 354 522 351 527 c 2
 345 537 l 1
 344 554 l 2
 342 591 333 647 327 662 c 2
 324 668 l 1
364 726 m 1
 368 729 l 2
 370 731 370 732 370 732 c 0
 371 732 378 726 387 718 c 0
 401 705 412 687 422 662 c 0
 426 652 430 640 432 635 c 2
 436 626 l 1
 435 618 434 611 432 603 c 1
 427 598 421 593 416 588 c 1
 410 589 404 589 398 590 c 1
 394 596 392 603 388 609 c 1
 387 619 l 2
 386 632 383 654 381 666 c 0
 378 688 371 714 367 721 c 2
 364 726 l 1
EndSplineSet
Comment: "Kage: aj1-00398+AAoA-Alias: uf018e"
EndChar
StartChar: uF018F
Encoding: 983439 983439 71
Width: 500
VWidth: 0
Flags: MW
LayerCount: 2
Back
Fore
SplineSet
114 -128 m 0
 114 -128 122 -120 132 -110 c 0
 149 -94 150 -92 165 -71 c 0
 179 -52 183 -46 196 -23 c 0
 215 11 231 49 247 96 c 0
 274 176 299 284 315 391 c 0
 321 427 328 483 327 484 c 0
 327 484 254 474 240 472 c 1
 237 472 l 1
 231 450 l 1
 209 373 179 297 153 251 c 0
 144 236 125 204 123 204 c 0
 123 204 122 205 120 207 c 2
 116 210 l 1
 122 225 l 2
 146 287 168 353 184 419 c 0
 196 469 211 547 219 603 c 2
 222 622 l 1
 220 645 l 2
 219 658 218 670 218 672 c 2
 218 676 l 1
 230 669 l 2
 259 654 285 639 285 638 c 0
 285 637 266 590 264 587 c 0
 263 586 261 574 258 560 c 0
 255 546 251 530 250 526 c 0
 249 522 249 518 249 518 c 0
 250 517 313 516 323 517 c 2
 330 518 l 1
 341 529 l 2
 347 536 352 543 353 543 c 0
 354 543 360 537 376 518 c 0
 388 504 399 491 399 491 c 0
 399 491 393 488 387 485 c 2
 375 478 l 1
 371 450 l 2
 365 411 352 346 342 298 c 0
 316 181 286 92 248 16 c 0
 234 -12 231 -16 215 -40 c 0
 197 -66 197 -67 178 -87 c 2
 160 -108 l 1
 139 -123 l 2
 128 -131 118 -137 117 -137 c 0
 116 -137 113 -129 114 -128 c 0
334 704 m 1
 336 706 l 2
 338 707 340 709 340 709 c 0
 342 709 358 692 364 683 c 0
 378 663 392 629 401 597 c 2
 404 588 l 1
 403 580 402 572 400 564 c 1
 395 560 390 554 384 550 c 1
 376 552 l 2
 372 553 369 553 368 553 c 0
 367 553 363 557 360 563 c 2
 356 572 l 1
 355 584 l 2
 354 600 352 608 350 627 c 0
 348 649 339 689 336 697 c 2
 334 704 l 1
375 761 m 0
 375 762 379 769 380 769 c 0
 380 769 391 758 399 751 c 0
 405 744 415 733 421 721 c 0
 427 711 437 687 442 672 c 2
 445 661 l 1
 444 652 l 2
 443 647 442 640 442 639 c 0
 442 638 438 635 434 631 c 2
 427 623 l 1
 421 624 414 625 408 626 c 1
 403 636 l 2
 398 645 397 645 397 649 c 0
 397 661 392 700 388 718 c 0
 384 736 379 753 377 757 c 0
 375 759 375 761 375 761 c 0
EndSplineSet
Comment: "Kage: aj1-00399+AAoA-Alias: uf018f"
EndChar
StartChar: uF0190
Encoding: 983440 983440 72
Width: 500
VWidth: 0
Flags: MW
LayerCount: 2
Back
Fore
SplineSet
93 143 m 0
 93 144 96 152 99 162 c 0
 127 248 146 332 164 434 c 0
 171 476 183 556 187 596 c 2
 188 613 l 1
 186 638 l 2
 184 652 183 663 183 664 c 0
 183 665 184 665 184 665 c 0
 184 665 194 660 207 654 c 0
 240 638 250 633 251 632 c 0
 251 632 247 618 241 604 c 0
 235 590 232 577 232 576 c 0
 232 573 221 513 215 485 c 0
 212 471 207 447 204 432 c 0
 201 417 199 404 199 404 c 0
 199 404 205 403 211 403 c 0
 222 403 223 405 257 412 c 0
 291 419 293 420 316 429 c 0
 329 434 340 437 341 437 c 0
 342 437 350 431 360 424 c 2
 378 410 l 1
 380 404 l 2
 381 401 383 395 385 390 c 0
 387 385 388 381 388 381 c 0
 388 381 368 380 344 378 c 2
 300 374 l 1
 312 369 l 2
 319 367 325 363 325 363 c 0
 326 362 317 331 311 314 c 0
 310 311 309 304 308 297 c 0
 307 291 305 271 303 253 c 0
 289 140 261 41 224 -29 c 0
 214 -47 210 -55 200 -70 c 0
 189 -86 184 -89 172 -102 c 0
 159 -115 158 -117 144 -126 c 0
 136 -132 129 -137 128 -137 c 0
 127 -137 126 -135 125 -133 c 2
 124 -128 l 1
 136 -114 l 2
 200 -45 243 85 259 261 c 0
 261 279 262 305 263 318 c 2
 264 341 l 1
 262 350 261 360 259 369 c 1
 254 367 l 2
 252 367 236 365 220 363 c 0
 196 359 190 358 188 357 c 0
 186 356 185 352 183 344 c 0
 161 267 136 205 109 156 c 2
 99 137 l 1
 96 140 l 2
 94 141 93 142 93 143 c 0
325 644 m 0
 326 645 327 646 328 647 c 0
 330 649 331 650 333 647 c 0
 334 646 337 641 340 638 c 0
 351 627 365 607 375 584 c 0
 380 572 390 544 392 534 c 2
 393 527 l 1
 391 520 391 512 390 504 c 1
 382 497 l 2
 378 493 374 490 373 490 c 0
 372 490 369 490 364 491 c 2
 356 493 l 1
 353 499 348 506 345 512 c 1
 345 520 l 2
 343 561 333 621 327 637 c 0
 325 643 323 643 325 644 c 0
364 700 m 1
 368 704 l 2
 370 707 371 709 372 707 c 0
 372 706 376 702 380 698 c 0
 388 691 398 680 404 672 c 0
 414 658 425 633 432 612 c 2
 436 600 l 1
 435 592 434 585 432 578 c 1
 427 573 421 568 416 563 c 1
 408 564 l 2
 403 565 398 566 398 566 c 0
 396 569 387 585 387 587 c 0
 387 589 387 595 386 602 c 0
 385 618 382 638 379 653 c 0
 376 671 369 691 367 696 c 2
 364 700 l 1
EndSplineSet
Comment: "Kage: aj1-00400+AAoA-Alias: uf0190"
EndChar
StartChar: uF0191
Encoding: 983441 983441 73
Width: 500
VWidth: 0
Flags: MW
LayerCount: 2
Back
Fore
SplineSet
128 78 m 0
 128 78 131 77 134 75 c 2
 140 71 l 1
 190 71 l 2
 235 70 243 71 272 73 c 2
 304 75 l 1
 304 78 l 2
 304 80 331 442 332 451 c 2
 332 456 l 1
 296 453 l 2
 264 451 254 450 209 444 c 2
 158 437 l 1
 152 432 l 2
 149 430 146 429 146 429 c 0
 145 430 134 488 134 488 c 0
 134 488 137 487 140 485 c 2
 146 482 l 1
 195 481 l 2
 242 480 244 481 288 484 c 2
 334 487 l 1
 342 497 350 506 358 515 c 1
 380 488 l 2
 392 474 402 462 402 462 c 0
 402 462 397 459 390 454 c 0
 379 447 376 446 376 444 c 0
 349 20 l 0
 348 19 299 -8 299 -8 c 0
 299 -8 301 33 302 41 c 2
 302 45 l 1
 284 43 l 2
 272 42 244 39 208 34 c 2
 152 26 l 1
 146 22 l 2
 141 19 140 17 140 18 c 0
 139 21 128 78 128 78 c 0
342 679 m 1
 345 683 l 2
 347 685 348 686 348 686 c 0
 349 686 361 673 365 668 c 0
 375 656 384 639 392 620 c 0
 397 608 407 580 409 570 c 2
 411 563 l 1
 410 555 409 548 408 540 c 1
 403 536 397 530 392 526 c 1
 387 527 l 2
 374 529 374 527 368 538 c 2
 364 548 l 1
 363 562 l 2
 361 600 350 658 344 674 c 1
 342 679 l 1
383 737 m 1
 385 740 l 2
 387 742 388 744 388 744 c 0
 388 744 390 743 392 742 c 0
 394 740 397 737 400 734 c 0
 411 724 422 710 431 694 c 0
 436 685 446 660 450 647 c 2
 453 637 l 1
 452 629 451 622 450 614 c 1
 445 609 440 604 435 599 c 1
 427 600 l 2
 423 601 418 602 417 602 c 0
 415 602 406 617 405 621 c 0
 405 622 404 628 404 633 c 0
 402 664 392 717 385 731 c 1
 383 737 l 1
EndSplineSet
Comment: "Kage: aj1-00401+AAoA-Alias: uf0191"
EndChar
StartChar: uF0192
Encoding: 983442 983442 74
Width: 500
VWidth: 0
Flags: MW
LayerCount: 2
Back
Fore
SplineSet
100 404 m 0
 100 405 101 406 106 403 c 2
 112 399 l 1
 130 399 150 400 168 399 c 1
 168 462 168 525 168 588 c 1
 162 615 l 2
 156 640 154 649 156 649 c 0
 156 649 164 641 174 630 c 0
 188 614 194 606 204 598 c 0
 216 588 228 575 228 573 c 0
 228 573 225 568 222 565 c 2
 216 559 l 1
 216 506 216 452 216 399 c 1
 239 401 263 402 286 404 c 1
 286 472 286 539 286 607 c 1
 280 634 l 2
 277 649 273 663 273 665 c 2
 273 669 l 1
 292 647 l 2
 306 630 313 623 322 616 c 0
 332 608 346 593 346 591 c 0
 346 591 343 586 340 583 c 2
 334 577 l 1
 334 522 334 466 334 411 c 1
 340 412 l 2
 344 412 350 416 358 420 c 2
 370 425 l 1
 376 418 l 2
 382 411 384 412 387 403 c 0
 389 398 390 390 392 387 c 2
 395 381 l 1
 375 380 354 378 334 377 c 1
 334 311 l 2
 334 231 333 209 328 171 c 0
 321 112 310 68 292 26 c 0
 263 -42 223 -89 173 -109 c 0
 165 -113 159 -115 159 -115 c 0
 159 -115 156 -108 156 -107 c 0
 156 -107 162 -100 168 -95 c 0
 200 -68 227 -32 246 10 c 0
 267 56 280 112 284 175 c 0
 286 196 285 212 286 287 c 2
 286 374 l 1
 252 371 l 2
 234 370 218 368 217 368 c 0
 216 368 216 337 216 250 c 2
 216 134 l 1
 211 127 l 2
 205 122 197 117 192 117 c 0
 191 117 188 119 185 123 c 0
 180 129 179 132 173 146 c 0
 167 162 167 160 161 190 c 2
 156 219 l 1
 160 229 164 242 168 252 c 1
 168 288 168 324 168 360 c 1
 161 360 l 2
 158 360 149 358 140 356 c 2
 124 354 l 1
 120 351 116 348 112 345 c 1
 111 349 l 2
 108 364 100 403 100 404 c 0
336 668 m 0
 336 669 338 671 340 672 c 2
 342 675 l 1
 348 669 l 2
 362 655 370 643 379 626 c 0
 382 619 386 612 388 609 c 0
 391 600 399 576 402 564 c 2
 405 553 l 1
 404 542 l 2
 403 536 401 530 401 530 c 0
 401 530 398 526 394 522 c 2
 386 516 l 1
 379 517 l 2
 375 518 371 518 370 518 c 0
 368 519 358 536 357 541 c 0
 357 543 357 552 356 560 c 0
 354 593 344 650 339 662 c 0
 338 665 336 667 336 668 c 0
376 726 m 1
 380 730 l 2
 382 733 383 733 384 732 c 0
 402 716 412 706 423 687 c 0
 428 679 439 652 444 638 c 2
 447 627 l 1
 446 619 445 612 444 604 c 1
 438 597 l 2
 428 587 429 588 419 590 c 2
 410 591 l 1
 407 597 403 603 400 609 c 1
 399 621 l 1
 396 660 386 710 379 722 c 1
 376 726 l 1
EndSplineSet
Comment: "Kage: aj1-00402+AAoA-Alias: uf0192"
EndChar
StartChar: uF0193
Encoding: 983443 983443 75
Width: 500
VWidth: 0
Flags: MW
LayerCount: 2
Back
Fore
SplineSet
100 -52 m 0
 100 -52 109 -47 119 -41 c 2
 138 -31 l 1
 148 -20 l 2
 162 -5 188 27 206 51 c 0
 256 119 302 207 340 309 c 0
 354 347 371 398 385 442 c 0
 391 460 396 477 396 477 c 0
 397 478 398 478 401 477 c 2
 404 476 l 1
 396 438 l 2
 378 345 354 262 320 177 c 0
 299 126 268 65 238 18 c 0
 230 5 216 -15 206 -29 c 0
 190 -51 186 -57 180 -69 c 0
 176 -77 170 -88 168 -93 c 2
 163 -102 l 1
 154 -96 l 2
 149 -92 136 -81 123 -71 c 0
 110 -61 100 -52 100 -52 c 0
116 399 m 0
 116 400 119 407 120 407 c 0
 121 407 145 393 149 390 c 0
 162 381 178 362 188 344 c 0
 194 333 206 309 211 297 c 2
 215 289 l 1
 214 276 l 1
 214 265 l 1
 209 260 205 254 200 249 c 1
 191 248 l 1
 182 248 l 1
 176 256 l 2
 170 264 169 264 167 272 c 0
 165 285 157 311 154 322 c 0
 146 347 128 385 120 394 c 0
 118 396 116 399 116 399 c 0
162 607 m 1
 164 610 l 2
 165 612 166 614 167 614 c 0
 169 614 190 599 196 593 c 0
 218 573 238 545 256 503 c 2
 260 493 l 1
 260 485 260 476 260 468 c 1
 255 463 251 457 246 452 c 1
 240 452 234 451 228 451 c 1
 221 459 l 2
 215 466 215 467 214 471 c 0
 212 483 203 512 199 524 c 0
 190 551 173 592 165 602 c 2
 162 607 l 1
324 668 m 1
 327 671 l 2
 329 673 330 675 330 675 c 0
 330 675 339 666 345 659 c 0
 355 648 365 630 374 610 c 0
 378 600 388 573 391 561 c 2
 393 552 l 1
 391 544 391 537 389 529 c 1
 383 525 380 519 374 515 c 1
 365 516 l 2
 360 517 356 518 356 518 c 0
 356 518 354 522 351 527 c 2
 345 537 l 1
 344 554 l 2
 342 591 333 647 327 662 c 2
 324 668 l 1
364 726 m 1
 368 729 l 2
 370 731 370 732 370 732 c 0
 371 732 378 726 387 718 c 0
 401 705 412 687 422 662 c 0
 426 652 430 640 432 635 c 2
 436 626 l 1
 435 618 434 611 432 603 c 1
 427 598 421 593 416 588 c 1
 410 589 404 589 398 590 c 1
 394 596 392 603 388 609 c 1
 387 619 l 2
 386 632 383 654 381 666 c 0
 378 688 371 714 367 721 c 2
 364 726 l 1
EndSplineSet
Comment: "Kage: aj1-00403+AAoA-Alias: uf0193"
EndChar
StartChar: uF0194
Encoding: 983444 983444 76
Width: 500
VWidth: 0
Flags: MW
LayerCount: 2
Back
Fore
SplineSet
88 -97 m 0
 88 -96 93 -87 100 -76 c 0
 138 -17 174 55 202 129 c 0
 238 225 273 349 296 472 c 0
 299 489 301 504 301 504 c 0
 301 505 284 504 230 496 c 2
 174 488 l 1
 170 485 166 482 162 479 c 1
 161 483 l 2
 158 498 150 537 150 538 c 0
 150 539 151 539 156 536 c 2
 162 533 l 1
 212 532 l 2
 250 532 267 532 284 533 c 2
 305 535 l 1
 317 549 l 2
 323 556 330 562 330 562 c 0
 331 562 374 510 374 510 c 0
 374 510 368 507 361 502 c 2
 349 495 l 1
 342 463 l 2
 327 394 303 310 285 253 c 0
 280 240 277 229 277 228 c 0
 277 227 280 223 284 219 c 0
 297 207 314 184 328 161 c 0
 356 116 379 65 401 -4 c 2
 408 -24 l 1
 407 -35 l 2
 406 -41 405 -47 405 -47 c 0
 405 -47 403 -52 399 -56 c 2
 392 -64 l 1
 386 -63 l 2
 372 -63 373 -65 367 -55 c 2
 361 -46 l 1
 356 -28 l 2
 342 33 322 96 298 152 c 0
 289 172 276 202 273 209 c 2
 272 212 l 1
 259 176 l 2
 214 60 166 -25 108 -87 c 2
 92 -104 l 1
 90 -101 l 2
 89 -99 88 -97 88 -97 c 0
338 668 m 1
 341 671 l 2
 344 675 344 676 355 664 c 0
 369 649 378 634 388 611 c 0
 392 601 402 574 405 562 c 2
 408 553 l 1
 406 545 406 538 404 530 c 1
 398 526 394 520 388 516 c 1
 379 517 l 2
 374 518 370 519 370 519 c 0
 370 519 366 523 364 528 c 0
 359 537 360 537 359 545 c 0
 358 561 356 578 354 593 c 0
 351 615 343 656 340 663 c 2
 338 668 l 1
379 727 m 1
 381 730 l 2
 383 732 384 733 384 733 c 0
 384 733 387 732 390 729 c 0
 393 726 397 722 400 719 c 0
 407 713 416 701 423 690 c 0
 429 679 440 654 446 637 c 2
 449 627 l 1
 448 615 l 2
 446 607 445 603 444 602 c 0
 443 601 439 597 436 594 c 2
 431 589 l 1
 425 591 418 590 412 591 c 1
 409 597 405 604 401 610 c 1
 400 620 l 1
 398 659 388 709 381 722 c 2
 379 727 l 1
EndSplineSet
Comment: "Kage: aj1-00404+AAoA-Alias: uf0194"
EndChar
StartChar: uF0195
Encoding: 983445 983445 77
Width: 500
VWidth: 0
Flags: MW
LayerCount: 2
Back
Fore
SplineSet
94 272 m 0
 93 273 94 275 100 274 c 2
 108 273 l 1
 132 284 156 295 180 306 c 1
 180 404 180 502 180 600 c 1
 174 626 l 2
 170 644 168 652 168 656 c 2
 168 661 l 1
 188 639 l 2
 202 622 209 614 217 607 c 0
 223 601 232 594 235 590 c 2
 240 582 l 1
 236 578 232 574 228 570 c 1
 228 451 l 2
 228 385 228 332 228 332 c 0
 229 332 345 393 352 398 c 0
 354 399 354 399 354 404 c 2
 354 409 l 1
 362 418 l 2
 366 423 372 430 374 432 c 2
 378 436 l 1
 400 410 l 2
 412 396 422 383 422 383 c 0
 421 382 395 367 394 366 c 0
 394 366 391 358 387 348 c 0
 366 292 331 212 304 165 c 0
 294 146 280 126 279 126 c 0
 278 126 272 130 272 131 c 0
 272 132 281 156 299 211 c 0
 321 276 329 303 336 329 c 0
 339 340 342 351 343 354 c 0
 344 357 344 360 344 360 c 0
 344 360 318 346 286 329 c 2
 228 298 l 1
 228 178 l 2
 228 52 229 46 232 32 c 0
 234 23 239 9 243 3 c 0
 247 -4 256 -9 268 -12 c 0
 276 -13 278 -13 294 -12 c 0
 312 -11 327 -7 345 -2 c 2
 355 0 l 1
 364 -1 l 2
 369 -2 374 -3 374 -3 c 0
 376 -7 384 -21 384 -22 c 0
 384 -23 383 -28 382 -34 c 2
 380 -45 l 1
 372 -51 l 2
 365 -58 365 -59 355 -62 c 0
 329 -70 324 -71 297 -73 c 0
 269 -75 268 -75 248 -69 c 0
 237 -66 227 -60 217 -53 c 0
 211 -48 201 -37 202 -36 c 0
 202 -35 200 -33 200 -32 c 0
 200 -31 198 -27 196 -22 c 0
 191 -10 186 4 184 14 c 0
 180 34 180 35 180 155 c 0
 180 261 180 267 178 266 c 0
 177 266 167 259 155 251 c 2
 132 238 l 1
 129 233 125 228 122 223 c 1
 108 247 l 2
 101 260 94 271 94 272 c 0
324 648 m 0
 330 654 l 0
 330 654 334 650 339 645 c 0
 354 629 366 612 376 587 c 0
 381 574 390 549 392 539 c 2
 393 532 l 1
 392 524 392 517 390 509 c 1
 385 505 379 499 374 495 c 1
 368 497 362 496 356 497 c 1
 353 503 348 511 345 517 c 1
 344 531 l 2
 342 569 333 626 327 641 c 0
 325 644 324 648 324 648 c 0
364 705 m 1
 368 709 l 2
 370 711 371 712 371 712 c 0
 372 712 384 701 390 695 c 0
 404 680 418 655 430 621 c 2
 436 606 l 1
 435 598 434 591 432 583 c 1
 424 575 l 2
 420 571 417 569 416 569 c 0
 415 569 411 569 406 570 c 2
 398 571 l 1
 395 577 391 583 388 589 c 1
 387 600 l 2
 386 614 382 640 380 653 c 0
 376 674 371 694 368 700 c 2
 364 705 l 1
EndSplineSet
Comment: "Kage: aj1-00405+AAoA-Alias: uf0195"
EndChar
StartChar: uF0196
Encoding: 983446 983446 78
Width: 500
VWidth: 0
Flags: MW
LayerCount: 2
Back
Fore
SplineSet
128 -94 m 0
 128 -94 135 -84 144 -74 c 0
 177 -37 200 3 226 60 c 0
 250 115 272 183 290 258 c 0
 308 333 324 432 334 520 c 1
 339 560 l 1
 336 585 l 2
 334 599 333 611 333 611 c 0
 369 593 l 0
 370 593 368 623 366 635 c 0
 363 659 362 667 358 689 c 0
 355 704 353 714 351 718 c 0
 349 722 348 725 348 725 c 0
 348 725 354 731 355 731 c 0
 355 731 357 728 360 725 c 0
 363 722 367 717 369 715 c 0
 379 705 389 686 398 667 c 0
 402 657 412 632 415 619 c 2
 417 609 l 1
 416 599 l 2
 415 593 413 587 413 586 c 0
 413 584 401 575 400 574 c 0
 399 573 397 564 394 556 c 0
 391 548 387 537 385 532 c 0
 382 524 382 522 379 498 c 0
 377 484 372 448 367 422 c 0
 350 325 330 248 306 175 c 0
 292 135 293 135 277 98 c 0
 267 75 263 65 251 42 c 0
 238 18 234 10 220 -10 c 0
 205 -32 203 -34 187 -52 c 0
 170 -70 169 -74 151 -87 c 0
 141 -95 132 -101 132 -101 c 0
 131 -101 128 -94 128 -94 c 0
128 558 m 0
 127 560 133 564 134 564 c 0
 135 564 137 560 140 555 c 0
 166 519 187 473 205 406 c 0
 211 384 217 358 217 354 c 0
 217 353 217 348 216 342 c 2
 214 331 l 1
 208 327 203 321 198 317 c 1
 190 319 l 2
 185 320 181 321 180 321 c 0
 179 321 177 326 175 331 c 0
 170 340 169 339 168 348 c 0
 165 383 159 423 152 458 c 0
 149 474 130 550 128 558 c 0
389 783 m 1
 392 786 l 2
 394 788 395 789 395 789 c 0
 395 789 397 788 399 786 c 0
 401 784 405 780 408 777 c 0
 416 770 425 758 432 746 c 0
 438 735 450 708 456 692 c 2
 460 683 l 1
 458 673 l 2
 457 668 456 662 456 661 c 0
 455 658 441 643 439 644 c 0
 437 645 426 646 424 647 c 0
 423 647 419 652 416 657 c 2
 412 665 l 1
 410 678 l 2
 407 715 399 764 392 777 c 2
 389 783 l 1
EndSplineSet
Comment: "Kage: aj1-00406+AAoA-Alias: uf0196"
EndChar
StartChar: uF0198
Encoding: 983448 983448 80
Width: 500
VWidth: 0
Flags: MW
LayerCount: 2
Back
Fore
SplineSet
98 310 m 0
 98 310 101 310 104 308 c 2
 111 304 l 1
 142 304 173 304 204 304 c 1
 224 308 l 2
 235 311 246 313 247 313 c 0
 249 313 248 368 247 415 c 2
 246 447 l 1
 243 460 l 2
 240 472 239 473 237 472 c 0
 236 472 232 469 227 467 c 0
 213 460 192 452 180 448 c 0
 164 443 142 438 128 437 c 0
 115 436 116 437 116 443 c 2
 116 447 l 1
 120 449 l 2
 122 450 132 454 140 459 c 0
 205 493 246 524 292 575 c 0
 307 591 308 592 320 618 c 2
 332 642 l 1
 334 639 l 2
 336 637 341 628 347 618 c 0
 353 608 359 602 359 603 c 0
 359 607 349 655 347 659 c 2
 344 664 l 1
 346 666 348 669 350 671 c 1
 354 666 l 2
 356 663 360 661 362 659 c 0
 371 651 386 624 395 604 c 0
 399 594 408 570 411 558 c 2
 413 548 l 1
 412 538 l 2
 411 532 410 527 410 526 c 0
 410 525 406 522 402 518 c 2
 394 511 l 1
 387 513 l 2
 383 514 378 514 377 514 c 0
 376 514 374 517 371 523 c 2
 366 533 l 1
 364 547 l 2
 363 555 363 562 363 562 c 0
 363 562 354 556 344 548 c 0
 334 540 324 532 322 531 c 0
 320 530 310 524 301 516 c 0
 292 508 280 499 274 495 c 2
 263 488 l 1
 284 481 l 2
 295 478 306 474 306 474 c 0
 307 474 304 465 300 450 c 2
 295 425 l 1
 294 380 l 2
 294 355 293 332 293 329 c 2
 292 324 l 1
 295 324 l 2
 297 324 308 329 322 334 c 2
 346 344 l 1
 364 330 l 2
 374 323 383 316 384 315 c 0
 385 314 385 312 386 309 c 0
 387 306 389 300 391 295 c 0
 393 290 395 286 395 286 c 0
 395 286 371 284 343 282 c 2
 292 278 l 1
 292 274 l 2
 292 272 290 252 288 230 c 0
 282 147 273 86 257 29 c 0
 250 4 249 -1 240 -22 c 0
 232 -42 227 -48 217 -66 c 0
 207 -85 205 -89 192 -104 c 0
 181 -118 175 -123 162 -135 c 0
 153 -143 146 -150 146 -150 c 0
 145 -150 141 -144 141 -143 c 0
 141 -143 148 -134 155 -124 c 0
 189 -77 212 -25 226 40 c 0
 237 93 245 158 247 234 c 0
 248 255 248 273 248 274 c 0
 248 276 234 275 176 267 c 2
 123 259 l 1
 116 255 l 2
 113 253 110 251 110 251 c 0
 109 252 98 310 98 310 c 0
385 721 m 0
 385 722 390 729 391 729 c 0
 392 728 405 716 409 711 c 0
 415 704 423 697 429 686 c 0
 435 675 446 650 452 633 c 2
 456 622 l 1
 453 610 l 2
 452 604 452 598 452 598 c 0
 452 598 448 596 444 592 c 2
 436 584 l 1
 430 585 424 586 418 587 c 1
 414 593 411 599 408 605 c 1
 406 619 l 2
 404 655 394 702 388 716 c 0
 386 719 385 721 385 721 c 0
EndSplineSet
Comment: "Kage: aj1-00408+AAoA-Alias: uf0198"
EndChar
StartChar: uF0199
Encoding: 983449 983449 81
Width: 500
VWidth: 0
Flags: MW
LayerCount: 2
Back
Fore
SplineSet
106 527 m 0
 106 528 111 533 112 533 c 0
 112 533 117 529 122 522 c 0
 137 503 145 488 157 458 c 0
 168 430 178 399 184 362 c 1
 186 352 l 1
 184 340 l 2
 183 334 181 329 181 328 c 0
 181 327 177 325 173 322 c 2
 166 315 l 1
 160 317 154 317 148 319 c 1
 145 326 141 331 138 338 c 1
 137 353 l 2
 135 387 131 417 125 448 c 0
 122 467 112 506 108 520 c 0
 107 524 106 526 106 527 c 0
141 -98 m 1
 156 -78 l 2
 206 -12 247 75 282 189 c 0
 310 280 334 390 352 513 c 2
 358 553 l 1
 356 577 l 2
 354 591 353 603 353 603 c 0
 369 596 l 0
 369 596 368 623 367 628 c 0
 363 661 355 707 351 718 c 0
 349 722 348 725 348 725 c 0
 348 725 354 731 355 731 c 0
 355 731 357 728 360 725 c 0
 363 722 367 717 369 715 c 0
 379 705 389 686 398 667 c 0
 402 657 412 632 415 619 c 2
 417 609 l 1
 416 598 l 2
 415 592 413 585 413 585 c 0
 413 585 410 583 408 581 c 2
 404 578 l 1
 413 573 l 2
 418 570 421 568 421 568 c 0
 421 567 404 527 400 517 c 0
 400 516 398 504 396 491 c 0
 390 453 374 379 362 332 c 0
 327 189 283 77 231 -6 c 0
 217 -28 213 -34 198 -52 c 0
 184 -69 178 -75 164 -89 c 0
 154 -98 146 -105 146 -105 c 0
 146 -105 145 -103 144 -101 c 2
 141 -98 l 1
200 600 m 0
 200 600 202 602 204 603 c 2
 206 605 l 1
 216 594 l 2
 239 566 255 531 270 473 c 0
 275 456 280 431 280 427 c 0
 280 426 278 420 277 415 c 2
 276 405 l 1
 268 398 l 2
 264 395 260 392 259 392 c 0
 258 392 255 393 250 394 c 2
 241 396 l 1
 238 402 235 409 232 415 c 1
 231 431 l 1
 229 466 222 505 216 534 c 0
 211 557 206 581 203 591 c 0
 201 595 200 600 200 600 c 0
389 783 m 1
 392 786 l 2
 394 788 395 789 395 789 c 0
 395 789 397 788 399 786 c 0
 401 784 405 780 408 777 c 0
 416 770 425 758 432 746 c 0
 438 735 450 708 456 692 c 2
 460 683 l 1
 458 673 l 2
 457 668 456 662 456 661 c 0
 455 658 441 643 439 644 c 0
 437 645 426 646 424 647 c 0
 423 647 419 652 416 657 c 2
 412 665 l 1
 410 678 l 2
 407 715 399 764 392 777 c 2
 389 783 l 1
EndSplineSet
Comment: "Kage: aj1-00409+AAoA-Alias: uf0199"
EndChar
StartChar: uF019A
Encoding: 983450 983450 82
Width: 500
VWidth: 0
Flags: MW
LayerCount: 2
Back
Fore
SplineSet
98 385 m 0
 98 385 101 385 104 383 c 2
 111 379 l 1
 144 379 175 378 208 378 c 1
 240 385 272 393 304 400 c 1
 326 409 l 2
 339 414 350 418 351 418 c 0
 353 418 359 414 372 405 c 2
 390 391 l 1
 392 384 l 2
 393 380 395 374 397 370 c 0
 399 366 400 363 400 362 c 0
 400 361 371 358 313 354 c 2
 226 348 l 1
 192 344 156 338 122 334 c 1
 116 330 l 2
 113 328 110 326 110 326 c 0
 109 326 97 384 98 385 c 0
229 344 m 2
 241 339 l 0
 241 339 241 340 241 341 c 2
 241 344 l 1
 265 345 l 2
 279 346 289 346 289 346 c 0
 289 346 289 340 289 332 c 0
 289 324 289 317 289 317 c 0
 290 317 289 301 288 297 c 0
 287 295 286 278 284 262 c 0
 275 167 253 75 221 1 c 0
 209 -27 192 -59 178 -81 c 0
 168 -98 137 -140 135 -140 c 0
 134 -140 134 -139 132 -137 c 2
 128 -133 l 1
 140 -113 l 1
 193 -13 224 92 236 209 c 0
 239 236 240 276 240 294 c 0
 240 304 241 304 236 320 c 0
 234 329 231 338 230 340 c 0
 229 342 229 344 229 344 c 2
146 604 m 0
 146 604 150 602 153 600 c 2
 159 598 l 1
 176 598 192 597 209 597 c 1
 238 604 l 2
 267 610 267 610 285 618 c 0
 295 623 304 627 305 627 c 0
 306 627 313 621 321 615 c 2
 336 602 l 1
 337 596 l 2
 338 593 341 588 343 583 c 0
 345 578 346 574 346 573 c 0
 346 572 334 571 311 569 c 0
 281 567 269 566 224 560 c 2
 172 553 l 1
 165 548 l 2
 162 546 158 545 158 545 c 0
 157 546 145 604 146 604 c 0
348 710 m 1
 350 712 352 714 354 716 c 1
 362 708 l 2
 381 688 395 662 408 624 c 0
 410 616 415 607 416 602 c 2
 417 593 l 1
 416 586 415 577 414 570 c 1
 408 566 404 560 398 556 c 1
 391 558 l 2
 387 559 383 559 382 559 c 0
 381 559 378 563 375 569 c 2
 370 578 l 1
 368 598 l 2
 367 609 366 626 364 636 c 0
 361 660 354 695 351 703 c 2
 348 710 l 1
389 767 m 0
 389 768 393 775 394 775 c 0
 395 775 410 761 415 756 c 0
 421 750 430 736 436 725 c 0
 441 716 452 692 456 678 c 2
 460 668 l 1
 457 656 l 2
 456 650 456 643 456 643 c 0
 456 643 452 641 448 637 c 2
 440 629 l 1
 434 630 428 631 422 633 c 1
 416 642 l 2
 411 650 411 650 411 654 c 0
 411 660 409 680 407 695 c 0
 404 719 396 755 392 763 c 0
 390 765 389 767 389 767 c 0
EndSplineSet
Comment: "Kage: aj1-00410+AAoA-Alias: uf019a"
EndChar
StartChar: uF019B
Encoding: 983451 983451 83
Width: 500
VWidth: 0
Flags: MW
LayerCount: 2
Back
Fore
SplineSet
177 708 m 0
 177 710 178 712 178 712 c 0
 178 712 186 701 196 690 c 0
 210 674 217 666 225 659 c 0
 235 651 250 635 250 633 c 0
 250 633 247 630 244 627 c 2
 238 620 l 1
 239 482 l 1
 239 343 l 1
 248 341 l 2
 269 334 291 318 312 293 c 0
 327 275 340 253 352 231 c 0
 358 220 357 223 359 204 c 2
 360 198 l 1
 353 189 l 2
 347 179 348 179 336 177 c 2
 329 177 l 1
 324 182 320 185 315 190 c 1
 310 202 l 2
 295 244 274 283 251 310 c 2
 239 324 l 1
 239 109 l 1
 238 -105 l 1
 232 -111 l 2
 227 -115 225 -117 220 -119 c 2
 214 -123 l 1
 208 -115 l 2
 202 -108 202 -107 196 -94 c 0
 190 -80 190 -79 184 -49 c 2
 177 -19 l 1
 181 -9 186 3 190 13 c 1
 190 225 190 439 190 651 c 1
 184 677 l 2
 181 692 177 706 177 708 c 0
292 616 m 1
 295 618 l 2
 297 619 297 621 298 621 c 0
 300 621 316 605 322 595 c 0
 328 585 336 571 342 557 c 0
 346 547 356 521 359 509 c 2
 361 501 l 1
 359 493 358 485 357 477 c 1
 352 473 347 466 342 462 c 1
 333 464 l 2
 328 465 324 466 324 466 c 0
 324 466 321 471 319 476 c 0
 314 485 314 484 313 492 c 0
 312 508 310 526 308 543 c 0
 305 565 298 602 295 610 c 2
 292 616 l 1
332 674 m 1
 336 677 l 2
 338 679 338 681 338 681 c 0
 338 681 341 679 344 676 c 0
 347 673 351 669 353 667 c 0
 363 658 371 647 380 632 c 0
 385 623 395 599 400 585 c 2
 404 574 l 1
 403 566 402 558 400 550 c 1
 393 544 l 2
 389 541 386 536 385 536 c 0
 384 536 380 536 375 537 c 2
 366 538 l 1
 360 548 l 2
 356 556 355 556 355 560 c 0
 352 598 348 624 341 652 c 0
 339 658 338 665 336 668 c 2
 332 674 l 1
EndSplineSet
Comment: "Kage: aj1-00411+AAoA-Alias: uf019b"
EndChar
StartChar: uF019C
Encoding: 983452 983452 84
Width: 500
VWidth: 0
Flags: MW
LayerCount: 2
Back
Fore
SplineSet
76 22 m 0
 76 22 80 31 84 41 c 0
 115 128 140 217 156 293 c 0
 166 341 178 400 183 434 c 2
 185 453 l 1
 184 481 l 2
 183 496 182 508 182 508 c 0
 183 508 247 473 248 472 c 0
 249 471 229 423 229 422 c 0
 227 418 224 404 220 386 c 0
 198 289 179 224 150 149 c 0
 133 106 113 65 94 34 c 0
 88 26 84 17 84 17 c 0
 83 16 76 21 76 22 c 0
283 475 m 1
 285 477 286 480 288 482 c 1
 297 472 l 2
 314 454 330 426 344 397 c 0
 371 337 396 257 415 158 c 2
 420 134 l 1
 418 122 l 2
 417 116 416 111 416 111 c 0
 416 111 412 107 408 103 c 2
 400 97 l 1
 394 99 388 98 382 100 c 1
 379 106 375 112 372 118 c 1
 368 142 l 2
 361 196 350 256 338 307 c 0
 325 360 311 405 290 456 c 2
 283 475 l 1
330 628 m 1
 332 630 334 633 336 635 c 1
 338 633 l 2
 339 632 344 627 348 623 c 0
 368 602 383 567 396 522 c 1
 400 512 l 1
 398 502 l 2
 397 496 396 491 396 490 c 0
 396 489 392 486 388 482 c 2
 380 475 l 1
 376 476 l 2
 374 477 368 476 366 477 c 2
 362 479 l 1
 359 485 355 491 352 497 c 1
 350 517 l 2
 349 528 348 545 346 555 c 0
 343 578 335 614 332 622 c 2
 330 628 l 1
371 685 m 0
 371 686 375 693 376 693 c 0
 377 693 395 676 400 670 c 0
 414 654 428 627 438 595 c 2
 441 586 l 1
 440 574 l 2
 439 568 437 562 437 562 c 0
 437 562 434 559 430 555 c 2
 423 548 l 1
 417 549 410 549 404 551 c 1
 400 557 397 563 393 569 c 1
 392 582 l 2
 390 610 386 639 379 665 c 0
 377 672 374 679 373 681 c 0
 371 683 371 685 371 685 c 0
EndSplineSet
Comment: "Kage: aj1-00412+AAoA-Alias: uf019c"
EndChar
StartChar: uF019D
Encoding: 983453 983453 85
Width: 500
VWidth: 0
Flags: MW
LayerCount: 2
Back
Fore
SplineSet
76 22 m 0
 76 22 80 31 84 41 c 0
 115 128 140 217 156 293 c 0
 166 341 178 400 183 434 c 2
 185 453 l 1
 184 480 l 2
 183 495 182 508 182 508 c 0
 183 508 247 473 248 472 c 0
 249 471 229 423 229 422 c 0
 227 418 224 404 220 386 c 0
 198 289 179 224 150 149 c 0
 133 106 113 65 94 34 c 0
 88 26 84 17 84 17 c 0
 83 16 76 21 76 22 c 0
283 475 m 1
 285 477 286 480 288 482 c 1
 297 472 l 2
 314 454 330 426 344 397 c 0
 371 337 396 257 415 158 c 2
 420 134 l 1
 418 122 l 2
 417 116 416 111 416 111 c 0
 416 111 412 107 408 103 c 2
 400 97 l 1
 394 99 388 98 382 100 c 1
 379 106 375 112 372 118 c 1
 368 142 l 2
 361 196 350 256 338 307 c 0
 325 360 311 405 290 456 c 2
 283 475 l 1
337 524 m 0
 331 554 331 585 337 615 c 0
 343 647 361 671 380 676 c 0
 388 679 387 677 394 677 c 0
 400 676 408 672 414 666 c 0
 431 650 440 618 440 577 c 0
 440 560 439 550 436 535 c 0
 430 506 421 487 404 476 c 0
 377 457 347 478 337 524 c 0
362 573 m 4
 362 549 382 500 390 500 c 4
 394 500 402 521 410 539 c 4
 418 563 418 589 410 613 c 4
 402 637 394 650 390 646 c 4
 378 638 362 595 362 573 c 4
EndSplineSet
Comment: "Kage: aj1-00413+AAoA-Alias: uf019d"
EndChar
StartChar: uF019E
Encoding: 983454 983454 86
Width: 500
VWidth: 0
Flags: MW
LayerCount: 2
Back
Fore
SplineSet
132 635 m 0
 132 637 132 638 132 638 c 0
 132 638 140 629 150 618 c 0
 164 602 169 594 180 585 c 0
 187 579 197 570 200 566 c 2
 205 561 l 1
 201 557 196 551 192 547 c 1
 192 419 l 2
 192 348 192 290 192 290 c 0
 194 290 236 331 251 347 c 0
 273 372 279 380 300 407 c 2
 321 434 l 1
 328 452 335 467 342 485 c 1
 356 466 l 2
 389 423 391 422 390 421 c 0
 387 418 345 379 340 376 c 0
 337 374 330 367 324 361 c 0
 285 321 247 292 205 271 c 2
 192 265 l 1
 192 164 l 2
 192 60 193 52 196 39 c 0
 199 24 206 8 211 5 c 0
 216 2 221 1 228 -1 c 0
 240 -4 247 -4 273 -2 c 0
 299 0 308 1 337 8 c 2
 352 11 l 1
 358 9 364 8 370 6 c 1
 375 -2 l 2
 377 -7 380 -12 380 -13 c 0
 380 -14 379 -19 378 -25 c 2
 376 -35 l 1
 370 -39 366 -45 360 -49 c 1
 344 -52 l 2
 306 -61 275 -67 255 -66 c 0
 221 -65 203 -60 184 -47 c 0
 178 -42 165 -31 166 -30 c 0
 166 -30 165 -28 164 -26 c 0
 163 -24 163 -23 163 -22 c 0
 163 -21 161 -17 159 -13 c 0
 155 -4 150 12 148 20 c 0
 147 23 146 31 145 37 c 0
 143 48 144 54 144 313 c 2
 144 578 l 1
 137 604 l 2
 134 619 132 633 132 635 c 0
328 668 m 1
 331 672 l 2
 333 674 334 675 334 675 c 0
 334 675 337 672 340 669 c 0
 343 666 347 662 349 659 c 0
 359 648 372 628 380 608 c 0
 385 596 394 569 396 559 c 2
 397 552 l 1
 396 544 395 537 393 529 c 1
 388 525 383 519 378 515 c 1
 369 516 l 2
 364 517 360 519 360 519 c 0
 360 519 357 522 355 527 c 2
 350 537 l 1
 348 555 l 2
 347 565 346 581 344 591 c 0
 341 614 333 656 330 663 c 2
 328 668 l 1
368 726 m 1
 371 729 l 2
 373 731 374 733 374 733 c 0
 374 733 376 732 378 730 c 0
 380 728 383 726 386 723 c 0
 398 713 410 696 418 680 c 0
 423 670 432 649 436 637 c 2
 440 626 l 1
 439 618 437 611 436 603 c 1
 429 596 l 2
 425 593 422 589 421 589 c 0
 420 589 417 588 412 589 c 2
 402 591 l 1
 397 599 l 2
 391 609 391 609 390 624 c 0
 388 656 379 708 372 721 c 2
 368 726 l 1
EndSplineSet
Comment: "Kage: aj1-00414+AAoA-Alias: uf019e"
EndChar
StartChar: uF019F
Encoding: 983455 983455 87
Width: 500
VWidth: 0
Flags: MW
LayerCount: 2
Back
Fore
SplineSet
132 635 m 0
 132 637 132 638 132 638 c 0
 132 638 140 629 150 618 c 0
 164 602 169 594 180 585 c 0
 187 579 197 570 200 566 c 2
 205 561 l 1
 201 557 196 551 192 547 c 1
 192 418 l 2
 192 347 192 290 192 290 c 0
 194 290 236 331 251 347 c 0
 273 372 279 380 300 407 c 2
 321 434 l 1
 328 452 335 467 342 485 c 1
 356 466 l 2
 389 423 391 421 390 420 c 0
 387 417 345 379 340 376 c 0
 337 374 330 367 324 361 c 0
 285 321 247 292 205 271 c 2
 192 265 l 1
 192 164 l 2
 192 60 193 52 196 39 c 0
 199 24 206 8 211 5 c 0
 216 2 221 1 228 -1 c 0
 240 -4 247 -4 273 -2 c 0
 299 0 308 1 337 8 c 2
 352 11 l 1
 358 9 364 8 370 6 c 1
 375 -2 l 2
 377 -7 380 -12 380 -13 c 0
 380 -14 379 -19 378 -25 c 2
 376 -35 l 1
 370 -39 366 -45 360 -49 c 1
 344 -52 l 2
 306 -61 275 -67 255 -66 c 0
 221 -65 203 -60 184 -47 c 0
 178 -42 165 -31 166 -30 c 0
 166 -30 165 -28 164 -26 c 0
 163 -24 163 -23 163 -22 c 0
 163 -21 161 -17 159 -13 c 0
 155 -4 150 12 148 20 c 0
 147 23 146 31 145 37 c 0
 143 48 144 54 144 313 c 2
 144 578 l 1
 137 604 l 2
 134 619 132 633 132 635 c 0
332 595 m 0
 331 616 332 634 335 651 c 0
 337 659 339 667 340 670 c 0
 348 695 362 712 378 716 c 0
 385 719 385 717 392 717 c 0
 401 717 412 708 420 697 c 0
 442 667 446 594 428 549 c 0
 424 539 422 536 416 529 c 0
 408 517 401 513 391 510 c 0
 359 502 334 538 332 595 c 0
374 549 m 2
 378 539 l 1
 386 546 l 1
 406 573 414 626 398 660 c 0
 394 670 390 682 386 684 c 0
 382 688 382 689 374 679 c 0
 350 642 350 586 374 549 c 2
EndSplineSet
Comment: "Kage: aj1-00415+AAoA-Alias: uf019f"
EndChar
StartChar: uF01A0
Encoding: 983456 983456 88
Width: 500
VWidth: 0
Flags: MW
LayerCount: 2
Back
Fore
SplineSet
120 532 m 0
 120 532 123 531 126 529 c 2
 132 526 l 1
 181 525 l 2
 231 524 232 524 284 528 c 2
 336 532 l 1
 348 546 l 2
 354 553 360 560 360 560 c 0
 360 560 371 547 383 533 c 0
 402 510 406 507 404 506 c 0
 403 505 381 493 380 492 c 0
 380 491 378 476 376 457 c 0
 366 382 346 292 328 224 c 0
 294 101 250 6 196 -62 c 0
 182 -79 178 -84 163 -98 c 0
 153 -107 145 -115 144 -115 c 0
 143 -115 142 -114 141 -112 c 2
 139 -108 l 1
 155 -87 l 1
 215 -7 260 101 292 239 c 0
 306 301 322 397 329 465 c 0
 331 482 333 497 333 499 c 2
 333 502 l 1
 296 499 l 2
 262 497 253 497 201 489 c 2
 144 481 l 1
 138 476 l 2
 135 474 132 473 132 473 c 0
 132 473 120 531 120 532 c 0
344 709 m 1
 346 711 348 714 350 716 c 1
 359 708 l 2
 364 703 369 696 371 693 c 0
 387 672 401 640 411 603 c 1
 413 593 l 1
 412 583 l 2
 411 577 410 572 410 571 c 0
 410 570 406 567 402 563 c 2
 394 556 l 1
 387 558 l 2
 383 559 379 559 378 559 c 0
 377 559 374 562 371 568 c 2
 366 578 l 1
 364 597 l 2
 363 607 361 623 360 632 c 0
 358 653 349 697 347 704 c 2
 344 709 l 1
385 766 m 0
 385 766 386 769 388 771 c 0
 390 774 391 776 392 774 c 0
 392 773 395 770 400 766 c 0
 413 755 422 742 431 727 c 0
 437 716 448 688 454 671 c 1
 456 667 l 1
 453 655 l 2
 452 649 452 643 452 643 c 0
 452 643 448 641 444 637 c 2
 436 629 l 1
 430 630 424 631 418 632 c 1
 414 638 412 644 408 650 c 1
 406 664 l 2
 404 700 395 747 388 761 c 0
 386 764 385 766 385 766 c 0
EndSplineSet
Comment: "Kage: aj1-00416+AAoA-Alias: uf01a0"
EndChar
StartChar: uF01A1
Encoding: 983457 983457 89
Width: 500
VWidth: 0
Flags: MW
LayerCount: 2
Back
Fore
SplineSet
120 532 m 0
 120 532 123 531 126 529 c 2
 132 526 l 1
 181 525 l 2
 231 524 232 524 284 528 c 2
 336 532 l 1
 348 546 l 2
 354 553 360 560 360 560 c 0
 360 560 371 547 383 533 c 0
 402 510 406 507 404 506 c 0
 403 505 381 493 380 492 c 0
 380 491 378 476 376 457 c 0
 366 382 346 292 328 224 c 0
 294 101 250 6 196 -62 c 0
 182 -79 178 -84 163 -98 c 0
 153 -107 145 -115 144 -115 c 0
 143 -115 142 -114 141 -112 c 2
 139 -108 l 1
 155 -87 l 1
 215 -7 260 101 292 239 c 0
 306 301 322 397 329 465 c 0
 331 482 333 497 333 499 c 2
 333 502 l 1
 296 499 l 2
 262 497 253 497 201 489 c 2
 144 481 l 1
 138 476 l 2
 135 474 132 473 132 473 c 0
 132 473 120 531 120 532 c 0
348 630 m 0
 346 650 347 673 351 694 c 0
 357 728 374 752 394 757 c 0
 402 760 400 758 408 758 c 0
 422 757 438 742 446 720 c 0
 449 712 453 691 454 679 c 0
 455 668 455 647 454 636 c 0
 450 590 431 557 407 551 c 0
 377 544 354 575 348 630 c 0
375 654 m 4
 375 630 395 581 403 581 c 4
 411 581 427 632 427 656 c 4
 427 674 423 697 411 715 c 4
 407 721 399 727 399 727 c 4
 391 727 375 678 375 654 c 4
EndSplineSet
Comment: "Kage: aj1-00417+AAoA-Alias: uf01a1"
EndChar
StartChar: uF01A2
Encoding: 983458 983458 90
Width: 500
VWidth: 0
Flags: MW
LayerCount: 2
Back
Fore
SplineSet
50 190 m 0
 50 191 57 200 63 209 c 2
 75 227 l 1
 90 270 l 2
 99 294 111 328 118 349 c 0
 158 463 165 477 192 497 c 0
 196 500 199 502 200 502 c 0
 200 502 204 500 210 497 c 2
 220 492 l 1
 230 481 l 2
 250 457 269 419 305 339 c 0
 308 331 324 294 340 256 c 0
 356 218 379 163 392 134 c 2
 414 79 l 1
 414 71 415 65 415 57 c 1
 411 51 408 45 404 39 c 1
 394 37 l 1
 385 35 l 1
 382 38 l 2
 370 49 371 45 356 83 c 0
 339 124 317 187 301 227 c 1
 278 288 l 1
 247 369 238 391 223 424 c 0
 215 441 203 462 199 467 c 0
 197 470 193 471 194 468 c 0
 194 467 194 461 192 456 c 0
 187 440 175 401 168 374 c 0
 162 352 139 268 131 242 c 2
 128 231 l 1
 127 209 l 2
 126 196 125 185 125 185 c 0
 125 185 115 186 102 187 c 0
 89 188 72 189 64 189 c 0
 55 189 50 189 50 190 c 0
288 576 m 1
 291 578 l 2
 293 579 294 581 294 581 c 0
 296 581 313 563 319 554 c 0
 325 544 329 538 336 523 c 0
 341 512 351 484 355 468 c 2
 357 461 l 1
 355 453 355 444 354 436 c 1
 349 432 344 426 338 422 c 1
 331 424 l 2
 327 425 322 425 321 425 c 0
 320 425 318 429 315 435 c 0
 310 444 310 445 309 452 c 0
 308 469 306 486 304 503 c 0
 301 526 294 561 291 569 c 2
 288 576 l 1
329 634 m 0
 329 635 333 641 334 641 c 0
 335 641 351 626 356 620 c 0
 362 613 369 605 375 593 c 0
 380 584 391 557 396 543 c 2
 400 533 l 1
 398 523 l 2
 397 518 396 512 396 511 c 0
 396 509 387 500 381 496 c 0
 380 495 377 495 371 496 c 2
 362 498 l 1
 356 507 l 2
 351 515 351 516 351 520 c 0
 349 545 346 569 343 586 c 0
 339 607 335 623 332 628 c 0
 330 631 329 634 329 634 c 0
EndSplineSet
Comment: "Kage: aj1-00418+AAoA-Alias: uf01a2"
EndChar
StartChar: uF01A3
Encoding: 983459 983459 91
Width: 500
VWidth: 0
Flags: MW
LayerCount: 2
Back
Fore
SplineSet
50 190 m 0
 50 191 57 200 63 209 c 2
 75 227 l 1
 90 270 l 2
 99 294 111 328 118 349 c 0
 158 463 165 477 192 497 c 0
 196 500 199 502 200 502 c 0
 200 502 204 500 210 497 c 2
 220 492 l 1
 230 481 l 2
 250 457 269 419 305 339 c 0
 308 331 324 294 340 256 c 0
 356 218 379 163 392 134 c 2
 414 79 l 1
 414 71 415 65 415 57 c 1
 411 51 408 45 404 39 c 1
 394 37 l 1
 385 35 l 1
 382 38 l 2
 370 49 371 45 356 83 c 0
 339 124 317 187 301 227 c 1
 278 288 l 1
 247 369 238 391 223 424 c 0
 215 441 203 462 199 467 c 0
 197 470 193 471 194 468 c 0
 194 467 194 461 192 456 c 0
 187 440 175 401 168 374 c 0
 162 352 139 268 131 242 c 2
 128 231 l 1
 127 209 l 2
 126 196 125 185 125 185 c 0
 125 185 115 186 102 187 c 0
 89 188 72 189 64 189 c 0
 55 189 50 189 50 190 c 0
292 503 m 0
 290 538 295 570 306 593 c 0
 312 606 326 620 336 623 c 0
 338 623 343 625 348 625 c 0
 355 626 356 625 361 622 c 0
 373 616 384 604 390 585 c 0
 393 577 397 557 398 546 c 0
 399 540 398 529 398 517 c 0
 398 498 397 496 395 483 c 0
 390 460 383 443 372 431 c 0
 351 409 325 411 307 440 c 0
 299 452 294 478 292 503 c 0
319 519 m 4
 319 493 331 460 343 450 c 4
 347 446 347 446 351 456 c 4
 367 480 371 498 371 526 c 4
 367 550 363 574 351 588 c 6
 347 594 l 5
 339 587 l 6
 327 575 319 545 319 519 c 4
EndSplineSet
Comment: "Kage: aj1-00419+AAoA-Alias: uf01a3"
EndChar
StartChar: uF01A4
Encoding: 983460 983460 92
Width: 500
VWidth: 0
Flags: MW
LayerCount: 2
Back
Fore
SplineSet
89 22 m 1
 91 30 90 37 92 45 c 1
 98 53 l 2
 120 90 140 141 170 245 c 0
 176 263 180 282 181 285 c 0
 183 292 183 291 188 290 c 1
 191 290 l 1
 190 285 l 2
 190 283 189 274 189 266 c 0
 187 238 186 212 180 177 c 0
 171 120 154 59 137 22 c 2
 132 12 l 1
 127 8 123 3 117 -1 c 1
 108 1 l 2
 103 2 100 3 99 3 c 0
 98 3 95 8 93 13 c 2
 89 22 l 1
98 430 m 0
 98 430 101 429 104 427 c 2
 112 424 l 1
 159 424 l 2
 205 424 207 424 216 426 c 0
 221 427 225 428 225 428 c 0
 225 428 226 476 226 535 c 2
 226 643 l 1
 220 670 l 2
 217 685 213 698 213 700 c 2
 213 704 l 1
 232 683 l 2
 246 666 253 658 263 650 c 0
 270 645 278 637 281 633 c 2
 287 626 l 1
 283 622 278 617 274 613 c 1
 274 526 l 2
 274 457 275 439 276 439 c 0
 277 439 281 440 288 442 c 0
 297 444 308 448 326 454 c 2
 350 464 l 1
 363 455 375 445 388 436 c 1
 390 428 l 2
 392 424 394 417 396 413 c 0
 398 409 399 406 399 406 c 0
 399 406 370 403 336 401 c 2
 274 397 l 1
 274 235 274 75 274 -87 c 1
 269 -97 l 2
 265 -105 263 -107 257 -112 c 0
 253 -115 249 -119 249 -119 c 0
 249 -119 227 -103 201 -85 c 2
 154 -52 l 1
 154 -46 l 2
 154 -41 154 -41 156 -41 c 0
 158 -42 224 -54 225 -54 c 0
 225 -54 226 47 226 170 c 2
 226 394 l 1
 222 393 l 2
 220 393 197 389 171 385 c 2
 124 379 l 1
 117 375 l 2
 113 373 110 371 110 371 c 0
 109 372 98 430 98 430 c 0
296 285 m 1
 299 288 l 2
 301 289 301 292 302 292 c 0
 303 292 318 274 324 264 c 0
 336 247 349 222 362 192 c 0
 376 158 387 125 400 77 c 2
 407 49 l 1
 406 41 405 34 404 26 c 1
 399 20 l 2
 396 17 393 14 391 13 c 2
 388 11 l 1
 382 12 376 12 370 13 c 1
 364 23 l 2
 360 30 358 33 358 36 c 0
 356 49 349 93 344 117 c 0
 334 163 324 198 306 253 c 2
 296 285 l 1
324 668 m 1
 327 671 l 2
 329 673 330 675 330 675 c 0
 330 675 339 666 345 659 c 0
 355 648 365 630 374 610 c 0
 378 600 388 573 391 561 c 2
 393 552 l 1
 391 544 391 537 389 529 c 1
 383 525 380 519 374 515 c 1
 365 516 l 2
 360 517 356 518 356 518 c 0
 356 518 354 522 351 527 c 2
 345 537 l 1
 344 554 l 2
 342 591 333 647 327 662 c 2
 324 668 l 1
364 726 m 1
 368 729 l 2
 370 731 370 732 370 732 c 0
 371 732 378 726 387 718 c 0
 401 705 412 687 422 662 c 0
 426 652 430 640 432 635 c 2
 436 626 l 1
 435 618 434 611 432 603 c 1
 427 598 421 593 416 588 c 1
 410 589 404 589 398 590 c 1
 394 596 392 603 388 609 c 1
 387 619 l 2
 386 632 383 654 381 666 c 0
 378 688 371 714 367 721 c 2
 364 726 l 1
EndSplineSet
Comment: "Kage: aj1-00420+AAoA-Alias: uf01a4"
EndChar
StartChar: uF01A5
Encoding: 983461 983461 93
Width: 500
VWidth: 0
Flags: MW
LayerCount: 2
Back
Fore
SplineSet
89 22 m 1
 91 30 90 37 92 45 c 1
 98 53 l 2
 120 90 140 141 170 245 c 0
 176 263 180 282 181 285 c 0
 183 292 183 291 188 290 c 1
 191 289 l 1
 190 285 l 2
 190 283 189 274 189 266 c 0
 187 238 186 212 180 177 c 0
 171 120 154 59 137 22 c 2
 132 12 l 1
 127 8 123 3 117 -1 c 1
 108 0 l 2
 103 1 100 2 99 2 c 0
 98 2 95 8 93 13 c 2
 89 22 l 1
98 430 m 0
 98 430 101 429 104 427 c 2
 112 423 l 1
 159 424 l 2
 205 424 207 424 216 426 c 0
 221 427 225 427 225 427 c 0
 225 427 226 476 226 535 c 2
 226 643 l 1
 220 670 l 2
 217 685 213 698 213 700 c 2
 213 704 l 1
 232 683 l 2
 246 666 253 658 263 650 c 0
 270 645 278 636 281 632 c 2
 287 626 l 1
 283 622 278 617 274 613 c 1
 274 526 l 2
 274 457 275 439 276 439 c 0
 277 439 281 440 288 442 c 0
 297 444 308 448 326 454 c 2
 350 463 l 1
 363 454 375 445 388 436 c 1
 390 428 l 2
 392 424 394 417 396 413 c 0
 398 409 399 406 399 406 c 0
 399 406 370 403 336 401 c 2
 274 397 l 1
 274 235 274 74 274 -88 c 1
 269 -98 l 2
 265 -106 263 -108 257 -113 c 0
 253 -116 249 -119 249 -119 c 0
 249 -119 227 -103 201 -85 c 2
 154 -52 l 1
 154 -46 l 2
 154 -41 154 -41 156 -41 c 0
 158 -42 224 -54 225 -54 c 0
 225 -54 226 47 226 170 c 2
 226 393 l 1
 222 393 l 2
 220 393 197 389 171 385 c 2
 124 379 l 1
 117 375 l 2
 113 373 110 371 110 371 c 0
 109 372 98 430 98 430 c 0
296 285 m 1
 299 288 l 2
 301 289 301 292 302 292 c 0
 303 292 318 274 324 264 c 0
 336 247 349 222 362 192 c 0
 376 158 387 124 400 76 c 2
 407 49 l 1
 406 41 405 34 404 26 c 1
 399 20 l 2
 396 17 393 14 391 13 c 2
 388 11 l 1
 382 12 376 12 370 13 c 1
 364 22 l 2
 360 29 358 33 358 36 c 0
 356 49 349 93 344 117 c 0
 334 163 324 198 306 253 c 2
 296 285 l 1
338 543 m 0
 320 586 323 658 345 692 c 0
 353 705 364 713 374 716 c 0
 382 718 381 717 388 717 c 0
 395 717 405 710 412 702 c 0
 422 691 427 679 431 658 c 0
 437 623 434 579 424 550 c 0
 415 527 402 514 387 510 c 0
 373 507 361 510 349 524 c 0
 343 531 342 533 338 543 c 0
363 657 m 0
 351 623 355 577 375 548 c 1
 379 538 l 1
 387 544 l 2
 407 569 411 622 399 654 c 0
 395 664 391 676 387 680 c 2
 379 688 l 1
 375 682 l 2
 371 680 367 667 363 657 c 0
EndSplineSet
Comment: "Kage: aj1-00421+AAoA-Alias: uf01a5"
EndChar
StartChar: uF0204
Encoding: 983556 983556 94
Width: 500
VWidth: 0
Flags: MW
LayerCount: 2
Back
Fore
SplineSet
112 179 m 1xf4
 112 187 114 195 114 203 c 1
 120 221 l 2
 140 278 156 333 174 406 c 0
 180 430 185 452 185 453 c 0
 185 455 185 455 175 456 c 0
 165 457 164 458 155 464 c 0
 146 470 146 469 140 480 c 0
 134 490 134 492 131 505 c 2
 127 519 l 1
 127 531 127 542 127 554 c 1
 130 555 l 1
 136 557 135 558 141 542 c 0
 154 509 164 497 180 500 c 0
 186 501 194 505 195 506 c 0
 196 507 210 575 217 617 c 2
 224 652 l 1
 223 675 l 2
 222 688 221 700 221 702 c 0
 221 704 221 705 221 705 c 0
 222 705 285 670 287 668 c 0
 289 667 287 666 277 642 c 0
 271 629 267 616 267 615 c 0
 267 614 254 543 253 541 c 0
 253 540 260 546 270 553 c 2
 287 564 l 1
 296 565 l 1
 306 567 l 1
 311 562 314 557 319 552 c 1
 320 541 l 2
 320 535 320 529 320 528 c 0
 320 527 316 523 313 519 c 2
 307 510 l 1
 279 494 l 2
 264 485 249 477 246 475 c 0
 243 474 239 471 239 470 c 0
 239 469 237 462 235 455 c 0
 230 433 221 392 215 370 c 0
 212 358 210 347 210 347 c 0
 210 347 212 350 215 353 c 2
 221 359 l 1
 232 361 l 2
 244 363 242 363 255 354 c 0
 261 349 262 349 267 339 c 0
 270 333 272 328 272 327 c 0xf4
 274 323 280 297 282 287 c 0
 283 281 283 275 283 275 c 0
 283 275 323 315 337 330 c 0
 355 349 356 349 366 374 c 0
 372 386 376 397 376 397 c 0
 377 398 390 378 411 348 c 0
 420 336 424 332 423 331 c 0
 422 330 412 322 399 311 c 0
 382 297 374 290 367 285 c 0
 361 282 353 276 347 272 c 0
 335 261 308 238 296 227 c 2
 287 219 l 1
 288 206 l 2
 289 177 290 139 291 104 c 2
 291 67 l 1
 287 58 l 2
 285 53 284 46 283 46 c 0
 281 45 269 36 267 36 c 0
 265 36 251 43 250 44 c 0
 249 45 248 50 246 55 c 2
 242 65 l 1
 243 96 l 2
 243 113 243 137 243 151 c 2xf8
 244 176 l 1
 239 171 l 2
 232 163 211 134 201 118 c 0
 196 110 190 99 188 94 c 2
 184 85 l 1
 183 67 l 2
 181 51 182 48 183 29 c 2
 183 8 l 1
 188 -5 l 2
 192 -18 193 -17 199 -26 c 0
 205 -34 207 -36 214 -40 c 0
 220 -44 225 -46 233 -47 c 0
 242 -49 244 -49 256 -48 c 0
 281 -46 302 -40 323 -26 c 0
 332 -19 332 -20 341 -18 c 2
 351 -16 l 1
 356 -21 360 -24 365 -29 c 1
 366 -35 l 2
 366 -39 366 -41 368 -43 c 0
 370 -45 370 -45 370 -56 c 2
 370 -68 l 1
 366 -73 361 -81 357 -86 c 1
 343 -92 l 2
 325 -101 306 -106 283 -109 c 0
 268 -111 266 -111 251 -109 c 0
 235 -107 233 -106 219 -101 c 0
 205 -95 205 -95 192 -85 c 2
 180 -74 l 1
 174 -63 167 -53 161 -42 c 1
 159 -28 156 -14 154 0 c 1
 156 27 l 2
 158 41 159 54 160 56 c 0
 161 58 161 62 161 65 c 0
 161 69 162 75 167 92 c 0
 173 114 173 115 182 136 c 0
 195 164 209 188 230 213 c 2
 243 231 l 1
 243 243 l 2
 243 277 240 313 234 325 c 0
 232 330 227 333 220 332 c 2
 215 332 l 1
 211 327 l 2
 209 325 206 318 203 312 c 0
 197 302 196 299 190 278 c 0
 180 247 174 226 165 200 c 2
 158 179 l 1
 153 174 149 169 144 164 c 1
 138 164 131 162 125 162 c 1
 121 168 116 173 112 179 c 1xf4
EndSplineSet
Comment: "Kage: aj1-00516+AAoA-Alias: uf0204"
EndChar
StartChar: uF0205
Encoding: 983557 983557 95
Width: 500
VWidth: 0
Flags: MW
LayerCount: 2
Back
Fore
SplineSet
331 77 m 0
 331 78 334 79 334 79 c 0
 334 79 333 81 332 84 c 0
 330 89 330 91 330 117 c 0
 329 164 325 187 312 207 c 0
 306 216 307 218 302 193 c 0
 289 129 269 52 255 15 c 0
 250 3 249 2 250 -1 c 0
 250 -3 251 -9 251 -15 c 2
 252 -26 l 1
 248 -32 244 -39 240 -45 c 1
 236 -45 l 2
 234 -45 230 -47 228 -47 c 0
 225 -48 223 -48 220 -53 c 0
 214 -63 201 -77 190 -86 c 2
 180 -94 l 1
 171 -95 l 2
 165 -95 161 -94 160 -93 c 0
 159 -92 159 -92 158 -92 c 0
 157 -92 152 -92 148 -90 c 0
 141 -88 141 -88 139 -84 c 0
 138 -82 136 -77 135 -74 c 0
 133 -67 131 -43 132 -31 c 2
 133 -23 l 1
 130 -17 l 2
 126 -10 121 1 119 10 c 0
 117 16 117 17 119 22 c 0
 121 26 120 27 119 31 c 0
 118 34 118 35 120 48 c 0
 126 88 138 127 156 155 c 0
 163 168 177 188 183 193 c 2
 187 198 l 1
 187 210 l 2
 189 248 191 294 193 315 c 2
 194 320 l 1
 191 321 l 2
 181 322 171 328 164 337 c 0
 155 348 150 368 150 393 c 0
 150 400 149 409 149 413 c 0
 148 420 149 421 154 421 c 2
 156 421 l 1
 158 416 l 2
 160 401 172 378 181 375 c 0
 185 373 189 374 192 377 c 0
 194 378 195 380 196 380 c 0
 198 381 198 381 200 405 c 0
 201 415 203 437 205 452 c 2
 208 480 l 1
 205 504 l 2
 203 517 202 529 202 530 c 0
 202 532 203 532 205 531 c 0
 216 526 270 499 271 498 c 0
 271 498 268 487 263 474 c 2
 254 450 l 1
 252 430 l 2
 251 419 250 409 250 408 c 0
 250 406 250 407 256 411 c 0
 263 417 273 425 280 434 c 0
 283 438 287 442 293 445 c 2
 302 450 l 1
 310 446 l 2
 315 444 319 443 320 442 c 0
 321 441 322 436 324 431 c 2
 327 421 l 1
 323 410 l 2
 319 398 319 396 306 383 c 0
 293 369 269 350 252 341 c 0
 248 339 244 337 244 337 c 0
 243 336 237 255 237 242 c 0
 237 238 238 238 240 239 c 0
 241 239 246 242 252 245 c 2
 264 251 l 1
 266 259 266 266 268 274 c 1
 266 300 l 2
 265 314 264 327 264 327 c 0
 265 328 332 291 332 290 c 0
 317 254 l 0
 317 254 320 252 322 251 c 0
 329 249 342 236 350 224 c 0
 363 205 374 175 380 140 c 0
 382 124 383 122 382 118 c 0
 381 115 381 114 382 114 c 0
 384 113 384 76 382 60 c 0
 380 42 378 29 374 13 c 0
 370 -5 362 -28 360 -31 c 0
 359 -32 356 -39 354 -44 c 0
 344 -65 329 -87 316 -99 c 0
 302 -113 287 -123 274 -128 c 0
 266 -131 255 -133 243 -134 c 2
 234 -135 l 1
 233 -131 l 2
 233 -129 233 -126 233 -126 c 0
 233 -126 237 -124 241 -122 c 0
 260 -112 281 -91 294 -69 c 0
 303 -52 312 -33 316 -17 c 0
 321 1 326 19 330 39 c 0
 332 50 333 51 332 63 c 0
 332 70 331 77 331 77 c 0
156 -30 m 0
 156 -31 158 -32 160 -34 c 2
 163 -38 l 1
 166 -35 l 1
 175 -28 189 -11 195 2 c 2
 196 5 l 1
 194 16 l 2
 191 32 188 68 187 95 c 0
 186 108 186 122 186 125 c 2
 185 130 l 1
 184 127 l 2
 182 122 175 102 173 91 c 0
 170 77 168 60 167 44 c 0
 166 37 166 31 165 30 c 0
 164 29 164 27 165 25 c 0
 166 23 165 19 161 3 c 0
 156 -19 155 -28 156 -30 c 0
236 120 m 1
 236 126 l 2
 239 136 250 182 254 203 c 0
 256 215 259 226 259 227 c 0
 259 228 259 227 256 227 c 0
 251 227 250 228 243 219 c 2
 236 212 l 1
 236 203 l 2
 236 198 236 177 236 157 c 2
 236 120 l 1
EndSplineSet
Comment: "Kage: aj1-00517+AAoA-Alias: uf0205"
EndChar
StartChar: uF0206
Encoding: 983558 983558 96
Width: 500
VWidth: 0
Flags: MW
LayerCount: 2
Back
Fore
SplineSet
131 185 m 0
 131 245 133 306 138 364 c 2
 140 385 l 1
 136 410 l 2
 134 424 133 435 133 436 c 0
 133 437 133 438 133 438 c 0
 134 438 201 407 202 406 c 0
 202 406 200 394 195 382 c 0
 185 355 187 361 184 310 c 0
 178 208 179 98 187 41 c 2
 189 23 l 1
 194 47 l 2
 201 83 211 123 222 166 c 0
 228 187 233 205 233 206 c 0
 234 207 234 207 237 206 c 2
 241 206 l 1
 241 202 l 2
 241 200 241 190 240 181 c 0
 239 165 237 147 230 71 c 0
 228 52 226 26 225 16 c 0
 223 -6 224 -35 225 -36 c 0
 226 -37 226 -40 224 -46 c 0
 223 -51 222 -58 222 -60 c 0
 222 -64 222 -65 216 -73 c 2
 210 -83 l 1
 202 -85 l 2
 197 -86 193 -87 192 -87 c 0
 191 -87 186 -82 179 -77 c 2
 166 -68 l 1
 159 -52 l 2
 153 -37 151 -35 147 -17 c 0
 141 8 137 35 134 77 c 0
 132 114 131 136 131 185 c 0
295 356 m 0
 295 357 300 365 300 365 c 0
 300 365 303 364 308 361 c 0
 352 338 383 255 390 132 c 2
 391 112 l 1
 388 101 l 2
 386 95 384 89 384 89 c 0
 384 89 383 87 382 85 c 0
 381 82 380 82 373 77 c 0
 368 74 365 71 364 71 c 0
 363 71 360 72 355 74 c 2
 347 78 l 1
 345 85 341 90 339 97 c 1
 338 132 l 2
 336 207 332 244 320 292 c 0
 315 310 307 333 299 348 c 0
 297 352 295 356 295 356 c 0
EndSplineSet
Comment: "Kage: aj1-00518+AAoA-Alias: uf0206"
EndChar
StartChar: uF0207
Encoding: 983559 983559 97
Width: 500
VWidth: 0
Flags: MW
LayerCount: 2
Back
Fore
SplineSet
192 176 m 0
 197 160 l 0
 197 160 183 165 166 172 c 0
 149 179 132 183 130 184 c 0
 128 185 126 187 126 187 c 0
 126 187 133 189 140 191 c 0
 158 196 156 196 152 200 c 2
 149 203 l 1
 156 212 l 2
 159 216 167 228 173 237 c 0
 197 272 223 296 245 309 c 0
 251 312 255 315 255 316 c 0
 255 317 259 319 268 324 c 0
 280 330 284 332 290 332 c 0
 309 334 311 335 324 331 c 0
 336 328 336 326 346 319 c 0
 355 312 357 310 364 300 c 0
 370 291 372 287 376 277 c 0
 385 255 390 226 392 193 c 0
 393 178 393 141 392 138 c 0
 392 137 391 129 390 121 c 0
 386 85 374 38 360 4 c 0
 335 -53 294 -98 241 -128 c 0
 227 -136 192 -152 191 -151 c 0
 191 -151 190 -148 189 -146 c 2
 188 -142 l 1
 204 -129 l 2
 213 -121 225 -109 231 -103 c 0
 293 -41 325 20 336 102 c 0
 338 113 339 126 339 130 c 0
 339 134 339 146 340 156 c 0
 342 177 341 212 339 231 c 0
 336 265 326 286 310 297 c 0
 304 301 302 303 294 304 c 0
 288 306 283 306 281 306 c 0
 278 306 264 294 254 284 c 0
 246 276 233 259 225 246 c 0
 223 242 217 232 214 225 c 0
 207 210 192 178 192 176 c 0
201 498 m 1
 204 501 l 2
 205 503 206 505 207 505 c 0
 208 505 210 504 213 501 c 0
 219 496 243 484 256 480 c 0
 274 473 291 470 306 470 c 2
 317 470 l 1
 324 466 l 2
 328 463 332 460 332 460 c 0
 332 460 334 454 335 448 c 2
 337 438 l 1
 333 429 l 2
 327 417 329 417 319 413 c 2
 310 410 l 1
 304 411 l 2
 284 418 262 430 244 446 c 0
 238 452 222 469 216 477 c 0
 214 481 210 486 207 490 c 2
 201 498 l 1
EndSplineSet
Comment: "Kage: aj1-00519+AAoA-Alias: uf0207"
EndChar
StartChar: uF0208
Encoding: 983560 983560 98
Width: 500
VWidth: 0
Flags: MW
LayerCount: 2
Back
Fore
SplineSet
107 -113 m 1
 108 -105 109 -97 110 -89 c 1
 116 -72 l 1
 169 53 211 147 257 241 c 0
 263 252 267 261 267 261 c 0
 267 261 257 255 246 247 c 0
 224 232 201 217 187 209 c 2
 180 204 l 1
 177 195 l 2
 175 190 174 185 174 185 c 0
 174 185 171 188 169 192 c 0
 167 196 159 215 151 232 c 0
 142 249 135 265 135 265 c 0
 135 265 142 262 149 258 c 2
 162 250 l 1
 162 254 l 1
 161 258 l 1
 169 259 l 2
 180 261 189 263 205 267 c 0
 222 271 250 281 252 282 c 0
 258 285 271 298 279 309 c 0
 285 315 290 322 293 324 c 0
 299 328 299 328 309 328 c 2
 316 328 l 1
 323 321 l 2
 327 316 329 313 331 309 c 2
 335 303 l 1
 334 295 334 287 333 279 c 1
 330 276 l 2
 328 274 327 272 327 271 c 0
 327 270 320 256 311 237 c 0
 289 192 252 116 247 104 c 1
 247 101 l 1
 253 102 257 104 263 105 c 1
 270 101 l 2
 284 96 294 86 300 64 c 0
 302 59 302 52 303 48 c 0
 304 44 304 39 305 37 c 0
 306 35 306 23 307 11 c 0
 310 -51 311 -52 321 -54 c 0
 329 -56 356 -54 374 -51 c 2
 388 -48 l 1
 397 -51 l 2
 402 -53 406 -54 406 -54 c 0
 406 -54 409 -59 411 -64 c 2
 415 -73 l 1
 413 -80 412 -89 410 -96 c 1
 404 -100 400 -105 394 -109 c 1
 383 -111 l 2
 377 -112 363 -113 353 -115 c 0
 335 -117 333 -117 321 -116 c 0
 309 -115 308 -115 299 -111 c 0
 290 -107 289 -106 282 -98 c 0
 275 -90 274 -89 270 -78 c 0
 264 -62 262 -52 260 -17 c 0
 259 -2 259 15 258 19 c 0
 257 23 257 29 257 31 c 0
 257 33 256 41 256 48 c 0
 255 58 256 61 255 62 c 0
 253 64 246 63 240 60 c 0
 235 58 234 56 229 51 c 0
 221 41 211 23 203 3 c 0
 185 -39 170 -71 167 -79 c 0
 151 -116 154 -113 146 -122 c 2
 139 -130 l 1
 131 -130 l 2
 127 -130 122 -129 121 -129 c 0
 120 -129 117 -126 114 -121 c 2
 107 -113 l 1
199 498 m 0
 199 502 199 502 202 503 c 0
 204 503 206 504 206 504 c 0
 206 504 207 500 209 495 c 0
 216 473 234 451 250 443 c 0
 261 438 275 436 289 438 c 2
 299 438 l 1
 305 435 310 434 316 431 c 1
 318 424 321 417 323 410 c 1
 321 404 l 2
 320 401 319 397 318 394 c 0
 316 389 316 389 303 381 c 2
 299 377 l 1
 290 379 l 2
 252 383 226 403 212 436 c 0
 206 452 204 462 199 498 c 0
EndSplineSet
Comment: "Kage: aj1-00520+AAoA-Alias: uf0208"
EndChar
StartChar: uF0209
Encoding: 983561 983561 99
Width: 500
VWidth: 0
Flags: MW
LayerCount: 2
Back
Fore
SplineSet
348 -76 m 0xdc
 347 -76 339 -73 338 -73 c 0
 338 -73 338 -74 338 -76 c 0
 338 -78 337 -79 337 -79 c 0
 337 -79 334 -79 330 -78 c 0
 312 -73 298 -62 286 -44 c 0
 280 -35 272 -15 269 -1 c 0
 267 6 260 46 260 48 c 0
 260 49 265 52 267 52 c 0
 268 52 268 48 270 43 c 0
 272 38 276 32 278 28 c 0
 297 -5 312 -19 330 -20 c 0
 335 -20 336 -19 338 -17 c 0
 340 -16 344 -13 347 -11 c 0
 353 -8 354 -6 360 1 c 0
 374 20 379 48 380 83 c 0
 380 99 380 101 378 116 c 0
 376 130 376 134 372 146 c 0
 368 158 367 162 362 171 c 0
 356 181 354 182 347 188 c 0
 341 194 338 194 332 196 c 2
 325 198 l 1
 318 196 l 2
 308 191 294 179 282 167 c 0
 272 156 254 133 244 117 c 2
 238 108 l 1
 238 33 l 2
 238 -28 237 -43 238 -56 c 0
 241 -94 240 -112 232 -127 c 0
 230 -131 229 -131 221 -136 c 2
 212 -142 l 1
 204 -138 l 2
 200 -136 196 -135 195 -134 c 0
 194 -133 193 -128 191 -124 c 0
 189 -120 189 -117 189 -117 c 0
 189 -117 187 -118 186 -118 c 0
 184 -119 185 -119 184 -113 c 0
 183 -103 178 -85 170 -68 c 0
 166 -59 163 -49 162 -48 c 0
 161 -47 158 -45 153 -43 c 0
 131 -34 97 -19 96 -18 c 0
 95 -17 100 -15 118 -7 c 0
 121 -6 122 -5 121 -4 c 0
 120 -2 120 -4 129 10 c 0
 141 28 164 65 177 85 c 2
 189 103 l 1
 189 158 189 213 189 268 c 1
 186 268 l 2
 184 268 177 267 170 266 c 2
 158 264 l 1
 148 268 l 2
 138 271 138 272 131 279 c 2
 124 287 l 1
 122 295 119 303 117 311 c 1
 117 321 118 330 118 340 c 1
 120 340 123 341 125 341 c 1
 130 330 l 2
 135 318 140 311 146 308 c 0
 154 305 170 308 187 319 c 1
 189 320 l 1
 189 365 189 410 189 455 c 1xdc
 183 483 l 2
 180 498 177 512 177 514 c 0
 177 516 178 517 178 517 c 0
 178 517 185 507 195 496 c 0
 209 479 216 472 226 464 c 0
 238 453 250 442 250 440 c 0xec
 250 439 246 435 243 432 c 2
 238 426 l 1
 238 393 l 2
 238 375 238 360 238 360 c 0
 238 360 242 362 245 365 c 0
 251 370 251 370 260 373 c 2
 270 376 l 1
 277 370 l 2
 281 366 284 364 284 364 c 0
 284 364 285 358 286 352 c 2
 287 340 l 1
 283 334 280 327 276 321 c 1
 263 312 251 303 238 294 c 1
 238 251 238 207 238 164 c 1
 246 173 l 2
 251 178 262 187 268 192 c 0
 279 201 281 201 294 206 c 0
 301 210 308 211 309 211 c 0
 310 211 343 221 344 221 c 0
 345 221 353 218 361 215 c 2
 375 209 l 1
 383 200 390 189 398 180 c 1
 406 162 l 2
 413 144 414 143 418 123 c 2
 422 102 l 1
 423 87 423 71 424 56 c 1
 422 42 421 27 419 13 c 1
 415 1 410 -13 406 -25 c 1
 395 -41 l 2
 389 -49 383 -57 382 -58 c 0
 380 -60 350 -76 348 -76 c 0xdc
167 -23 m 0
 168 -23 172 -27 177 -31 c 0
 192 -44 191 -43 190 -41 c 0
 189 -40 187 -30 185 -19 c 0
 183 -8 181 2 181 2 c 0
 181 2 177 -1 175 -6 c 0
 173 -11 170 -17 169 -19 c 0
 167 -22 166 -23 167 -23 c 0
335 420 m 0
 335 422 336 424 336 425 c 0
 336 427 336 427 349 427 c 0
 370 426 383 420 399 404 c 0
 412 391 423 373 434 347 c 2
 438 338 l 1
 437 330 438 323 437 315 c 1
 433 310 428 304 424 299 c 1
 415 299 l 2
 410 299 406 300 405 300 c 0
 404 300 401 304 398 308 c 0
 392 316 392 315 390 326 c 0
 386 344 382 359 377 370 c 0
 367 392 352 410 340 415 c 0
 335 417 334 417 335 420 c 0
EndSplineSet
Comment: "Kage: aj1-00521+AAoA-Alias: uf0209"
EndChar
StartChar: uF020A
Encoding: 983562 983562 100
Width: 500
VWidth: 0
Flags: MW
LayerCount: 2
Back
Fore
SplineSet
83 152 m 0
 83 152 89 154 96 156 c 0
 103 158 110 159 110 160 c 0
 110 161 113 164 118 168 c 0
 129 179 144 195 157 211 c 0
 163 217 171 226 174 230 c 2
 179 237 l 1
 174 258 l 2
 164 293 159 316 157 333 c 0
 155 348 155 349 157 362 c 2
 158 375 l 1
 164 386 l 2
 167 392 171 398 171 398 c 0
 171 398 173 398 175 397 c 0
 179 395 178 397 180 380 c 0
 182 363 185 353 188 341 c 0
 191 329 210 276 211 274 c 0
 211 273 213 274 214 275 c 0
 215 276 222 282 229 290 c 0
 259 320 282 337 311 350 c 0
 320 354 328 356 330 356 c 0
 332 356 335 359 337 360 c 0
 341 362 343 362 353 364 c 2
 365 365 l 1
 375 362 l 2
 385 360 385 358 393 352 c 0
 399 346 402 343 407 335 c 0
 414 324 421 311 424 295 c 0
 427 281 429 257 429 243 c 0
 429 231 428 207 427 206 c 0
 427 206 424 200 422 194 c 0
 418 181 409 167 399 153 c 0
 389 140 379 132 366 125 c 0
 358 120 356 120 346 118 c 0
 336 116 335 118 325 120 c 0
 315 122 314 123 306 128 c 0
 298 133 295 135 288 144 c 0
 282 151 277 160 272 169 c 0
 268 177 265 184 265 184 c 0
 265 184 266 186 268 187 c 2
 271 189 l 1
 280 178 l 2
 288 168 290 165 298 160 c 0
 310 152 318 149 328 151 c 0
 352 155 372 180 378 213 c 0
 379 217 380 222 380 222 c 0
 381 223 383 236 384 246 c 0
 386 259 385 286 383 296 c 0
 378 320 368 332 351 337 c 0
 347 338 342 339 339 339 c 0
 334 339 334 338 320 328 c 0
 298 311 273 288 251 261 c 0
 239 247 227 231 227 229 c 0
 227 228 228 226 229 223 c 0
 230 220 234 204 239 187 c 0
 261 115 281 27 297 -65 c 2
 307 -119 l 1
 305 -130 l 2
 303 -142 303 -143 291 -154 c 2
 283 -160 l 1
 277 -158 271 -158 265 -156 c 1
 263 -153 l 1
 255 -139 256 -143 247 -83 c 0
 234 0 215 98 200 159 c 0
 197 171 195 182 195 183 c 0
 195 184 188 176 172 155 c 2
 151 127 l 1
 149 114 l 2
 147 106 146 102 145 102 c 0
 144 102 137 109 127 116 c 0
 117 124 103 136 96 141 c 0
 89 146 83 152 83 152 c 0
251 497 m 0
 251 513 251 514 253 514 c 0
 254 514 255 514 257 514 c 2
 259 514 l 1
 261 505 l 2
 264 488 280 447 289 432 c 0
 295 422 304 413 310 409 c 0
 314 406 314 405 317 396 c 0
 319 391 321 386 321 385 c 0
 321 384 320 379 318 373 c 2
 315 363 l 1
 307 357 l 2
 303 354 299 352 298 352 c 0
 297 352 294 353 289 355 c 2
 280 358 l 1
 276 364 l 2
 271 372 266 387 263 397 c 0
 255 423 252 448 251 497 c 0
EndSplineSet
Comment: "Kage: aj1-00522+AAoA-Alias: uf020a"
EndChar
StartChar: uF020B
Encoding: 983563 983563 101
Width: 500
VWidth: 0
Flags: MW
LayerCount: 2
Back
Fore
SplineSet
120 104 m 0
 119 145 122 243 128 324 c 0
 131 378 132 374 127 401 c 0
 125 414 122 425 122 426 c 2
 122 428 l 1
 126 426 l 2
 137 421 192 398 192 398 c 0
 192 398 189 387 185 374 c 2
 178 351 l 1
 177 334 l 2
 176 318 173 245 172 229 c 2
 171 219 l 1
 176 232 l 2
 178 239 184 254 189 264 c 0
 196 281 199 286 209 301 c 0
 220 319 219 318 233 331 c 0
 240 338 246 344 247 344 c 0
 248 344 249 343 251 341 c 2
 253 338 l 1
 247 325 l 2
 221 263 214 248 204 212 c 0
 189 156 178 85 178 43 c 0
 178 35 178 28 177 26 c 0
 176 24 176 18 176 8 c 2
 176 -8 l 1
 172 -13 168 -21 164 -26 c 1
 158 -26 150 -27 144 -27 c 1
 140 -22 136 -17 132 -12 c 1
 128 1 l 2
 122 24 121 50 120 104 c 0
193 -158 m 0
 192 -158 190 -148 190 -148 c 0
 189 -147 193 -141 199 -130 c 0
 219 -95 232 -64 240 -25 c 2
 244 -5 l 1
 242 -4 l 2
 241 -3 237 4 232 11 c 2
 223 23 l 1
 216 43 l 2
 209 62 208 62 204 86 c 0
 200 112 200 107 198 168 c 1
 198 175 l 1
 200 175 204 175 206 175 c 1
 211 146 l 2
 216 119 218 116 224 95 c 0
 230 75 232 71 239 58 c 0
 243 50 247 43 248 42 c 2
 250 40 l 1
 250 43 l 2
 252 53 255 116 256 142 c 0
 258 204 256 341 254 347 c 0
 253 349 253 350 254 350 c 0
 255 350 255 366 253 420 c 2
 252 465 l 1
 248 477 l 2
 246 483 244 494 242 501 c 0
 240 510 239 514 240 514 c 0
 241 514 247 511 256 509 c 0
 288 499 295 498 297 498 c 0
 299 498 300 498 300 497 c 0
 300 496 309 493 311 493 c 0
 312 493 312 493 312 492 c 0
 312 491 309 480 306 468 c 2
 300 446 l 1
 301 410 l 1
 301 373 l 1
 303 373 l 2
 304 373 310 371 316 368 c 0
 327 363 327 363 337 353 c 0
 346 344 348 342 355 329 c 0
 375 292 384 245 385 185 c 0
 385 156 383 127 380 121 c 0
 378 118 379 117 380 117 c 0
 381 117 380 117 380 116 c 0
 380 115 377 104 373 91 c 0
 367 68 366 65 357 46 c 2
 348 26 l 1
 340 16 332 6 324 -4 c 1
 315 -10 307 -14 298 -20 c 1
 292 -20 285 -19 279 -19 c 1
 278 -23 l 2
 277 -25 277 -28 277 -28 c 0
 277 -28 274 -40 270 -53 c 0
 263 -76 262 -78 253 -96 c 0
 244 -114 243 -114 232 -127 c 2
 221 -141 l 1
 208 -150 l 2
 201 -155 193 -158 193 -158 c 0
288 31 m 0
 288 31 291 32 293 34 c 0
 297 37 299 41 304 49 c 0
 314 65 321 83 327 109 c 0
 333 134 329 125 332 151 c 0
 334 172 336 187 336 213 c 0
 336 258 327 300 312 322 c 0
 309 327 306 331 304 332 c 2
 300 334 l 1
 300 297 l 2
 300 216 297 116 291 60 c 0
 289 44 288 31 288 31 c 0
EndSplineSet
Comment: "Kage: aj1-00523+AAoA-Alias: uf020b"
EndChar
StartChar: uF020C
Encoding: 983564 983564 102
Width: 500
VWidth: 0
Flags: MW
LayerCount: 2
Back
Fore
SplineSet
109 -19 m 1xa0
 116 6 l 2
 120 19 124 30 124 30 c 0
 124 30 126 35 128 39 c 2
 130 46 l 1
 138 54 147 59 155 67 c 1
 165 71 175 75 185 79 c 1
 201 80 l 2
 215 81 219 81 230 79 c 0
 237 78 243 77 243 77 c 0
 243 77 243 96 242 117 c 0
 240 178 240 241 239 361 c 2
 239 472 l 1
 232 496 l 2
 229 509 227 520 227 521 c 0
 227 522 226 522 227 522 c 0
 228 522 244 517 264 510 c 2
 300 498 l 1
 296 483 291 466 287 451 c 1
 287 404 288 358 288 311 c 1
 293 312 l 2
 304 316 334 336 364 360 c 2
 379 371 l 1
 385 371 392 373 398 373 c 1
 404 367 l 2
 408 363 412 359 412 358 c 0
 412 357 412 352 412 346 c 2
 413 336 l 1
 409 330 404 324 400 318 c 1
 389 312 l 2
 342 288 309 278 292 288 c 2
 288 291 l 1xc0
 288 260 l 2
 290 163 292 72 293 66 c 0
 293 64 296 62 310 56 c 0
 344 41 382 16 408 -9 c 0
 423 -24 422 -23 427 -40 c 2
 428 -45 l 1
 426 -52 423 -59 421 -66 c 1
 415 -69 410 -72 404 -75 c 1
 395 -72 l 2
 387 -69 386 -68 376 -56 c 0
 370 -49 359 -39 352 -33 c 0
 338 -21 312 -3 301 3 c 0
 295 7 295 6 295 4 c 0
 295 3 293 -7 292 -17 c 2
 290 -35 l 1
 284 -49 277 -64 271 -79 c 1
 261 -90 253 -99 243 -110 c 1
 233 -115 221 -121 211 -126 c 1
 200 -127 187 -127 176 -128 c 1
 166 -125 157 -121 147 -118 c 1
 139 -111 131 -103 123 -96 c 1
 118 -84 114 -73 109 -61 c 1
 109 -47 109 -33 109 -19 c 1xa0
122 -20 m 1
 124 -31 125 -42 127 -53 c 1
 132 -61 135 -66 140 -74 c 1
 149 -79 l 2
 158 -84 159 -86 169 -87 c 2
 180 -88 l 1
 192 -85 l 2
 203 -82 203 -83 213 -76 c 0
 223 -69 224 -69 231 -58 c 0
 238 -48 238 -47 242 -35 c 0
 246 -23 246 -21 247 -12 c 0
 248 1 248 15 247 22 c 2xa0
 246 28 l 1
 230 32 l 2
 218 35 211 37 201 37 c 0
 171 39 155 33 136 17 c 2
 128 11 l 1
 126 1 124 -10 122 -20 c 1
EndSplineSet
Comment: "Kage: aj1-00524+AAoA-Alias: uf020c"
EndChar
StartChar: uF020D
Encoding: 983565 983565 103
Width: 500
VWidth: 0
Flags: MW
LayerCount: 2
Back
Fore
SplineSet
95 213 m 0
 96 213 99 215 105 217 c 0
 123 223 122 223 120 225 c 0
 118 227 118 228 132 245 c 0
 140 255 149 267 153 271 c 0
 183 309 208 334 229 344 c 0
 235 347 238 348 246 357 c 2
 255 366 l 1
 265 370 l 2
 271 372 277 374 277 374 c 0
 279 375 281 375 292 375 c 0
 302 375 305 374 315 370 c 0
 325 366 326 364 335 356 c 0
 346 346 346 346 355 331 c 0
 365 315 371 296 377 270 c 0
 380 253 381 249 383 228 c 0
 385 207 385 202 384 179 c 0
 383 165 383 153 383 152 c 0
 383 151 381 142 379 130 c 0
 366 60 339 6 300 -30 c 0
 278 -51 254 -61 228 -64 c 0
 218 -65 215 -65 204 -64 c 2
 192 -62 l 1
 192 -59 192 -56 192 -53 c 1
 202 -48 l 1
 254 -23 283 5 304 49 c 0
 317 76 325 107 329 142 c 0
 331 152 332 161 332 161 c 0
 332 161 332 164 332 167 c 0
 332 170 333 179 334 187 c 0
 334 195 334 208 334 218 c 0
 332 284 314 328 285 337 c 0
 275 340 270 340 264 338 c 0
 254 333 238 317 224 299 c 0
 210 281 201 266 180 231 c 0
 163 203 163 201 163 198 c 0
 164 188 165 179 164 179 c 0
 163 179 135 192 103 208 c 0
 97 211 94 213 95 213 c 0
EndSplineSet
Comment: "Kage: aj1-00525+AAoA-Alias: uf020d"
EndChar
StartChar: uF020E
Encoding: 983566 983566 104
Width: 500
VWidth: 0
Flags: MW
LayerCount: 2
Back
Fore
SplineSet
358 418 m 0xd8
 358 417 339 371 339 370 c 0
 339 370 343 368 349 365 c 0
 358 361 361 358 369 351 c 0
 388 332 403 304 413 265 c 0
 419 240 425 210 425 193 c 0
 426 152 423 118 417 84 c 0
 412 59 400 19 396 13 c 0
 395 11 391 5 388 -2 c 0
 378 -25 363 -47 348 -64 c 0
 320 -95 290 -112 255 -114 c 2
 245 -114 l 1
 244 -110 l 2
 244 -108 244 -105 244 -105 c 0
 244 -105 247 -103 252 -101 c 0
 274 -88 300 -68 313 -50 c 0
 323 -35 333 -18 341 0 c 0
 346 12 354 35 354 38 c 0
 354 39 357 47 359 55 c 0
 365 72 368 84 370 95 c 0
 372 102 371 106 371 128 c 0
 371 153 372 153 374 154 c 2
 375 155 l 1
 374 159 l 2
 373 161 372 165 372 167 c 0
 372 169 372 170 371 171 c 0
 370 173 370 174 371 174 c 0
 373 175 370 220 367 245 c 0
 362 280 356 301 344 317 c 0
 339 324 332 330 331 329 c 0
 331 329 327 314 324 297 c 0
 306 210 285 129 265 78 c 2
 257 57 l 1
 259 51 l 2
 261 46 261 41 262 32 c 0
 263 18 263 20 255 8 c 2
 251 1 l 1
 241 0 l 2
 234 -1 233 -1 231 -0 c 0
 229 1 228 1 223 -7 c 0
 220 -12 213 -21 207 -28 c 0
 197 -39 195 -42 185 -50 c 2
 173 -58 l 1
 163 -59 l 2
 157 -59 154 -58 153 -58 c 0
 153 -58 148 -56 143 -54 c 0
 135 -52 134 -52 132 -48 c 0
 126 -36 122 -15 120 20 c 0
 119 31 119 32 116 39 c 0
 112 50 109 56 107 68 c 0
 105 78 105 79 106 83 c 0
 107 86 108 88 107 90 c 0
 106 92 106 97 108 111 c 0
 117 174 137 227 168 271 c 0
 174 278 181 288 185 292 c 2
 192 301 l 1
 193 312 l 2
 195 348 197 406 199 429 c 0
 201 460 201 458 200 457 c 0
 200 457 197 458 193 459 c 0
 171 465 156 483 148 507 c 0
 143 522 141 537 141 553 c 0
 141 557 140 565 140 570 c 0
 140 575 139 579 139 579 c 0
 139 579 141 581 143 581 c 2
 147 582 l 1
 149 573 l 2
 151 564 156 552 162 542 c 0
 172 524 182 515 195 516 c 0
 199 516 198 517 198 519 c 0
 198 521 198 522 202 523 c 0
 207 524 206 520 209 554 c 0
 210 566 213 596 215 619 c 2
 219 660 l 1
 217 683 l 2
 215 695 214 706 214 708 c 0
 214 711 214 711 215 711 c 0
 218 710 282 678 282 677 c 0
 282 676 279 666 274 654 c 2
 266 630 l 1
 263 609 l 2
 261 597 260 579 259 568 c 2
 258 549 l 1
 262 551 l 2
 277 560 297 577 311 595 c 0
 315 599 317 603 323 606 c 2
 332 611 l 1
 338 608 344 606 350 603 c 1
 353 593 l 2
 355 587 356 582 356 582 c 0
 356 581 355 576 353 571 c 0
 350 562 350 561 344 554 c 0
 329 535 310 518 288 502 c 0
 279 495 261 483 255 481 c 0
 252 480 251 480 251 476 c 0
 249 462 243 357 243 347 c 2
 243 345 l 1
 247 347 l 2
 257 354 267 359 277 364 c 0
 283 367 288 370 288 370 c 0
 288 370 289 377 291 386 c 2
 295 403 l 1
 292 428 l 2
 291 442 291 455 291 455 c 0
 292 456 358 419 358 418 c 0xd8
147 32 m 0
 146 18 146 17 148 14 c 0
 149 12 149 11 149 11 c 0
 149 11 151 7 153 4 c 2
 157 -2 l 1
 163 3 l 2
 174 11 190 33 200 54 c 2
 204 62 l 1
 202 75 l 2
 196 107 192 163 191 210 c 2
 191 241 l 1xe8
 189 237 l 1
 175 208 164 171 159 137 c 0
 157 124 155 102 154 86 c 0
 154 84 153 75 151 65 c 0
 149 55 148 40 147 32 c 0
241 280 m 0
 240 246 239 168 241 166 c 0xe8
 242 165 256 215 264 249 c 0
 270 274 283 337 283 339 c 0
 283 339 283 340 282 340 c 0xd8
 281 340 278 339 273 339 c 0
 268 339 264 336 262 335 c 0
 260 334 248 323 241 314 c 0
 241 314 242 299 241 280 c 0
EndSplineSet
Comment: "Kage: aj1-00526+AAoA-Alias: uf020e"
EndChar
StartChar: uF020F
Encoding: 983567 983567 105
Width: 500
VWidth: 0
Flags: MW
LayerCount: 2
Back
Fore
SplineSet
119 221 m 0
 117 298 120 417 127 512 c 2
 129 543 l 1
 126 569 l 2
 124 583 122 594 122 594 c 0
 122 595 120 596 158 579 c 0
 176 570 192 563 192 562 c 0
 192 561 188 551 184 539 c 2
 177 516 l 1
 175 495 l 1
 169 409 166 297 168 218 c 0
 170 178 172 134 177 101 c 0
 179 86 182 70 183 66 c 0
 184 61 185 57 185 57 c 0
 185 57 190 82 196 111 c 0
 206 164 213 195 222 234 c 0
 231 271 240 313 241 314 c 0
 242 315 245 313 247 312 c 0
 248 311 247 290 238 206 c 0
 230 130 227 99 225 68 c 0
 223 40 222 10 224 5 c 0
 225 3 225 1 223 -5 c 0
 221 -11 222 -15 222 -20 c 2
 222 -26 l 1
 218 -32 215 -38 211 -44 c 1
 204 -46 l 2
 192 -50 193 -50 177 -38 c 2
 163 -27 l 1
 157 -14 151 -3 145 10 c 1
 139 34 l 2
 128 79 122 137 119 221 c 0
316 502 m 1
 318 506 l 2
 320 508 321 510 321 510 c 0
 321 510 327 508 332 505 c 0
 356 491 377 460 393 417 c 0
 412 365 424 301 429 214 c 2
 431 189 l 1
 429 182 l 2
 427 178 425 170 423 165 c 2
 420 156 l 1
 414 153 409 149 403 146 c 1
 397 149 391 150 385 153 c 1
 383 160 380 166 378 173 c 1
 377 197 l 2
 375 272 373 312 365 362 c 0
 357 412 341 458 322 491 c 2
 316 502 l 1
EndSplineSet
Comment: "Kage: aj1-00527+AAoA-Alias: uf020f"
EndChar
StartChar: uF0210
Encoding: 983568 983568 106
Width: 500
VWidth: 0
Flags: MW
LayerCount: 2
Back
Fore
SplineSet
153 295 m 0
 153 296 147 298 147 299 c 0
 147 299 148 302 149 304 c 0
 150 306 154 316 158 324 c 0
 178 369 195 399 211 418 c 0
 218 427 232 440 236 442 c 0
 238 443 239 443 239 445 c 0
 239 447 239 448 249 456 c 2
 260 465 l 1
 273 465 l 1
 286 466 l 1
 296 459 l 2
 306 453 308 454 316 444 c 0
 323 435 324 432 329 420 c 0
 340 395 348 361 352 318 c 0
 354 298 353 291 353 259 c 0
 353 236 353 221 352 220 c 0
 351 219 352 212 351 204 c 0
 349 180 343 133 337 106 c 0
 315 -2 272 -76 204 -122 c 0
 196 -128 188 -132 188 -132 c 0
 187 -132 184 -126 184 -125 c 0
 184 -124 188 -117 194 -110 c 0
 216 -81 236 -49 249 -21 c 0
 271 26 284 70 293 129 c 0
 296 151 300 195 300 211 c 0
 300 216 300 227 300 235 c 0
 301 255 301 321 300 339 c 0
 298 370 293 400 286 415 c 0
 281 426 277 431 268 434 c 0
 262 437 261 438 259 436 c 0
 249 429 234 405 223 379 c 0
 216 361 204 325 196 293 c 2
 193 284 l 1
 194 281 l 2
 198 274 200 270 200 270 c 0
 199 269 126 276 125 277 c 0
 125 277 153 294 153 295 c 0
194 679 m 0
 194 679 199 684 200 684 c 0
 200 684 202 682 204 678 c 0
 209 671 215 663 224 655 c 0
 236 644 246 637 256 635 c 0
 264 633 266 634 272 637 c 2
 277 640 l 1
 283 639 289 638 295 636 c 1
 299 630 302 625 306 619 c 1
 304 609 l 2
 303 604 303 599 303 598 c 0
 303 597 300 592 295 588 c 2
 288 581 l 1
 282 580 l 2
 274 579 262 582 255 585 c 0
 241 591 228 607 218 624 c 0
 213 632 193 678 194 679 c 0
EndSplineSet
Comment: "Kage: aj1-00528+AAoA-Alias: uf0210"
EndChar
StartChar: uF0211
Encoding: 983569 983569 107
Width: 500
VWidth: 0
Flags: MW
LayerCount: 2
Back
Fore
SplineSet
91 -87 m 1
 91 -79 92 -72 92 -64 c 1
 104 -35 l 2
 142 64 216 238 254 321 c 0
 268 350 285 389 285 389 c 0
 285 389 281 386 276 383 c 0
 254 366 204 335 182 322 c 2
 171 316 l 1
 168 306 l 2
 166 299 164 296 163 297 c 0
 161 299 124 375 125 375 c 0
 126 375 150 364 150 364 c 0
 151 364 150 365 150 367 c 2
 150 370 l 1
 155 370 l 2
 164 372 185 377 195 381 c 0
 214 387 254 401 257 403 c 0
 264 408 277 420 286 430 c 0
 300 446 302 449 308 453 c 0
 311 455 315 457 316 457 c 0
 317 457 321 457 326 456 c 2
 334 454 l 1
 340 447 l 2
 344 442 347 440 349 434 c 2
 352 426 l 1
 351 418 351 411 350 403 c 1
 346 397 l 2
 340 391 318 344 279 256 c 0
 267 229 241 168 241 167 c 0
 241 167 243 168 246 170 c 0
 251 173 253 174 261 176 c 2
 270 178 l 1
 278 175 l 2
 286 172 288 173 294 165 c 0
 300 158 300 155 304 146 c 0
 309 134 312 121 314 108 c 0
 315 103 316 99 317 98 c 0
 318 96 319 69 320 44 c 0
 322 3 324 -13 330 -18 c 0
 340 -26 362 -27 400 -19 c 2
 421 -14 l 1
 429 -17 l 2
 434 -19 438 -20 438 -20 c 0
 438 -20 441 -25 443 -30 c 2
 448 -40 l 1
 446 -50 l 2
 444 -56 442 -61 442 -62 c 0
 442 -63 438 -66 434 -69 c 2
 426 -75 l 1
 407 -78 l 2
 380 -83 357 -86 338 -84 c 0
 325 -83 325 -82 314 -77 c 0
 303 -72 303 -71 295 -62 c 0
 287 -53 286 -53 282 -40 c 0
 276 -21 274 -12 272 29 c 0
 270 64 270 68 268 96 c 0
 267 112 266 125 264 132 c 0
 262 139 254 138 243 131 c 0
 237 128 236 125 230 116 c 0
 222 104 205 78 199 66 c 0
 194 58 166 -10 146 -61 c 2
 136 -89 l 1
 131 -94 127 -99 122 -104 c 1
 116 -104 109 -105 103 -105 c 1
 99 -99 95 -93 91 -87 c 1
196 683 m 0
 203 685 l 0
 203 685 204 682 206 676 c 0
 215 646 235 616 254 604 c 0
 268 595 289 592 308 594 c 2
 315 595 l 1
 321 592 327 589 333 586 c 1
 335 579 338 573 340 566 c 1
 337 558 l 2
 335 554 335 548 334 546 c 0
 333 544 331 544 324 539 c 2
 315 533 l 1
 303 535 l 2
 275 538 252 548 234 567 c 0
 217 584 205 612 200 643 c 0
 198 654 195 682 196 683 c 0
EndSplineSet
Comment: "Kage: aj1-00529+AAoA-Alias: uf0211"
EndChar
StartChar: uF0212
Encoding: 983570 983570 108
Width: 500
VWidth: 0
Flags: MW
LayerCount: 2
Back
Fore
SplineSet
88 27 m 0xb8
 88 28 111 43 111 44 c 0
 111 45 115 50 119 57 c 0
 123 64 135 85 145 104 c 0
 164 139 176 161 183 174 c 2
 187 181 l 1
 187 289 l 2
 187 348 187 397 187 397 c 0
 187 397 184 396 180 395 c 0
 175 394 172 392 163 391 c 2
 151 391 l 1
 144 393 138 397 131 399 c 1
 126 406 120 411 115 418 c 1
 113 428 110 437 108 447 c 1
 108 465 l 1
 109 483 l 1
 111 483 115 483 117 483 c 1
 122 470 l 2
 125 459 127 454 131 447 c 0
 136 439 138 438 142 435 c 0
 148 431 151 432 159 435 c 0
 165 437 178 445 184 449 c 2
 187 451 l 1
 187 510 187 569 187 628 c 1xb8
 182 655 l 2
 179 670 175 683 175 685 c 0
 175 687 176 689 176 689 c 0
 176 689 184 680 194 669 c 0
 208 652 214 645 224 637 c 0
 236 627 248 614 248 612 c 0xd8
 248 612 245 608 242 605 c 2
 236 599 l 1
 236 547 l 2
 236 519 237 496 237 496 c 0
 237 496 241 499 245 503 c 0
 252 511 253 510 262 514 c 2
 271 518 l 1
 278 513 l 2
 282 510 286 507 286 506 c 0
 286 505 288 500 289 494 c 2
 291 483 l 1
 288 476 284 471 281 464 c 1
 270 454 l 2
 264 449 253 439 247 435 c 0
 241 431 236 427 236 426 c 0
 236 426 236 386 236 339 c 2
 237 254 l 1
 247 265 l 2
 254 274 260 280 270 289 c 0
 283 300 284 301 296 307 c 0
 303 311 312 314 314 314 c 0
 316 314 325 318 335 321 c 2
 352 326 l 1
 363 320 375 313 386 307 c 1
 394 296 402 284 410 273 c 1
 416 258 420 243 426 228 c 1
 429 211 432 193 435 176 c 1
 436 158 435 143 436 125 c 1
 434 108 433 89 431 72 c 1
 426 57 422 40 417 25 c 1
 409 11 401 0 393 -14 c 1
 381 -22 368 -28 356 -36 c 1
 351 -35 l 2
 348 -34 346 -34 345 -34 c 0
 344 -34 344 -39 344 -39 c 0
 344 -39 340 -38 336 -36 c 0
 304 -27 282 4 271 57 c 0
 269 68 262 111 262 114 c 0
 262 115 269 119 270 118 c 0
 270 118 272 112 274 105 c 0
 280 86 292 63 302 48 c 0
 312 35 321 27 331 23 c 0
 336 21 343 20 344 22 c 0
 344 22 348 27 353 30 c 0
 361 36 362 36 368 47 c 0
 374 57 375 60 381 77 c 0
 386 93 387 96 389 113 c 0
 391 129 392 136 392 154 c 0
 392 174 392 176 390 196 c 0
 388 216 388 219 383 237 c 0
 378 255 377 256 371 269 c 0
 365 282 364 284 355 291 c 0
 347 298 345 299 339 301 c 2
 331 303 l 1
 324 299 l 2
 302 288 275 255 247 207 c 2
 236 191 l 1
 236 93 l 2
 236 11 237 -8 238 -21 c 0
 240 -42 240 -68 238 -77 c 0
 236 -86 233 -94 230 -100 c 0
 228 -104 226 -107 219 -112 c 2
 211 -117 l 1
 205 -115 199 -113 193 -111 c 1
 188 -100 l 2
 186 -94 184 -89 183 -89 c 0
 182 -89 182 -89 180 -77 c 0
 178 -60 168 -31 157 -5 c 0
 155 1 152 5 152 5 c 0
 152 5 146 7 140 9 c 0
 113 17 88 26 88 27 c 0xb8
159 27 m 0
 159 27 163 25 166 21 c 0
 169 17 176 12 181 6 c 0
 187 -1 189 -4 188 -2 c 0
 187 0 184 15 181 31 c 2
 175 59 l 1
 177 64 l 2
 178 67 179 70 179 70 c 0
 178 70 159 28 159 27 c 0
342 575 m 1
 342 579 l 2
 342 581 343 583 343 584 c 0
 343 585 350 584 361 583 c 0
 387 579 411 560 431 521 c 0
 437 508 441 500 447 481 c 2
 452 468 l 1
 451 457 l 2
 450 451 450 446 450 445 c 0
 450 444 447 440 443 436 c 0
 436 427 435 428 423 429 c 2
 417 429 l 1
 411 438 l 2
 405 447 405 446 403 456 c 0
 401 469 394 495 391 506 c 0
 381 536 363 564 347 572 c 2
 342 575 l 1
EndSplineSet
Comment: "Kage: aj1-00530+AAoA-Alias: uf0212"
EndChar
StartChar: uF0213
Encoding: 983571 983571 109
Width: 500
VWidth: 0
Flags: MW
LayerCount: 2
Back
Fore
SplineSet
87 396 m 0
 88 396 94 393 101 391 c 0
 109 389 116 387 116 387 c 0
 116 387 115 390 114 392 c 0
 112 397 113 397 115 397 c 0
 121 397 186 425 187 428 c 0
 188 432 205 559 211 615 c 2
 216 650 l 1
 213 676 l 2
 211 690 209 702 209 702 c 0
 209 702 277 669 278 668 c 0
 278 668 275 656 270 643 c 2
 261 618 l 1
 258 595 l 2
 255 569 245 488 242 468 c 2
 240 455 l 1
 245 457 249 459 254 461 c 1
 261 460 270 458 277 458 c 1
 285 450 l 2
 294 443 295 442 301 430 c 0
 307 420 308 417 312 405 c 0
 321 376 324 340 325 287 c 0
 326 242 325 214 316 131 c 0
 312 90 304 46 295 11 c 0
 288 -19 281 -37 270 -58 c 0
 265 -67 265 -67 257 -73 c 2
 249 -79 l 1
 243 -77 237 -76 231 -74 c 1
 228 -67 l 2
 226 -63 225 -61 224 -61 c 0
 223 -61 223 -60 223 -52 c 0
 223 -42 222 -37 217 -19 c 0
 211 3 193 53 185 68 c 2
 181 77 l 1
 183 80 l 2
 187 85 188 86 194 76 c 0
 197 71 205 62 211 54 c 0
 221 42 231 27 239 15 c 0
 241 12 244 9 244 9 c 0
 245 10 249 33 253 50 c 0
 261 88 269 150 275 221 c 0
 277 251 277 241 279 273 c 0
 280 301 279 344 277 363 c 0
 274 397 267 418 257 424 c 0
 253 427 252 427 245 427 c 2
 236 428 l 1
 235 419 l 2
 230 384 212 273 205 232 c 0
 190 147 180 99 166 36 c 0
 160 9 146 -46 145 -48 c 0
 145 -49 142 -54 139 -58 c 2
 133 -67 l 1
 126 -67 l 2
 122 -67 118 -69 117 -69 c 0
 115 -69 114 -69 108 -62 c 2
 101 -55 l 1
 100 -47 100 -40 99 -32 c 1
 106 -7 l 2
 126 71 140 139 157 235 c 0
 163 267 181 385 181 388 c 0
 181 389 180 387 178 386 c 0
 171 378 157 365 148 356 c 2
 138 348 l 1
 137 341 l 2
 136 326 138 325 123 346 c 0
 116 356 103 371 97 380 c 0
 91 389 86 396 87 396 c 0
344 497 m 1
 346 501 l 2
 348 503 349 504 349 504 c 0
 351 504 368 487 374 478 c 0
 389 459 405 431 415 405 c 0
 433 357 443 311 448 249 c 2
 449 229 l 1
 446 219 l 2
 444 214 443 208 442 207 c 0
 441 206 427 197 425 197 c 0
 424 197 421 198 416 200 c 2
 408 204 l 1
 406 211 403 216 401 223 c 1
 401 253 l 2
 400 341 383 415 349 485 c 1
 344 497 l 1
EndSplineSet
Comment: "Kage: aj1-00531+AAoA-Alias: uf0213"
EndChar
StartChar: uF0214
Encoding: 983572 983572 110
Width: 500
VWidth: 0
Flags: MW
LayerCount: 2
Back
Fore
SplineSet
124 25 m 1
 124 42 124 57 124 74 c 1
 128 90 132 106 136 122 c 1
 143 136 149 148 156 162 c 1
 170 176 l 2
 178 184 185 191 186 191 c 0
 188 192 214 197 216 198 c 0
 219 199 239 199 252 197 c 0
 262 196 277 191 284 189 c 0
 287 188 289 188 289 188 c 0
 289 188 288 192 287 197 c 0
 284 213 272 266 268 290 c 0
 266 303 264 313 264 313 c 0
 264 313 261 312 257 311 c 0
 242 305 231 301 231 302 c 0
 231 303 230 301 228 299 c 0
 226 297 224 297 216 295 c 0
 184 289 157 299 144 324 c 0
 135 340 132 357 132 390 c 2
 132 411 l 1
 136 411 l 2
 138 411 140 411 140 411 c 0
 140 411 140 406 141 400 c 0
 143 379 155 357 165 349 c 0
 175 342 189 343 207 352 c 0
 212 354 213 355 216 354 c 0
 222 353 221 353 220 356 c 2
 220 359 l 1
 228 363 l 2
 242 368 253 372 253 374 c 0
 252 380 236 476 236 476 c 0
 236 476 232 475 226 474 c 0
 208 469 194 469 182 474 c 0
 164 482 152 498 146 523 c 0
 144 534 139 564 140 565 c 0
 140 565 142 567 144 567 c 2
 147 568 l 1
 149 559 l 1
 155 540 167 525 179 520 c 0
 187 517 200 520 212 528 c 0
 215 530 218 533 219 533 c 0
 220 533 222 534 224 535 c 0
 226 536 227 537 227 538 c 0
 227 539 224 554 222 571 c 0
 220 588 214 615 212 633 c 2
 208 665 l 1
 199 687 l 2
 194 700 189 711 189 711 c 0
 189 712 190 711 212 709 c 0
 223 708 239 705 248 705 c 0
 257 705 264 703 264 703 c 0
 264 703 264 693 262 680 c 2
 260 657 l 1
 262 640 l 2
 268 603 272 569 273 569 c 0
 274 568 291 585 295 591 c 0
 296 593 300 599 304 602 c 2
 312 608 l 1
 318 606 325 606 331 605 c 1
 334 598 337 592 340 585 c 1
 339 574 l 2
 337 564 336 562 334 558 c 0
 329 550 317 534 311 528 c 0
 305 523 286 506 284 505 c 0
 283 505 287 477 296 425 c 2
 299 403 l 1
 304 409 l 2
 311 416 326 434 332 444 c 0
 335 450 338 454 344 459 c 2
 352 466 l 1
 361 464 l 2
 366 463 371 461 371 461 c 0
 373 458 380 444 380 443 c 0
 380 442 380 437 379 431 c 0
 377 421 377 419 371 409 c 0
 363 395 349 377 339 366 c 0
 332 358 313 343 311 342 c 0
 310 342 313 333 316 314 c 0
 332 228 339 193 353 137 c 2
 359 119 l 1
 358 107 l 1
 357 96 l 1
 352 90 349 84 344 78 c 1
 335 78 l 1
 325 78 l 1
 319 87 l 2
 313 95 313 95 311 102 c 0
 306 121 282 148 253 168 c 0
 240 177 226 186 222 187 c 0
 221 187 217 184 208 177 c 0
 196 167 196 167 187 155 c 0
 178 142 178 142 172 126 c 0
 166 110 166 109 163 91 c 2
 160 72 l 1
 160 54 l 1
 161 36 l 1
 164 24 167 12 170 0 c 1
 178 -13 l 2
 185 -25 187 -26 193 -32 c 0
 209 -46 208 -46 225 -51 c 2
 241 -55 l 1
 255 -53 270 -51 284 -49 c 1
 293 -50 l 2
 298 -51 301 -53 302 -53 c 0
 304 -54 312 -71 312 -73 c 0
 312 -74 311 -79 310 -85 c 2
 308 -95 l 1
 303 -99 297 -104 292 -108 c 1
 264 -110 l 1
 234 -113 l 1
 219 -108 203 -102 188 -97 c 1
 177 -86 165 -77 154 -66 c 1
 147 -52 140 -36 133 -22 c 1
 130 -6 127 9 124 25 c 1
EndSplineSet
Comment: "Kage: aj1-00532+AAoA-Alias: uf0214"
EndChar
StartChar: uF0215
Encoding: 983573 983573 111
Width: 500
VWidth: 0
Flags: MW
LayerCount: 2
Back
Fore
SplineSet
139 282 m 1
 142 297 l 2
 147 318 156 345 182 408 c 0
 220 502 244 567 262 634 c 2
 270 661 l 1
 270 682 l 2
 270 693 270 714 272 714 c 0
 273 714 334 671 334 670 c 0
 334 669 314 629 308 619 c 0
 306 616 304 608 302 601 c 0
 296 580 274 524 261 492 c 0
 244 452 225 407 192 343 c 0
 173 305 162 282 158 268 c 0
 156 258 156 253 164 238 c 0
 172 223 182 208 205 178 c 0
 249 119 264 97 283 61 c 0
 301 28 312 -1 323 -36 c 2
 332 -64 l 1
 331 -76 l 2
 330 -84 329 -89 328 -90 c 0
 327 -91 328 -94 327 -98 c 2
 325 -105 l 1
 319 -111 l 2
 315 -115 311 -119 310 -119 c 0
 308 -119 297 -119 294 -118 c 0
 292 -118 283 -105 281 -100 c 0
 280 -99 277 -86 274 -71 c 0
 258 -5 233 52 186 132 c 0
 159 177 149 197 143 222 c 2
 139 236 l 1
 140 244 l 2
 141 251 141 257 140 268 c 2
 139 282 l 1
EndSplineSet
Comment: "Kage: aj1-00533+AAoA-Alias: uf0215"
EndChar
StartChar: uF0216
Encoding: 983574 983574 112
Width: 500
VWidth: 0
Flags: MW
LayerCount: 2
Back
Fore
SplineSet
106 273 m 0
 108 356 116 469 126 576 c 1
 129 608 l 1
 126 631 l 2
 124 644 123 655 123 657 c 0
 123 658 123 660 123 660 c 0
 123 660 130 656 139 652 c 0
 148 648 163 641 173 637 c 0
 183 633 191 628 191 628 c 0
 192 628 188 616 183 603 c 2
 175 580 l 1
 173 557 l 2
 164 467 156 340 154 255 c 0
 153 215 153 152 155 121 c 2
 156 112 l 1
 160 126 l 2
 166 146 175 171 182 192 c 0
 192 221 203 252 204 253 c 0
 204 253 206 254 208 253 c 0
 211 252 211 251 211 249 c 0
 209 241 203 200 201 191 c 0
 199 185 196 165 193 148 c 0
 175 48 170 16 171 -8 c 0
 171 -14 171 -20 171 -20 c 0
 171 -20 170 -22 171 -26 c 0
 172 -32 173 -34 171 -45 c 2
 170 -57 l 1
 163 -64 l 2
 159 -68 155 -72 154 -72 c 0
 152 -72 142 -70 138 -69 c 0
 137 -69 134 -65 131 -60 c 2
 125 -52 l 1
 121 -30 l 2
 113 14 108 70 106 131 c 0
 104 169 105 231 106 273 c 0
211 484 m 1
 215 486 l 2
 217 487 219 489 219 489 c 0
 219 489 221 486 223 483 c 0
 229 474 241 460 253 452 c 0
 267 443 286 436 307 433 c 2
 309 433 l 1
 308 441 l 2
 307 445 307 449 307 449 c 0
 307 449 314 451 322 455 c 2
 337 460 l 1
 338 554 l 1
 338 647 l 1
 331 672 l 2
 328 686 325 696 325 697 c 0
 325 698 325 698 326 698 c 0
 332 695 396 674 398 673 c 0
 399 673 396 663 392 649 c 2
 386 626 l 1
 386 555 l 2
 386 517 387 486 387 486 c 0
 389 486 400 497 406 503 c 0
 408 505 413 510 417 512 c 2
 424 516 l 1
 430 514 436 512 442 510 c 1
 444 503 449 497 451 490 c 1
 447 479 l 2
 445 471 444 465 442 463 c 0
 438 458 430 449 424 444 c 0
 417 438 397 425 391 422 c 2
 386 419 l 1
 386 299 l 2
 386 166 386 157 381 120 c 0
 375 78 365 35 351 1 c 0
 331 -46 302 -87 267 -114 c 0
 260 -120 253 -124 253 -124 c 0
 253 -124 252 -122 251 -120 c 0
 249 -115 247 -118 259 -100 c 0
 269 -86 279 -68 289 -48 c 0
 312 0 328 64 334 126 c 0
 337 167 338 187 338 295 c 2
 338 397 l 1
 334 396 331 394 327 393 c 1
 322 386 l 2
 317 378 318 378 306 375 c 0
 299 373 299 372 293 375 c 0
 271 385 256 396 241 415 c 0
 228 430 221 445 215 470 c 2
 211 484 l 1
EndSplineSet
Comment: "Kage: aj1-00534+AAoA-Alias: uf0216"
EndChar
StartChar: uF0217
Encoding: 983575 983575 113
Width: 500
VWidth: 0
Flags: MW
LayerCount: 2
Back
Fore
SplineSet
133 200 m 0
 139 223 139 222 153 256 c 2
 156 264 l 1
 160 264 l 2
 163 263 164 262 164 260 c 0
 164 256 160 218 158 197 c 0
 155 168 154 140 156 119 c 0
 158 95 160 77 165 61 c 0
 174 30 188 11 206 4 c 0
 209 2 213 1 214 0 c 0
 216 -2 223 -3 238 -5 c 0
 253 -7 281 -5 297 -1 c 0
 309 2 320 6 330 12 c 0
 336 15 338 15 347 16 c 2
 356 16 l 1
 363 8 l 2
 367 3 369 -1 369 -1 c 0
 369 -2 370 -3 372 -5 c 2
 376 -9 l 1
 376 -21 l 1
 375 -32 l 1
 368 -41 l 2
 362 -49 361 -51 355 -54 c 0
 330 -67 306 -72 277 -73 c 0
 251 -74 231 -71 208 -64 c 0
 186 -57 186 -57 187 -54 c 0
 187 -52 188 -52 182 -49 c 0
 177 -47 173 -44 166 -37 c 0
 157 -29 155 -25 148 -14 c 0
 142 -3 139 0 135 13 c 0
 117 62 117 129 133 200 c 0
166 627 m 0
 165 632 165 633 167 633 c 0
 168 633 169 633 171 633 c 0
 173 633 173 633 175 626 c 0
 179 612 190 591 200 579 c 0
 206 571 210 568 216 568 c 0
 218 568 221 567 222 566 c 0
 223 565 225 565 236 565 c 0
 257 565 285 571 303 577 c 0
 308 578 311 580 313 580 c 0
 315 581 333 580 334 579 c 0
 336 577 345 563 345 561 c 0
 345 560 345 554 344 549 c 2
 344 539 l 1
 336 531 l 2
 329 523 330 524 320 520 c 0
 310 516 287 511 272 508 c 0
 261 506 233 503 222 503 c 2
 214 503 l 1
 214 506 214 508 214 511 c 1
 208 511 l 2
 201 510 200 511 192 520 c 0
 177 537 169 561 167 605 c 0
 166 614 166 624 166 627 c 0
EndSplineSet
Comment: "Kage: aj1-00535+AAoA-Alias: uf0217"
EndChar
StartChar: uF0218
Encoding: 983576 983576 114
Width: 500
VWidth: 0
Flags: MW
LayerCount: 2
Back
Fore
SplineSet
109 532 m 0
 109 532 111 533 113 533 c 2
 116 535 l 1
 118 526 l 2
 123 508 134 493 149 479 c 0
 159 471 172 465 194 467 c 0
 204 468 205 468 205 470 c 0
 205 472 205 472 222 475 c 0
 244 480 269 486 270 487 c 0
 270 487 268 501 266 518 c 0
 260 553 253 607 249 639 c 2
 245 661 l 1
 237 684 l 2
 232 697 227 708 227 708 c 0
 227 708 228 709 229 709 c 0
 230 709 246 707 265 704 c 0
 284 701 300 699 301 699 c 0
 302 698 302 696 300 676 c 2
 297 653 l 1
 299 635 l 2
 302 610 317 508 318 507 c 0
 318 507 321 508 325 510 c 0
 343 520 362 538 372 554 c 0
 374 558 377 561 383 566 c 2
 392 573 l 1
 398 571 404 571 410 569 c 1
 413 562 417 557 420 550 c 1
 417 539 l 2
 415 528 416 526 410 518 c 0
 396 496 382 481 361 467 c 0
 351 460 334 449 330 448 c 0
 328 447 329 447 329 445 c 0
 351 324 367 248 385 189 c 1
 389 177 l 1
 389 169 389 160 389 152 c 1
 385 147 380 140 376 135 c 1
 370 135 363 135 357 135 c 1
 351 140 l 2
 348 144 346 146 345 146 c 0
 344 146 343 146 341 150 c 0
 338 158 332 167 326 177 c 0
 318 188 315 194 305 204 c 0
 295 214 286 220 269 232 c 2
 257 242 l 1
 246 240 l 2
 237 238 235 239 223 233 c 0
 216 229 209 225 207 224 c 0
 194 211 191 207 184 193 c 0
 178 182 176 178 172 165 c 0
 163 134 160 96 165 62 c 0
 167 42 173 25 178 16 c 0
 181 10 180 10 197 1 c 0
 230 -17 267 -29 321 -40 c 0
 329 -41 330 -42 337 -47 c 0
 342 -51 344 -54 345 -56 c 0
 346 -57 347 -59 349 -60 c 0
 351 -62 351 -63 353 -74 c 2
 355 -86 l 1
 352 -92 348 -99 345 -105 c 1
 339 -107 333 -110 327 -112 c 1
 307 -108 l 2
 284 -104 278 -102 262 -97 c 0
 218 -84 182 -66 158 -45 c 0
 155 -42 152 -39 152 -39 c 0
 152 -39 151 -38 149 -37 c 0
 147 -36 145 -35 139 -21 c 0
 132 -7 131 -5 127 13 c 0
 123 30 123 33 121 52 c 0
 119 72 120 74 121 96 c 0
 123 118 123 119 127 139 c 0
 131 159 132 163 138 181 c 2
 145 201 l 1
 152 213 161 222 168 234 c 1
 178 242 187 249 197 257 c 1
 209 260 223 264 235 267 c 1
 252 261 l 2
 262 258 271 255 273 255 c 0
 281 255 306 246 315 242 c 0
 317 241 318 240 318 241 c 0
 311 269 297 334 285 401 c 0
 283 416 281 427 281 427 c 0
 281 427 275 425 269 424 c 0
 252 420 233 416 222 414 c 0
 215 413 211 412 207 410 c 0
 200 406 200 408 190 409 c 0
 157 416 131 438 120 469 c 0
 115 483 112 492 110 513 c 0
 109 524 109 532 109 532 c 0
EndSplineSet
Comment: "Kage: aj1-00536+AAoA-Alias: uf0218"
EndChar
StartChar: uF0219
Encoding: 983577 983577 115
Width: 500
VWidth: 0
Flags: MW
LayerCount: 2
Back
Fore
SplineSet
156 201 m 0
 154 272 157 389 165 607 c 2
 167 637 l 1
 162 662 l 2
 160 676 156 687 156 688 c 0
 156 689 156 690 156 690 c 0
 156 690 165 687 175 683 c 0
 185 679 200 672 210 669 c 0
 220 666 228 661 228 661 c 0
 228 661 224 650 220 637 c 2
 213 613 l 1
 210 560 l 2
 200 380 194 272 192 221 c 0
 188 109 190 56 199 24 c 0
 204 7 207 -3 210 -9 c 0
 213 -14 216 -17 218 -17 c 0
 219 -17 220 -19 222 -22 c 0
 226 -29 231 -32 240 -31 c 0
 246 -31 248 -31 256 -26 c 0
 261 -23 268 -17 274 -12 c 0
 283 -4 286 -2 296 12 c 0
 322 47 347 95 373 158 c 0
 381 178 388 193 388 193 c 0
 389 194 396 190 396 189 c 0
 396 189 391 170 386 147 c 0
 377 107 377 104 367 71 c 0
 357 39 355 37 345 12 c 0
 335 -11 332 -17 322 -34 c 0
 311 -52 310 -54 298 -67 c 0
 286 -81 286 -79 273 -87 c 2
 260 -95 l 1
 251 -97 242 -97 233 -99 c 1
 221 -95 l 2
 209 -91 210 -91 200 -83 c 0
 194 -77 190 -73 188 -70 c 0
 186 -67 184 -65 184 -65 c 0
 184 -65 182 -61 180 -57 c 0
 169 -38 162 -11 158 36 c 0
 156 54 155 110 156 130 c 0
 156 138 157 150 157 155 c 0
 157 160 157 180 156 201 c 0
EndSplineSet
Comment: "Kage: aj1-00537+AAoA-Alias: uf0219"
EndChar
StartChar: uF021A
Encoding: 983578 983578 116
Width: 500
VWidth: 0
Flags: MW
LayerCount: 2
Back
Fore
SplineSet
92 448 m 0xd0
 92 448 97 445 104 443 c 0
 115 439 117 438 117 440 c 0
 117 441 118 443 121 443 c 0
 127 444 155 452 202 465 c 0
 238 476 245 478 257 483 c 2
 269 489 l 1
 269 570 l 1
 269 652 l 1xe0
 263 677 l 2
 260 691 257 701 257 702 c 0
 257 703 257 703 257 703 c 0
 258 703 328 679 329 678 c 0xd0
 329 678 327 667 324 654 c 2
 317 630 l 1
 318 570 l 2
 318 537 319 509 319 509 c 0xe0
 319 509 322 511 326 512 c 0
 354 523 391 536 407 539 c 0
 414 541 416 540 423 539 c 2
 431 536 l 1
 434 529 438 524 441 518 c 1
 439 506 l 2
 438 500 437 494 437 494 c 0
 437 494 433 490 429 487 c 2
 422 481 l 1
 412 482 l 2
 402 483 400 484 382 483 c 0
 370 482 355 480 342 478 c 0
 331 476 322 475 321 475 c 0
 319 475 319 472 320 431 c 0
 321 382 321 337 321 291 c 0
 321 267 321 261 323 252 c 0
 325 236 329 202 328 199 c 0
 327 197 328 197 329 197 c 0
 330 197 330 194 329 168 c 0
 328 113 324 73 315 27 c 0
 300 -49 268 -113 228 -148 c 2
 217 -157 l 1
 215 -153 l 2
 213 -151 212 -149 213 -148 c 0
 228 -123 243 -90 253 -63 c 0
 266 -28 277 25 280 67 c 0
 281 76 281 84 281 84 c 0
 281 84 274 84 267 82 c 2
 253 79 l 1
 246 83 238 88 231 92 c 1
 225 104 l 2
 219 114 218 116 215 128 c 0
 203 171 206 239 220 285 c 0
 226 302 228 307 234 322 c 0
 236 329 239 335 243 340 c 0
 248 347 250 349 256 353 c 0
 262 357 264 359 268 359 c 2
 272 358 l 1
 271 403 l 2
 271 428 270 448 270 449 c 0
 270 450 263 448 249 441 c 0
 226 430 171 403 153 395 c 2
 141 390 l 1
 137 380 l 2
 135 375 133 369 132 369 c 0
 131 369 92 447 92 448 c 0xd0
239 299 m 0
 233 266 234 206 244 170 c 0
 247 157 254 143 257 139 c 2
 259 136 l 1
 261 142 l 2
 265 151 267 161 269 176 c 0
 271 193 272 216 273 250 c 0
 274 281 272 293 269 305 c 0
 268 310 267 316 266 319 c 0
 264 324 265 324 263 324 c 0
 260 324 251 317 245 312 c 0
 240 308 241 307 239 299 c 0
281 94 m 0
 279 94 281 89 281 88 c 0
 281 86 282 90 282 92 c 0xd0
 282 93 282 94 281 94 c 0
EndSplineSet
Comment: "Kage: aj1-00538+AAoA-Alias: uf021a"
EndChar
StartChar: uF021B
Encoding: 983579 983579 117
Width: 500
VWidth: 0
Flags: MW
LayerCount: 2
Back
Fore
SplineSet
77 355 m 0xd0
 77 355 85 354 93 354 c 2
 108 352 l 1
 119 356 l 2
 129 360 163 370 173 373 c 2
 178 374 l 1
 178 445 178 517 178 588 c 1xd0
 172 615 l 2
 166 640 164 648 166 648 c 0
 166 648 174 640 184 629 c 0
 198 613 203 605 213 597 c 0
 225 587 238 573 238 571 c 0xe0
 238 570 236 567 233 564 c 2
 226 558 l 1
 226 502 226 446 226 390 c 1
 245 397 l 2
 266 405 311 424 312 425 c 0
 313 426 313 484 313 562 c 2
 313 638 l 1
 309 659 l 2
 306 671 302 681 302 683 c 0
 301 685 301 685 302 685 c 0
 304 685 374 661 374 660 c 0xd8
 374 659 372 649 369 637 c 2
 363 614 l 1
 362 542 l 2xc4
 362 502 361 465 361 458 c 2
 361 446 l 1
 374 451 l 2xc8
 397 460 407 462 421 463 c 2
 433 464 l 1
 444 457 l 2
 450 452 455 449 455 449 c 0
 455 449 458 429 458 427 c 0
 458 426 456 421 454 416 c 0
 448 406 450 405 436 401 c 0
 431 400 431 400 427 403 c 0
 425 405 420 406 418 406 c 0
 411 407 390 404 367 397 c 2
 361 394 l 1
 360 371 l 2
 358 264 355 200 349 167 c 0
 347 159 345 155 342 147 c 2
 338 135 l 1
 332 132 327 128 321 125 c 1
 313 128 l 2
 309 130 305 131 304 131 c 0
 302 131 302 133 297 147 c 0
 290 168 268 219 264 227 c 2
 261 233 l 1
 263 235 l 2
 265 236 266 239 267 239 c 0
 268 239 269 237 271 235 c 0
 273 233 277 228 281 225 c 0
 283 223 305 205 305 205 c 0
 306 206 308 259 309 280 c 0
 310 294 312 377 310 377 c 0
 309 377 269 360 246 350 c 2
 226 342 l 1
 226 223 l 2xd4
 226 98 227 89 230 65 c 0
 232 50 234 39 238 31 c 0xe0
 250 6 283 0 350 13 c 2
 365 16 l 1
 371 14 377 14 383 12 c 1
 386 5 390 -2 393 -9 c 1
 391 -17 389 -23 387 -31 c 1
 381 -35 377 -40 371 -44 c 1
 351 -48 l 2
 308 -55 279 -55 256 -50 c 0
 245 -48 243 -46 233 -41 c 0
 223 -36 221 -34 213 -26 c 0
 206 -18 204 -15 198 -4 c 0
 188 17 183 34 179 78 c 0
 178 84 178 128 178 204 c 2
 178 321 l 1
 174 319 l 2
 172 318 163 315 154 311 c 2
 139 304 l 1
 129 291 l 2
 123 285 119 279 119 279 c 0
 118 279 76 354 77 355 c 0xd0
EndSplineSet
Comment: "Kage: aj1-00539+AAoA-Alias: uf021b"
EndChar
StartChar: uF021C
Encoding: 983580 983580 118
Width: 500
VWidth: 0
Flags: MW
LayerCount: 2
Back
Fore
SplineSet
139 592 m 0
 140 592 163 584 164 584 c 0
 164 584 164 584 164 585 c 0
 164 586 164 587 165 587 c 0
 171 587 223 601 240 607 c 0
 246 609 257 613 265 616 c 2
 280 621 l 1
 278 623 277 624 275 626 c 1
 279 631 l 2
 281 634 285 639 287 642 c 0
 289 645 292 648 294 649 c 0
 308 657 325 645 336 621 c 2
 339 615 l 1
 337 604 l 2
 336 594 335 592 333 590 c 0
 331 589 326 577 320 566 c 0
 273 469 216 371 164 300 c 0
 160 295 154 286 152 282 c 0
 150 278 147 274 146 272 c 0
 144 269 146 270 172 285 c 0
 230 318 283 347 305 358 c 0
 311 361 318 365 328 372 c 0
 345 385 354 390 362 393 c 2
 368 395 l 1
 376 393 l 2
 384 391 385 391 391 384 c 0
 397 378 397 376 400 369 c 2
 404 360 l 1
 403 352 l 2
 401 337 402 338 395 329 c 2
 388 321 l 1
 383 321 l 2
 380 321 378 322 378 321 c 0
 378 320 376 319 370 319 c 0
 347 318 322 305 284 272 c 2
 273 264 l 1
 267 249 l 2
 243 199 233 161 231 106 c 0
 230 71 235 34 244 12 c 0
 248 2 259 -15 265 -23 c 0
 271 -30 279 -36 285 -39 c 0
 291 -42 304 -41 313 -37 c 0
 319 -35 320 -36 328 -36 c 2
 337 -36 l 1
 342 -43 l 2
 345 -47 350 -52 352 -56 c 2
 356 -63 l 1
 355 -74 l 2
 354 -80 353 -85 353 -86 c 0
 353 -86 350 -89 346 -93 c 0
 340 -99 339 -100 330 -103 c 0
 323 -106 319 -107 308 -108 c 0
 296 -109 294 -107 286 -106 c 0
 275 -104 264 -100 256 -95 c 0
 244 -87 230 -71 220 -56 c 0
 214 -48 207 -34 207 -32 c 0
 207 -31 207 -30 206 -30 c 0
 205 -30 202 -23 200 -16 c 0
 192 7 188 43 189 76 c 0
 191 128 200 170 217 209 c 0
 223 222 225 227 233 239 c 0
 246 258 244 250 256 270 c 0
 261 278 268 292 273 298 c 0
 281 310 282 310 278 307 c 0
 264 296 239 276 220 262 c 0
 194 241 132 196 130 196 c 0
 129 196 128 197 128 198 c 0
 127 200 128 198 122 196 c 0
 119 195 116 194 115 194 c 0
 114 194 109 195 105 198 c 2
 97 202 l 1
 94 209 l 2
 92 214 91 219 89 226 c 2
 87 236 l 1
 89 246 l 2
 91 254 92 256 95 261 c 0
 99 268 103 271 112 280 c 0
 122 289 134 302 142 311 c 0
 150 320 154 327 183 385 c 0
 217 450 233 484 255 534 c 0
 273 576 282 597 281 597 c 0
 281 597 274 592 268 587 c 0
 250 573 232 559 212 548 c 0
 202 542 194 538 192 537 c 0
 190 536 189 533 184 524 c 0
 180 516 178 514 177 515 c 0
 176 517 140 589 139 591 c 0
 139 592 139 592 139 592 c 0
284 623 m 0
 286 625 290 627 291 625 c 0
 292 624 285 621 284 621 c 0
 282 620 282 621 284 623 c 0
EndSplineSet
Comment: "Kage: aj1-00540+AAoA-Alias: uf021c"
EndChar
StartChar: uF021D
Encoding: 983581 983581 119
Width: 500
VWidth: 0
Flags: MW
LayerCount: 2
Back
Fore
SplineSet
104 -87 m 1x90
 111 -57 l 2
 129 36 151 169 168 290 c 0
 173 324 184 411 186 428 c 2
 187 434 l 1
 176 432 l 2
 166 430 165 431 155 432 c 0
 145 433 144 435 136 440 c 0
 129 445 128 446 122 454 c 0
 116 462 115 464 112 474 c 0
 109 485 109 486 108 501 c 0
 108 510 108 517 108 517 c 0
 108 517 110 519 112 519 c 2
 116 520 l 1
 122 509 l 2
 133 489 140 480 149 478 c 0
 155 476 163 476 171 479 c 0
 177 480 191 488 192 489 c 0
 193 490 202 566 208 623 c 2
 212 659 l 1
 209 683 l 2
 207 696 205 708 205 709 c 0
 205 710 206 711 206 711 c 0
 206 711 217 705 228 700 c 0
 239 695 254 688 261 685 c 0
 268 682 274 679 274 679 c 0
 274 679 271 667 266 653 c 2
 257 627 l 1
 254 594 l 2
 252 581 246 522 246 522 c 2
 246 522 252 527 258 531 c 2
 270 538 l 1
 280 539 l 1
 288 540 l 1
 293 535 298 531 303 526 c 1
 303 518 303 510 303 502 c 1
 299 496 295 490 291 484 c 1
 274 474 l 2
 264 468 253 461 248 459 c 0
 243 457 238 454 238 454 c 0
 238 454 237 443 235 431 c 0
 224 342 216 277 206 211 c 0
 192 116 173 8 158 -66 c 2
 152 -100 l 1
 146 -109 l 2
 143 -114 140 -119 140 -119 c 0
 140 -119 137 -120 132 -121 c 2
 122 -124 l 1
 115 -118 l 2
 111 -114 107 -109 107 -108 c 0
 107 -107 106 -102 105 -97 c 2
 104 -87 l 1x90
250 17 m 0
 248 36 249 64 254 87 c 0
 256 96 269 147 271 150 c 0
 271 151 278 150 279 149 c 0
 279 149 278 142 277 134 c 0
 275 122 275 117 275 98 c 0
 275 53 280 22 300 6 c 0
 304 3 307 2 320 -1 c 0
 350 -9 351 -9 359 -7 c 0
 368 -5 378 -2 384 1 c 0
 388 3 391 3 399 3 c 2
 408 4 l 1
 412 -2 416 -6 420 -12 c 1
 420 -24 l 2
 419 -39 418 -33 420 -47 c 1
 421 -56 l 1
 416 -66 l 2
 413 -71 410 -76 410 -76 c 0
 410 -76 406 -77 401 -78 c 2
 392 -81 l 1
 376 -77 l 2
 367 -75 356 -73 351 -72 c 0
 346 -71 340 -69 335 -69 c 0
 320 -68 308 -66 294 -59 c 0
 272 -49 255 -17 250 17 c 0
267 320 m 0
 267 320 269 324 271 329 c 0
 280 349 295 367 319 385 c 0
 331 394 347 400 361 403 c 0xd0
 365 403 369 404 371 404 c 0xb0
 384 404 383 403 396 400 c 0
 397 400 401 396 404 391 c 2
 410 382 l 1
 409 374 409 367 408 359 c 1
 403 354 399 349 394 344 c 1
 384 343 l 2xd0
 376 343 374 344 372 346 c 0
 367 350 363 350 351 349 c 0xb0
 332 348 318 342 288 324 c 0
 280 319 273 313 272 313 c 0
 271 313 267 319 267 320 c 0
EndSplineSet
Comment: "Kage: aj1-00541+AAoA-Alias: uf021d"
EndChar
StartChar: uF021E
Encoding: 983582 983582 120
Width: 500
VWidth: 0
Flags: MW
LayerCount: 2
Back
Fore
SplineSet
104 496 m 1
 104 514 l 2
 105 524 106 533 106 533 c 0
 106 533 108 534 110 534 c 2
 114 536 l 1
 119 520 l 2
 122 510 125 502 128 496 c 0
 132 488 134 485 138 482 c 0
 144 477 150 477 160 479 c 0
 164 479 167 480 168 481 c 0
 168 481 171 502 174 525 c 0
 177 548 183 588 186 612 c 2
 192 655 l 1
 190 680 l 2
 189 693 188 705 188 706 c 0
 188 707 188 708 188 708 c 0
 188 708 209 698 243 679 c 2
 256 671 l 1
 250 655 242 638 236 622 c 1
 232 590 l 2
 226 549 222 512 222 512 c 0
 222 512 254 535 268 546 c 2
 276 553 l 1
 282 554 288 555 294 556 c 1
 301 550 l 2
 309 543 309 543 310 528 c 2
 310 519 l 1
 306 513 303 506 299 500 c 1
 288 493 l 2
 262 475 220 450 217 450 c 0
 216 450 216 449 215 449 c 0
 214 448 206 380 200 308 c 0
 198 286 193 212 193 208 c 0
 193 207 195 208 200 214 c 0
 207 223 215 233 221 237 c 0
 223 238 225 240 227 242 c 0
 228 244 236 252 244 259 c 2
 257 271 l 1
 267 276 276 278 286 283 c 1
 296 283 306 283 316 283 c 1
 325 279 333 274 342 270 c 1
 352 259 l 2
 362 248 364 247 371 232 c 0
 378 218 379 215 384 197 c 0
 389 178 389 178 391 157 c 0
 393 136 393 135 392 111 c 2
 392 86 l 1
 390 82 l 2
 388 77 386 76 388 76 c 0
 389 76 390 76 390 75 c 0
 390 74 386 64 384 54 c 0
 372 3 352 -40 325 -71 c 0
 306 -92 281 -109 257 -116 c 0
 237 -121 215 -122 193 -118 c 0
 191 -118 192 -117 192 -113 c 2
 192 -108 l 1
 204 -105 l 2
 219 -101 229 -97 247 -84 c 0
 299 -47 327 3 336 78 c 0
 338 97 340 127 340 155 c 0
 340 175 339 178 337 189 c 0
 335 205 330 212 324 222 c 0
 316 232 308 240 297 242 c 2
 288 244 l 1
 278 241 l 2
 268 238 265 237 254 231 c 0
 247 227 242 223 241 223 c 0
 239 221 228 200 223 191 c 0
 218 182 210 162 204 147 c 0
 201 138 198 124 195 109 c 0
 194 105 192 102 192 102 c 0
 192 102 191 102 189 103 c 0
 186 105 186 104 184 95 c 0
 183 91 184 92 175 86 c 2
 166 80 l 1
 157 84 l 2
 149 87 149 87 147 91 c 0
 144 97 141 107 141 116 c 0
 141 121 142 125 142 127 c 0
 143 129 142 130 141 130 c 0
 140 130 140 131 140 133 c 0
 140 138 142 192 144 217 c 0
 147 263 156 365 162 420 c 2
 164 433 l 1
 162 434 159 434 154 434 c 0
 148 434 146 435 136 439 c 2
 125 444 l 1
 120 452 116 458 111 466 c 1
 109 476 106 486 104 496 c 1
EndSplineSet
Comment: "Kage: aj1-00542+AAoA-Alias: uf021e"
EndChar
StartChar: uF021F
Encoding: 983583 983583 121
Width: 500
VWidth: 0
Flags: MW
LayerCount: 2
Back
Fore
SplineSet
86 316 m 0
 86 316 91 319 98 323 c 0
 108 328 111 330 111 331 c 0
 111 332 148 382 166 404 c 0
 197 442 223 466 245 479 c 0
 250 482 256 487 265 496 c 2
 278 507 l 1
 291 512 l 2
 299 515 305 517 306 517 c 0
 307 517 314 518 322 518 c 2
 337 517 l 1
 350 510 l 2
 364 504 363 504 375 493 c 0
 386 482 387 481 397 466 c 0
 406 451 408 449 414 430 c 0
 421 412 420 409 425 386 c 0
 430 362 429 361 431 336 c 0
 433 312 433 307 432 280 c 0
 430 240 431 243 426 216 c 0
 420 183 412 155 399 123 c 0
 391 103 390 98 380 82 c 0
 358 44 334 17 304 -2 c 0
 291 -10 288 -12 274 -17 c 0
 260 -22 258 -22 244 -24 c 0
 230 -26 228 -26 214 -25 c 0
 206 -25 199 -24 199 -24 c 0
 199 -24 198 -22 198 -19 c 2
 198 -14 l 1
 202 -13 l 2
 204 -12 211 -9 217 -7 c 0
 288 24 331 70 357 145 c 0
 366 171 371 197 375 227 c 0
 377 239 378 252 379 254 c 0
 380 256 381 265 382 282 c 0
 384 349 378 396 361 434 c 0
 350 459 334 473 315 479 c 0
 309 481 304 481 302 481 c 0
 285 480 254 454 226 416 c 0
 208 393 200 379 174 337 c 2
 157 309 l 1
 157 296 l 2
 157 289 156 283 156 283 c 0
 156 283 143 288 127 296 c 0
 87 315 87 315 86 316 c 0
EndSplineSet
Comment: "Kage: aj1-00543+AAoA-Alias: uf021f"
EndChar
StartChar: uF0220
Encoding: 983584 983584 122
Width: 500
VWidth: 0
Flags: MW
LayerCount: 2
Back
Fore
SplineSet
93 504 m 0
 118 493 l 0
 118 493 119 494 119 495 c 0
 119 496 119 497 119 497 c 0
 121 497 139 503 151 507 c 0
 168 513 214 532 216 533 c 0
 217 533 220 536 223 538 c 0
 271 564 287 573 317 594 c 0
 340 611 349 616 359 621 c 0
 366 625 369 625 379 626 c 2
 390 626 l 1
 396 621 403 619 409 614 c 1
 412 605 416 598 420 589 c 1
 419 581 417 573 416 565 c 1
 411 559 l 2
 408 556 405 553 404 552 c 0
 403 551 402 551 400 550 c 0
 390 545 369 530 356 517 c 0
 320 481 297 441 276 378 c 0
 270 359 270 355 266 328 c 0
 260 288 257 251 256 212 c 0
 255 181 255 177 257 152 c 0
 259 128 259 124 263 101 c 0
 267 76 269 75 275 55 c 0
 281 35 281 35 290 21 c 2
 299 7 l 1
 306 2 315 -5 322 -10 c 1
 335 -13 l 2
 348 -15 351 -17 359 -21 c 2
 367 -26 l 1
 370 -37 l 2
 372 -43 372 -49 372 -50 c 0
 372 -51 373 -54 374 -57 c 2
 375 -63 l 1
 372 -70 370 -77 367 -84 c 1
 361 -86 355 -89 349 -92 c 1
 327 -86 l 2
 315 -83 304 -81 303 -80 c 0
 302 -79 294 -72 284 -64 c 2
 267 -49 l 1
 259 -35 251 -18 243 -4 c 1
 238 14 232 31 227 49 c 1
 225 68 222 88 220 107 c 1
 220 142 l 2
 220 176 220 179 222 209 c 0
 225 253 224 235 230 277 c 0
 234 305 236 313 242 341 c 0
 248 368 250 376 255 389 c 0
 259 401 262 408 264 419 c 0
 270 447 281 480 295 506 c 0
 302 520 309 530 319 544 c 0
 322 548 325 552 325 552 c 0
 323 552 300 540 292 535 c 0
 274 524 237 501 223 492 c 0
 192 472 171 459 151 449 c 2
 139 443 l 1
 135 434 l 2
 133 429 129 423 129 423 c 0
 128 423 92 503 93 504 c 0
EndSplineSet
Comment: "Kage: aj1-00544+AAoA-Alias: uf0220"
EndChar
StartChar: uF0221
Encoding: 983585 983585 123
Width: 500
VWidth: 0
Flags: MW
LayerCount: 2
Back
Fore
SplineSet
134 65 m 1
 136 84 l 2
 138 101 140 105 139 115 c 0
 138 126 139 127 142 150 c 2
 145 175 l 1
 154 197 l 2
 162 219 163 222 173 241 c 0
 182 257 187 264 198 279 c 0
 205 290 215 302 217 305 c 2
 222 310 l 1
 219 311 l 2
 209 313 199 324 190 341 c 0
 187 348 186 349 188 349 c 0
 190 349 190 351 187 356 c 0
 184 361 183 363 181 384 c 0
 177 427 177 502 180 612 c 2
 180 640 l 1
 176 664 l 2
 173 678 170 688 170 689 c 0
 170 690 175 689 202 679 c 0
 219 672 242 662 242 662 c 0
 242 662 240 652 236 639 c 2
 228 616 l 1
 228 570 l 2
 226 485 226 434 229 397 c 0
 230 388 231 378 231 375 c 0
 231 371 231 369 232 369 c 0
 234 369 233 357 233 344 c 0
 233 338 233 333 234 332 c 0
 236 327 238 328 252 343 c 0
 259 351 273 363 281 371 c 0
 307 397 306 395 320 420 c 0
 331 439 333 442 334 441 c 0
 335 440 341 428 349 415 c 0
 357 402 366 386 369 380 c 0
 372 374 375 371 375 371 c 0
 373 370 319 335 316 334 c 0
 311 332 305 327 282 306 c 0
 244 272 218 244 200 217 c 0
 190 202 187 198 180 182 c 0
 172 164 170 162 165 143 c 2
 160 123 l 1
 159 102 l 2
 158 90 157 79 157 77 c 0
 157 75 161 64 163 52 c 0
 167 31 167 30 173 17 c 0
 179 5 181 2 187 -6 c 0
 194 -14 195 -15 203 -19 c 0
 215 -25 225 -27 243 -26 c 0
 264 -25 286 -18 316 -4 c 0
 330 2 329 2 340 1 c 2
 348 1 l 1
 353 -8 l 2
 359 -16 360 -16 360 -20 c 0
 360 -23 360 -25 362 -28 c 2
 364 -32 l 1
 363 -40 362 -47 360 -55 c 1
 355 -59 350 -65 345 -69 c 1
 332 -73 l 2
 314 -78 291 -84 273 -86 c 0
 260 -88 256 -88 243 -88 c 0
 228 -88 226 -88 212 -84 c 2
 197 -79 l 1
 188 -73 179 -67 170 -61 c 1
 164 -50 156 -40 150 -30 c 1
 146 -16 141 -4 137 10 c 1
 136 28 135 46 134 65 c 1
EndSplineSet
Comment: "Kage: aj1-00545+AAoA-Alias: uf0221"
EndChar
StartChar: uF0222
Encoding: 983586 983586 124
Width: 500
VWidth: 0
Flags: MW
LayerCount: 2
Back
Fore
SplineSet
101 78 m 1xc0
 106 103 l 2
 127 187 149 291 166 387 c 0
 169 404 171 419 171 420 c 0
 171 421 171 421 169 421 c 0
 167 421 162 420 157 421 c 0
 149 421 147 423 140 427 c 0
 132 431 132 432 126 441 c 0
 121 449 120 451 118 461 c 0
 116 471 114 473 114 484 c 0
 114 491 114 499 114 500 c 0
 114 502 114 504 117 505 c 0
 121 506 121 507 127 492 c 0
 133 480 139 471 145 467 c 0
 148 464 149 463 154 463 c 0
 158 463 162 465 166 467 c 0
 171 469 179 476 181 477 c 0
 182 478 195 562 206 640 c 2
 208 656 l 1
 206 679 l 2
 204 692 204 704 204 705 c 2
 204 708 l 1
 216 701 l 2
 222 697 238 689 250 683 c 2
 272 671 l 1
 262 647 l 2
 253 624 252 621 251 613 c 0
 250 608 247 585 244 563 c 0
 241 541 238 522 238 522 c 0
 238 522 238 522 240 523 c 0
 242 524 246 525 252 526 c 2
 261 528 l 1
 268 521 l 2
 272 517 275 513 275 512 c 0
 275 511 276 506 276 501 c 2
 277 491 l 1
 273 485 269 478 265 472 c 1
 245 459 l 2
 234 452 225 445 225 445 c 0
 225 444 216 391 212 370 c 0
 198 287 171 159 152 81 c 2
 147 63 l 1
 141 53 l 2
 135 43 136 44 122 42 c 2
 116 41 l 1
 110 48 l 2
 103 55 102 55 101 70 c 2
 101 78 l 1xc0
329 -37 m 0xd0
 329 -38 333 -38 333 -39 c 0
 333 -39 330 -49 325 -59 c 2
 317 -76 l 1
 310 -85 302 -93 295 -102 c 1
 287 -107 278 -109 270 -114 c 1
 262 -114 254 -113 246 -113 c 1
 239 -109 231 -104 224 -100 c 1
 217 -88 l 2
 209 -77 209 -77 205 -62 c 2
 200 -48 l 1
 199 -36 199 -22 198 -10 c 1
 201 11 l 2
 203 27 206 37 209 50 c 0
 216 78 216 80 217 80 c 0
 217 80 219 83 221 87 c 0
 224 95 224 96 234 105 c 2
 244 113 l 1
 252 116 259 118 267 121 c 1
 278 120 l 2
 284 119 291 119 293 118 c 2
 295 117 l 1
 295 121 l 2
 295 123 295 138 294 155 c 0
 291 235 291 277 295 318 c 0
 297 340 297 341 302 359 c 2
 306 378 l 1
 316 388 l 2
 321 394 326 399 326 399 c 0
 326 399 326 398 328 396 c 2
 330 392 l 1
 329 381 l 1xd0
 323 340 324 293 330 211 c 0
 332 182 340 92 340 92 c 0
 340 92 344 89 350 83 c 0
 364 71 388 43 402 23 c 0
 408 15 411 9 412 8 c 0
 413 7 414 1 415 -5 c 2
 418 -15 l 1
 414 -25 l 2
 408 -37 408 -36 398 -40 c 2
 389 -43 l 1
 382 -38 l 2
 374 -33 373 -31 366 -19 c 0
 362 -12 355 -1 350 6 c 2
 341 18 l 1
 341 10 l 2xe0
 341 6 340 -6 338 -14 c 2
 336 -29 l 1
 332 -32 l 2
 330 -34 329 -37 329 -37 c 0xd0
216 11 m 2
 216 -7 l 1
 219 -21 l 2
 222 -35 222 -38 227 -47 c 0
 231 -55 233 -57 237 -61 c 0
 243 -67 243 -67 249 -69 c 0
 263 -72 275 -60 283 -34 c 0
 288 -20 287 -21 289 -22 c 0
 291 -23 291 -22 291 -14 c 0xe0
 291 -9 293 -1 294 4 c 0
 296 14 298 43 297 58 c 2
 297 66 l 1
 288 71 l 2
 283 74 277 76 273 78 c 0
 258 83 246 80 230 68 c 2
 222 62 l 1
 218 47 l 2
 215 32 216 29 216 11 c 2
319 532 m 1
 321 537 l 2
 322 539 323 541 323 541 c 0
 324 541 331 536 339 533 c 0
 356 525 369 512 386 488 c 0
 396 473 412 444 422 416 c 2
 426 406 l 1
 425 397 l 2
 425 392 424 387 424 386 c 0
 424 384 424 381 418 375 c 2
 410 366 l 1
 404 367 397 367 391 368 c 1
 386 375 l 2
 380 383 380 384 378 392 c 0
 373 416 363 448 356 465 c 0
 347 488 335 514 325 525 c 2
 319 532 l 1
EndSplineSet
Comment: "Kage: aj1-00546+AAoA-Alias: uf0222"
EndChar
StartChar: uF0223
Encoding: 983587 983587 125
Width: 500
VWidth: 0
Flags: MW
LayerCount: 2
Back
Fore
SplineSet
104 345 m 0
 107 409 114 494 123 582 c 2
 127 623 l 1
 124 648 l 2
 122 662 120 674 120 675 c 0
 120 676 122 675 132 671 c 0
 138 667 154 660 167 654 c 0
 181 647 189 643 189 642 c 0
 189 641 186 630 181 618 c 2
 172 596 l 1
 170 566 l 1
 155 407 147 247 149 152 c 1
 149 133 l 1
 152 141 l 2
 156 157 176 245 177 246 c 0
 184 243 l 0
 185 243 180 194 176 153 c 0
 162 16 160 -22 164 -52 c 0
 165 -59 166 -61 164 -71 c 2
 161 -82 l 1
 156 -86 152 -92 147 -96 c 1
 137 -95 l 2
 132 -94 128 -93 128 -93 c 0
 128 -93 126 -88 123 -83 c 2
 117 -74 l 1
 114 -49 l 1
 100 45 96 190 104 345 c 0
218 147 m 1
 220 175 l 2
 222 203 223 205 229 226 c 0
 232 238 235 251 236 256 c 0
 237 261 239 264 240 264 c 0
 241 264 242 265 244 264 c 2
 246 263 l 1
 246 236 l 2
 246 221 247 195 247 179 c 0
 248 152 248 149 251 130 c 0
 255 102 259 84 268 69 c 0
 273 60 276 58 282 52 c 0
 288 46 290 44 297 41 c 0
 314 34 332 37 357 48 c 2
 370 53 l 1
 376 53 383 54 389 54 c 1
 396 45 l 2
 402 38 401 38 401 35 c 0
 401 32 402 29 404 26 c 2
 408 22 l 1
 407 11 l 2
 406 5 405 -1 405 -1 c 0
 405 -1 403 -6 399 -10 c 2
 392 -17 l 1
 375 -22 l 2
 358 -27 358 -28 340 -29 c 2
 322 -30 l 1
 312 -28 302 -25 292 -23 c 1
 282 -18 274 -11 265 -6 c 1
 258 3 251 13 244 22 c 1
 236 39 l 2
 229 55 228 57 224 76 c 2
 220 96 l 1
 219 113 219 130 218 147 c 1
231 548 m 0
 228 569 227 568 231 569 c 0
 233 570 235 570 235 570 c 0
 235 570 239 565 243 558 c 0
 257 535 264 527 277 529 c 0
 285 531 293 534 311 546 c 0
 336 563 347 570 358 573 c 2
 368 575 l 1
 376 571 l 2
 380 569 384 567 385 566 c 0
 386 565 387 561 389 556 c 2
 392 546 l 1
 389 536 l 2
 387 530 386 525 385 524 c 0
 384 523 380 521 376 519 c 0
 370 516 367 514 364 514 c 0
 358 514 349 510 337 504 c 0
 304 489 287 485 270 490 c 0
 260 493 260 494 251 502 c 0
 244 508 243 509 238 521 c 0
 233 533 233 534 231 548 c 0
EndSplineSet
Comment: "Kage: aj1-00547+AAoA-Alias: uf0223"
EndChar
